<?xml version="1.0" encoding="UTF-8"?>
<svg version="1.1" xmlns="http://www.w3.org/2000/svg" width="512" height="512">
<path d="M0 0 C1.26517456 -0.01007584 1.26517456 -0.01007584 2.5559082 -0.02035522 C5.3123175 -0.03918005 8.06848182 -0.04325001 10.82495117 -0.04541016 C12.75306801 -0.05184366 14.68118388 -0.05857243 16.60929871 -0.06558228 C20.63457507 -0.07751229 24.65976582 -0.08126699 28.68505859 -0.08007812 C33.8446071 -0.07987397 39.00361076 -0.10729413 44.16302967 -0.14162254 C48.13755324 -0.1638326 52.11194377 -0.16791765 56.08652306 -0.16685867 C57.98954858 -0.16921898 59.89257754 -0.17806662 61.79554176 -0.19352341 C64.45002631 -0.21308524 67.10330928 -0.20738687 69.7578125 -0.1953125 C70.54280624 -0.20655151 71.32779999 -0.21779053 72.13658142 -0.22937012 C75.62724053 -0.18895313 77.68963926 0.03196189 80.57402039 2.07089233 C82.05541992 4.29052734 82.05541992 4.29052734 82.05541992 8.29052734 C83.24621658 8.2816449 84.43701324 8.27276245 85.66389465 8.26361084 C96.91826543 8.18231708 108.17257616 8.12246229 119.42717457 8.08327866 C125.21247972 8.06245632 130.99754672 8.03423657 136.78271484 7.98876953 C142.37187205 7.94512082 147.96080101 7.92135002 153.55011559 7.91101837 C155.67624183 7.90366108 157.80235642 7.88929442 159.92838478 7.86760712 C175.21925745 7.71791367 187.42715636 8.18982205 199.05541992 19.29052734 C209.49122823 30.22229485 210.64346439 41.90302151 210.44604492 56.33349609 C210.43856826 57.95444535 210.43288208 59.57540376 210.42889404 61.19636536 C210.41374961 65.42646007 210.37456726 69.65599 210.33007812 73.88586426 C210.28888122 78.21663782 210.27083132 82.5475042 210.25073242 86.87841797 C210.20805968 95.34937793 210.13994764 103.81988203 210.05541992 112.29052734 C211.33344482 112.26659912 212.61146973 112.2426709 213.92822266 112.21801758 C215.63598006 112.19865791 217.34374426 112.17989066 219.05151367 112.16162109 C219.89016968 112.1443396 220.72882568 112.12705811 221.59289551 112.10925293 C234.067827 112.00950184 244.40881322 116.45046698 254.05541992 124.29052734 C254.8881543 124.91701172 255.72088867 125.54349609 256.57885742 126.18896484 C266.88517926 134.93470798 271.71049859 147.38714798 274.05541992 160.29052734 C274.88267578 160.26958008 275.70993164 160.24863281 276.56225586 160.22705078 C280.30985363 160.14391115 284.05725741 160.09187204 287.80541992 160.04052734 C289.10737305 160.00701172 290.40932617 159.97349609 291.75073242 159.93896484 C293.00112305 159.92607422 294.25151367 159.91318359 295.53979492 159.89990234 C296.69189453 159.87895508 297.84399414 159.85800781 299.03100586 159.83642578 C302.05541992 160.29052734 302.05541992 160.29052734 304.42944336 161.75244141 C306.84696936 165.52610512 306.62896468 168.89355578 306.58666992 173.29052734 C306.59049683 174.16322266 306.59432373 175.03591797 306.5982666 175.93505859 C306.60098482 177.77751827 306.59362987 179.62001658 306.5769043 181.46240234 C306.5554924 184.28098668 306.57670793 187.09702219 306.60229492 189.91552734 C306.59965163 191.70719963 306.59452662 193.49887033 306.58666992 195.29052734 C306.59476685 196.13228516 306.60286377 196.97404297 306.61120605 197.84130859 C306.55219837 201.5273096 306.44829008 203.67727237 304.42944336 206.82861328 C301.29318709 208.75990725 299.21140532 208.7479089 295.53979492 208.68115234 C293.66420898 208.66181641 293.66420898 208.66181641 291.75073242 208.64208984 C289.79780273 208.59181641 289.79780273 208.59181641 287.80541992 208.54052734 C286.48799805 208.52248047 285.17057617 208.50443359 283.81323242 208.48583984 C280.55989685 208.43869005 277.30802367 208.37288778 274.05541992 208.29052734 C273.95455078 208.91741455 273.85368164 209.54430176 273.74975586 210.19018555 C272.69361836 216.13404218 271.10540514 221.14069988 268.30541992 226.47802734 C267.94617432 227.1721875 267.58692871 227.86634766 267.21679688 228.58154297 C260.50369458 241.23839759 249.59230322 249.50025489 236.05541992 254.29052734 C232.71883478 255.14480048 229.46278991 255.74732343 226.05541992 256.29052734 C226.05541992 261.57052734 226.05541992 266.85052734 226.05541992 272.29052734 C227.31354492 272.20802734 228.57166992 272.12552734 229.86791992 272.04052734 C239.75030081 272.08706917 248.04952968 276.54801644 255.05541992 283.29052734 C258.79739539 287.45453012 261.68414194 290.80541543 263.05541992 296.29052734 C269.32541992 296.29052734 275.59541992 296.29052734 282.05541992 296.29052734 C282.05541992 301.57052734 282.05541992 306.85052734 282.05541992 312.29052734 C276.77541992 312.29052734 271.49541992 312.29052734 266.05541992 312.29052734 C266.05541992 317.57052734 266.05541992 322.85052734 266.05541992 328.29052734 C271.33541992 328.29052734 276.61541992 328.29052734 282.05541992 328.29052734 C282.05541992 333.57052734 282.05541992 338.85052734 282.05541992 344.29052734 C275.78541992 344.29052734 269.51541992 344.29052734 263.05541992 344.29052734 C262.39541992 345.94052734 261.73541992 347.59052734 261.05541992 349.29052734 C255.61411892 358.38909624 247.79517228 364.32839151 237.78588867 367.64599609 C233.75034081 368.59859323 230.18443682 368.56128255 226.05541992 368.29052734 C226.05541992 373.57052734 226.05541992 378.85052734 226.05541992 384.29052734 C231.33541992 384.29052734 236.61541992 384.29052734 242.05541992 384.29052734 C242.05541992 389.57052734 242.05541992 394.85052734 242.05541992 400.29052734 C226.21541992 400.29052734 210.37541992 400.29052734 194.05541992 400.29052734 C194.05541992 395.01052734 194.05541992 389.73052734 194.05541992 384.29052734 C199.33541992 384.29052734 204.61541992 384.29052734 210.05541992 384.29052734 C210.05541992 379.01052734 210.05541992 373.73052734 210.05541992 368.29052734 C115.01541992 368.29052734 19.97541992 368.29052734 -77.94458008 368.29052734 C-77.94458008 373.57052734 -77.94458008 378.85052734 -77.94458008 384.29052734 C-72.66458008 384.29052734 -67.38458008 384.29052734 -61.94458008 384.29052734 C-61.94458008 389.57052734 -61.94458008 394.85052734 -61.94458008 400.29052734 C-77.78458008 400.29052734 -93.62458008 400.29052734 -109.94458008 400.29052734 C-109.94458008 395.01052734 -109.94458008 389.73052734 -109.94458008 384.29052734 C-104.66458008 384.29052734 -99.38458008 384.29052734 -93.94458008 384.29052734 C-93.94458008 379.01052734 -93.94458008 373.73052734 -93.94458008 368.29052734 C-95.20270508 368.37302734 -96.46083008 368.45552734 -97.75708008 368.54052734 C-107.66618152 368.49385968 -115.90093092 364.01461586 -122.94458008 357.29052734 C-132.65222502 347.12152898 -134.62060755 336.15025505 -134.46606445 322.53857422 C-134.44460691 320.29333546 -134.46596438 318.05129471 -134.49145508 315.80615234 C-134.51724613 302.96096746 -132.00876867 292.78548925 -122.94458008 283.29052734 C-115.90093092 276.56643882 -107.66618152 272.08719501 -97.75708008 272.04052734 C-96.49895508 272.12302734 -95.24083008 272.20552734 -93.94458008 272.29052734 C-93.94458008 267.01052734 -93.94458008 261.73052734 -93.94458008 256.29052734 C-95.26458008 256.12552734 -96.58458008 255.96052734 -97.94458008 255.79052734 C-112.66403588 252.85083574 -124.62264851 244.32363877 -133.08520508 232.22021484 C-137.96629557 224.529421 -140.32906152 217.18022805 -141.94458008 208.29052734 C-142.77183594 208.31147461 -143.5990918 208.33242188 -144.45141602 208.35400391 C-148.19901378 208.43714354 -151.94641757 208.48918265 -155.69458008 208.54052734 C-157.64750977 208.59080078 -157.64750977 208.59080078 -159.63989258 208.64208984 C-160.8902832 208.65498047 -162.14067383 208.66787109 -163.42895508 208.68115234 C-164.58105469 208.70209961 -165.7331543 208.72304688 -166.92016602 208.74462891 C-169.94458008 208.29052734 -169.94458008 208.29052734 -172.31860352 206.82861328 C-174.73612952 203.05494957 -174.51812484 199.68749891 -174.47583008 195.29052734 C-174.47965698 194.41783203 -174.48348389 193.54513672 -174.48742676 192.64599609 C-174.49014498 190.80353642 -174.48279002 188.9610381 -174.46606445 187.11865234 C-174.44465256 184.30006801 -174.46586809 181.4840325 -174.49145508 178.66552734 C-174.48881178 176.87385506 -174.48368677 175.08218435 -174.47583008 173.29052734 C-174.483927 172.44876953 -174.49202393 171.60701172 -174.50036621 170.73974609 C-174.44135852 167.05374508 -174.33745024 164.90378232 -172.31860352 161.75244141 C-169.18234725 159.82114744 -167.10056547 159.83314579 -163.42895508 159.89990234 C-161.55336914 159.91923828 -161.55336914 159.91923828 -159.63989258 159.93896484 C-157.68696289 159.98923828 -157.68696289 159.98923828 -155.69458008 160.04052734 C-154.3771582 160.05857422 -153.05973633 160.07662109 -151.70239258 160.09521484 C-148.449057 160.14236463 -145.19718383 160.20816691 -141.94458008 160.29052734 C-141.79327637 159.35019653 -141.79327637 159.35019653 -141.63891602 158.39086914 C-140.58277852 152.44701251 -138.99456529 147.44035481 -136.19458008 142.10302734 C-135.83533447 141.40886719 -135.47608887 140.71470703 -135.10595703 139.99951172 C-127.69652793 126.02980549 -115.47762572 118.33622423 -100.73754883 113.16552734 C-96.07324485 112.08951901 -91.77109244 112.07133394 -87.00708008 112.16552734 C-85.69513672 112.1790625 -85.69513672 112.1790625 -84.35668945 112.19287109 C-82.21919944 112.21623164 -80.08185222 112.25209488 -77.94458008 112.29052734 C-77.97600098 111.04964355 -77.97600098 111.04964355 -78.00805664 109.78369141 C-78.09119627 106.03609364 -78.14323539 102.28868985 -78.19458008 98.54052734 C-78.2280957 97.23857422 -78.26161133 95.93662109 -78.29614258 94.59521484 C-78.31547852 92.71962891 -78.31547852 92.71962891 -78.33520508 90.80615234 C-78.36662598 89.07800293 -78.36662598 89.07800293 -78.39868164 87.31494141 C-77.94458008 84.29052734 -77.94458008 84.29052734 -76.31079102 81.89892578 C-73.24655154 79.81605231 -71.36507336 79.88094068 -67.69458008 80.04052734 C-66.61692383 80.07662109 -65.53926758 80.11271484 -64.42895508 80.14990234 C-63.60911133 80.19630859 -62.78926758 80.24271484 -61.94458008 80.29052734 C-61.97600098 79.12034058 -61.97600098 79.12034058 -62.00805664 77.92651367 C-62.09229744 74.31882129 -62.14357924 70.71133688 -62.19458008 67.10302734 C-62.2280957 65.87648438 -62.26161133 64.64994141 -62.29614258 63.38623047 C-62.47786443 46.16808519 -56.03101304 30.92186493 -44.27441406 18.40332031 C-32.4793649 6.49822405 -16.62979472 -0.01945195 0 0 Z M130.49291992 56.50927734 C129.08089369 56.53180847 127.66886565 56.55422635 126.25683594 56.57653809 C122.60081138 56.63460268 118.94481292 56.69416988 115.28881836 56.75408936 C111.53395056 56.81535018 107.77905927 56.87513565 104.02416992 56.93505859 C96.70122998 57.05213359 89.37831706 57.17080171 82.05541992 57.29052734 C81.76666992 58.09490234 81.47791992 58.89927734 81.18041992 59.72802734 C80.05541992 62.29052734 80.05541992 62.29052734 78.05541992 63.29052734 C75.93270691 63.39585955 73.80668936 63.4365969 71.68139648 63.44824219 C71.02749939 63.45332291 70.37360229 63.45840363 69.69989014 63.46363831 C68.27794997 63.47434719 66.85599289 63.48296534 65.43402863 63.48975754 C63.18060003 63.50154564 60.92736316 63.52099974 58.67401123 63.5428772 C52.26638204 63.60448445 45.85877074 63.65846989 39.45092773 63.69189453 C35.53216426 63.71288652 31.6137476 63.74822961 27.6951828 63.79265213 C26.20416101 63.80678098 24.71307783 63.81552753 23.22199249 63.81870651 C21.12996887 63.82363725 19.03885831 63.8468499 16.94702148 63.87402344 C15.16403656 63.88615372 15.16403656 63.88615372 13.34503174 63.89852905 C9.65090814 64.33872997 7.22421695 65.3682928 4.05541992 67.29052734 C1.46869882 71.40576546 1.89585521 75.58336836 2.05541992 80.29052734 C3.30258789 80.34660156 3.30258789 80.34660156 4.57495117 80.40380859 C5.66163086 80.46955078 6.74831055 80.53529297 7.86791992 80.60302734 C9.48633789 80.69003906 9.48633789 80.69003906 11.13745117 80.77880859 C14.05541992 81.29052734 14.05541992 81.29052734 17.05541992 84.29052734 C17.38541992 93.53052734 17.71541992 102.77052734 18.05541992 112.29052734 C65.57541992 112.29052734 113.09541992 112.29052734 162.05541992 112.29052734 C162.05541992 93.81052734 162.05541992 75.33052734 162.05541992 56.29052734 C151.52866487 56.29052734 141.01629488 56.33454208 130.49291992 56.50927734 Z M-77.94458008 256.29052734 C-77.94458008 261.57052734 -77.94458008 266.85052734 -77.94458008 272.29052734 C-70.02458008 272.29052734 -62.10458008 272.29052734 -53.94458008 272.29052734 C-53.94458008 267.01052734 -53.94458008 261.73052734 -53.94458008 256.29052734 C-61.86458008 256.29052734 -69.78458008 256.29052734 -77.94458008 256.29052734 Z M-5.94458008 256.29052734 C-5.94458008 261.57052734 -5.94458008 266.85052734 -5.94458008 272.29052734 C17.81541992 272.29052734 41.57541992 272.29052734 66.05541992 272.29052734 C66.05541992 267.01052734 66.05541992 261.73052734 66.05541992 256.29052734 C42.29541992 256.29052734 18.53541992 256.29052734 -5.94458008 256.29052734 Z M194.05541992 256.29052734 C194.05541992 261.57052734 194.05541992 266.85052734 194.05541992 272.29052734 C199.33541992 272.29052734 204.61541992 272.29052734 210.05541992 272.29052734 C210.05541992 267.01052734 210.05541992 261.73052734 210.05541992 256.29052734 C204.77541992 256.29052734 199.49541992 256.29052734 194.05541992 256.29052734 Z " fill="#333333" transform="translate(189.944580078125,47.70947265625)"/>
<path d="M0 0 C95.04 0 190.08 0 288 0 C288 36.96 288 73.92 288 112 C282.72 112 277.44 112 272 112 C271.98018066 109.74373779 271.96036133 107.48747559 271.93994141 105.1628418 C271.87308623 97.71481977 271.79544607 90.26693845 271.71247292 82.8190794 C271.66249018 78.30267608 271.61616036 73.78629638 271.578125 69.26977539 C271.5412971 64.91248951 271.49494406 60.55540028 271.44193649 56.19828224 C271.42337924 54.53451798 271.40827621 52.87071155 271.39665604 51.20688438 C271.37981619 48.87949792 271.35078727 46.55256312 271.31884766 44.2253418 C271.31668747 43.53482224 271.31452728 42.84430267 271.31230164 42.13285828 C271.24904004 38.53336742 271.05791628 37.08687442 269 34 C266.09936446 33.03312149 264.24191819 32.86791417 261.22438049 32.85282898 C260.24158112 32.84567368 259.25878174 32.83851837 258.24620056 32.83114624 C257.16923416 32.82845734 256.09226776 32.82576843 254.98266602 32.82299805 C253.84748535 32.81642685 252.71230469 32.80985565 251.54272461 32.80308533 C247.77978453 32.78334577 244.0168843 32.77169021 240.25390625 32.76171875 C238.97084028 32.75764322 237.68777431 32.7535677 236.36582756 32.74936867 C230.27896039 32.73065956 224.19211325 32.71609188 218.10522324 32.7077567 C211.07899853 32.69797599 204.05308817 32.67163083 197.02697426 32.63125581 C190.94063093 32.59748057 184.85442006 32.58561387 178.7679882 32.58155251 C176.17835288 32.57666915 173.58872133 32.56500591 170.99914742 32.54651451 C167.38141656 32.52228047 163.76451494 32.52305932 160.14672852 32.5300293 C159.07178635 32.51721924 157.99684418 32.50440918 156.889328 32.49121094 C151.34823009 32.48952452 151.34823009 32.48952452 146.33744812 34.57069397 C144.54359155 37.82900846 144.42752712 40.70997967 144.45410156 44.33886719 C144.44376389 45.07096909 144.43342621 45.80307098 144.42277527 46.55735779 C144.39334033 48.97075452 144.39184803 51.38331286 144.390625 53.796875 C144.37564373 55.47269287 144.35891669 57.14849598 144.34051514 58.82427979 C144.29682306 63.23012977 144.27683853 67.63578059 144.26177979 72.04180908 C144.23877417 77.33083508 144.18634244 82.61964123 144.13883972 87.90849304 C144.07000826 95.93905279 144.03857358 103.96898109 144 112 C120.24 112 96.48 112 72 112 C71.67 102.1 71.34 92.2 71 82 C67.01595526 74.03191053 64.00841835 69.55985827 56.1875 65.5625 C49.08229372 64.30864007 42.26617399 63.88879652 35.8515625 67.59765625 C30.79374602 71.42836535 27.00949744 75.96521488 25 82 C24.77503426 84.34353668 24.64602795 86.69723862 24.5859375 89.05078125 C24.56657135 89.70958786 24.5472052 90.36839447 24.5272522 91.04716492 C24.46784059 93.13548143 24.42122709 95.22385424 24.375 97.3125 C24.33678468 98.73504905 24.29773091 100.15757584 24.2578125 101.58007812 C24.16060379 105.05326448 24.0807358 108.52623597 24 112 C16.08 112 8.16 112 0 112 C0 75.04 0 38.08 0 0 Z " fill="#CBCBCB" transform="translate(112,176)"/>
<path d="M0 0 C7.92 0 15.84 0 24 0 C24.02578125 1.98902344 24.0515625 3.97804688 24.078125 6.02734375 C24.11989366 7.98350939 24.16180468 9.93967455 24.20751953 11.89575195 C24.24915877 13.89706771 24.2712655 15.8987594 24.29296875 17.90039062 C24.51222135 26.60471866 25.24648091 33.53010351 30.96484375 40.33984375 C37.95619926 46.0021495 42.92368574 47.87432385 52 47 C58.28739123 45.65914058 62.5811403 42.58881585 67 38 C72.90760029 26.22112033 72.90760029 26.22112033 72 0 C95.76 0 119.52 0 144 0 C144.33 8.58 144.66 17.16 145 26 C146.5 30 146.5 30 149 31 C150.54941675 31.09665054 152.10293968 31.13067263 153.65536499 31.13371277 C154.6367897 31.13797775 155.61821442 31.14224274 156.62937927 31.14663696 C157.70994095 31.14618378 158.79050262 31.14573059 159.90380859 31.14526367 C161.03884323 31.14862228 162.17387787 31.1519809 163.3433075 31.15544128 C167.11169516 31.16497398 170.88003851 31.16689558 174.6484375 31.16796875 C177.25916564 31.1711798 179.86989359 31.17454375 182.48062134 31.17805481 C187.96006561 31.18445457 193.4394978 31.18593683 198.91894531 31.18530273 C205.25255818 31.1847021 211.58608583 31.19525031 217.91967714 31.2110464 C224.01081725 31.22569676 230.10191646 31.22929082 236.19307327 31.22869301 C238.7854815 31.22987554 241.3778903 31.23431254 243.97028732 31.24202538 C247.59273144 31.25179306 251.21495488 31.24895982 254.83740234 31.24291992 C255.91391556 31.24853943 256.99042877 31.25415894 258.0995636 31.25994873 C259.08662796 31.25575424 260.07369232 31.25155975 261.09066772 31.24723816 C262.37543786 31.24805531 262.37543786 31.24805531 263.68616295 31.24888897 C266.25930224 30.97210803 267.84943649 30.43567272 270 29 C271.05836661 25.82490018 271.20243789 23.35717617 271.31640625 20.01953125 C271.35830078 18.85615234 271.40019531 17.69277344 271.44335938 16.49414062 C271.50233398 14.67172852 271.50233398 14.67172852 271.5625 12.8125 C271.60568359 11.58595703 271.64886719 10.35941406 271.69335938 9.09570312 C271.79953014 6.06393808 271.90027764 3.031984 272 0 C277.28 0 282.56 0 288 0 C288 21.12 288 42.24 288 64 C192.96 64 97.92 64 0 64 C0 42.88 0 21.76 0 0 Z " fill="#989898" transform="translate(112,336)"/>
<path d="M0 0 C31.68 0 63.36 0 96 0 C96 42.24 96 84.48 96 128 C64.32 128 32.64 128 0 128 C0 85.76 0 43.52 0 0 Z " fill="#329FE4" transform="translate(272,224)"/>
<path d="M0 0 C1.57897257 0.00373658 3.15794748 0.0065805 4.73692322 0.00857544 C8.8649247 0.0161612 12.99278234 0.03576539 17.12072754 0.0579834 C22.08849872 0.0821767 27.05631837 0.09124693 32.02413177 0.10289001 C39.54613538 0.12219342 47.06782424 0.16055092 54.58984375 0.1953125 C54.58984375 10.7553125 54.58984375 21.3153125 54.58984375 32.1953125 C50.20703125 32.22109375 45.82421875 32.246875 41.30859375 32.2734375 C37.79723977 32.30514924 34.2859746 32.34080139 30.77468872 32.37910461 C27.07731309 32.41836319 23.38017519 32.45080025 19.68261719 32.46630859 C16.11614792 32.48153714 12.55032594 32.51609003 8.98414612 32.56362152 C6.97256337 32.5855134 4.96079767 32.5877809 2.94909668 32.58966064 C-5.41432307 32.7225836 -11.18487128 33.49266731 -17.65234375 39.16015625 C-18.19117188 39.81113281 -18.73 40.46210937 -19.28515625 41.1328125 C-19.83945313 41.78121094 -20.39375 42.42960937 -20.96484375 43.09765625 C-25.72323441 50.00375296 -24.76877579 55.21598609 -25.41015625 64.1953125 C-35.97015625 64.1953125 -46.53015625 64.1953125 -57.41015625 64.1953125 C-57.47203125 60.6271875 -57.53390625 57.0590625 -57.59765625 53.3828125 C-57.62496826 52.28219482 -57.65228027 51.18157715 -57.68041992 50.04760742 C-57.79529901 36.14970807 -53.36697391 24.16003486 -43.84765625 13.9453125 C-30.81816763 1.62224194 -17.1029322 -0.11957159 0 0 Z " fill="#329EE3" transform="translate(201.41015625,63.8046875)"/>
<path d="M0 0 C0 36.3 0 72.6 0 110 C-11.20660128 107.19834968 -19.39046045 102.69399134 -26 93 C-29.05902706 86.88194588 -32.08068229 80.44529062 -32.19287109 73.53540039 C-32.20893402 72.63338394 -32.22499695 71.73136749 -32.24154663 70.80201721 C-32.28634273 66.65211922 -32.32711926 62.50237908 -32.35009766 58.35229492 C-32.36657808 56.17510225 -32.39376191 53.99796189 -32.43212891 51.82104492 C-32.71058658 35.92353332 -32.25612168 23.30448595 -21 11 C-15.54510327 5.46791133 -8.10943303 0 0 0 Z " fill="#CBCBCB" transform="translate(96,177)"/>
<path d="M0 0 C12.10096366 3.02524091 20.69670632 8.33479694 27.3125 19.14453125 C28.31826566 21.07841154 29.20680879 22.96990169 30 25 C30.3393457 25.8259668 30.67869141 26.65193359 31.02832031 27.50292969 C32.292078 32.05118726 32.32447687 36.27351307 32.3359375 40.97265625 C32.3425943 41.93215683 32.3492511 42.89165741 32.35610962 43.88023376 C32.36621099 45.90833631 32.37092742 47.93647193 32.37060547 49.96459961 C32.37495164 53.02840895 32.4112235 56.09074459 32.44921875 59.15429688 C32.53862508 74.59955569 31.33590904 88.25733973 20.1171875 99.96484375 C13.92570149 105.70714352 8.33189792 108.61135035 0 110 C0 73.7 0 37.4 0 0 Z " fill="#CBCBCB" transform="translate(416,177)"/>
<path d="M0 0 C11.97019073 -0.09284971 23.9402952 -0.16384109 35.91077328 -0.20724869 C41.46969804 -0.22808654 47.02837565 -0.2563349 52.5871582 -0.30175781 C57.9558561 -0.34535087 63.32431689 -0.36916569 68.69317818 -0.37950897 C70.73722628 -0.38687618 72.78126202 -0.40126253 74.82520866 -0.42292023 C77.69747417 -0.45213301 80.56877097 -0.45594853 83.44116211 -0.45410156 C84.69705391 -0.47567322 84.69705391 -0.47567322 85.97831726 -0.49768066 C93.1043235 -0.44838636 99.09580786 1.52146045 104.55859375 6.18359375 C105.17863281 6.92738281 105.79867187 7.67117187 106.4375 8.4375 C107.07558594 9.17871094 107.71367187 9.91992188 108.37109375 10.68359375 C112.09437786 15.9783359 112.27557458 20.53849862 112.1953125 26.80078125 C112.1924826 27.63715622 112.18965271 28.47353119 112.18673706 29.33525085 C112.1755832 31.99448226 112.15048763 34.65337118 112.125 37.3125 C112.11496399 39.12043783 112.10583923 40.92838096 112.09765625 42.73632812 C112.07565959 47.15768312 112.04116294 51.57878358 112 56 C106.72 56 101.44 56 96 56 C95.97421875 53.97617188 95.9484375 51.95234375 95.921875 49.8671875 C95.88012976 47.89124627 95.838244 45.91530538 95.79248047 43.93945312 C95.76438377 42.57401836 95.74311323 41.20842436 95.72900391 39.84277344 C95.70742018 37.87145962 95.6586454 35.90050369 95.609375 33.9296875 C95.5779541 32.15440674 95.5779541 32.15440674 95.54589844 30.34326172 C94.76179203 25.54113595 92.56361065 22.37408208 88.9375 19.1875 C84.76503517 16.63018285 80.67643484 16.82980406 75.94848633 16.79467773 C74.71887932 16.77982834 74.71887932 16.77982834 73.46443176 16.76467896 C70.75366102 16.73307991 68.04287275 16.7083128 65.33203125 16.68359375 C63.45301354 16.66302285 61.57400045 16.64202634 59.69499207 16.62062073 C54.7482985 16.56541414 49.80156326 16.5159986 44.85479736 16.46777344 C39.80745738 16.41754813 34.76017793 16.36186743 29.71289062 16.30664062 C19.80864353 16.1990763 9.90434505 16.09813155 0 16 C0 10.72 0 5.44 0 0 Z " fill="#FE7074" transform="translate(272,72)"/>
<path d="M0 0 C4.15579926 0.86579151 5.42241101 2.25803358 8 5.625 C8.72433391 8.87947167 8.66321292 12.06184168 8.61523438 15.38476562 C8.62078339 16.36257492 8.6263324 17.34038422 8.63204956 18.3478241 C8.64384874 21.5761331 8.61956692 24.8030394 8.59375 28.03125 C8.59203892 30.27656999 8.59210456 32.52189197 8.59387207 34.76721191 C8.59221866 39.47146737 8.5735161 44.17524638 8.54199219 48.87939453 C8.50231497 54.9088057 8.49794692 60.93759274 8.50545502 66.96710968 C8.50852484 71.60310583 8.49640366 76.23896172 8.47932434 80.87492371 C8.47229398 83.09806946 8.46916985 85.32123111 8.47001648 87.54438782 C8.4682184 90.65162881 8.44683491 93.75812261 8.41992188 96.86523438 C8.42285248 97.78382736 8.42578308 98.70242035 8.42880249 99.64884949 C8.36480661 104.43863133 8.16407532 107.76080325 5 111.625 C2.19084526 113.02957737 0.11189466 112.87395157 -3 112.625 C-6.1359157 110.84515595 -6.84102736 110.10191793 -8 106.625 C-8.09816869 105.24037123 -8.14338459 103.8515961 -8.15390015 102.46353149 C-8.16250061 101.61680374 -8.17110107 100.77007599 -8.17996216 99.89768982 C-8.18422211 98.97190628 -8.18848206 98.04612274 -8.19287109 97.09228516 C-8.20104858 96.11476791 -8.20922607 95.13725067 -8.21765137 94.13011169 C-8.24248899 90.89143487 -8.25901524 87.65280176 -8.2734375 84.4140625 C-8.27876118 83.30876568 -8.28408485 82.20346886 -8.28956985 81.06467819 C-8.31629141 75.21695397 -8.33567151 69.36925105 -8.35009766 63.52148438 C-8.36676381 57.47624483 -8.41156136 51.4315485 -8.4624691 45.38651466 C-8.49608616 40.74198768 -8.50766889 36.09759071 -8.51332474 31.45295334 C-8.52005004 29.22417411 -8.53530507 26.99540382 -8.55921555 24.76674271 C-8.59075684 21.64954212 -8.59092037 18.53382149 -8.58349609 15.41650391 C-8.59990143 14.49476883 -8.61630676 13.57303375 -8.63320923 12.62336731 C-8.58935485 8.12975367 -8.45875145 6.22513589 -5.65103149 2.55209351 C-3 0.625 -3 0.625 0 0 Z " fill="#FD7074" transform="translate(160,255.375)"/>
<path d="M0 0 C0 21.12 0 42.24 0 64 C-9.86992305 62.90334188 -13.51762372 61.04516261 -19.875 54 C-24.80786935 47.03594915 -24.36618579 39.83984419 -24.375 31.625 C-24.39949219 30.43132812 -24.42398438 29.23765625 -24.44921875 28.0078125 C-24.47737333 19.52390054 -23.49012826 13.93341826 -17.81640625 7.5390625 C-16.70072266 6.59160156 -16.70072266 6.59160156 -15.5625 5.625 C-14.82128906 4.97789062 -14.08007812 4.33078125 -13.31640625 3.6640625 C-8.60554998 0.27987233 -5.97470497 0 0 0 Z " fill="#989898" transform="translate(96,336)"/>
<path d="M0 0 C10.15159115 1.26894889 13.71513784 3.26009733 20.265625 10.6484375 C24.96305918 17.01748114 24.36686493 23.64371144 24.375 31.25 C24.39949219 32.43980469 24.42398437 33.62960937 24.44921875 34.85546875 C24.47720919 43.29925227 23.27784655 49.39540603 18.359375 56.3046875 C12.70527047 61.82155649 7.93698583 64 0 64 C0 42.88 0 21.76 0 0 Z " fill="#989898" transform="translate(416,336)"/>
<path d="M0 0 C21.12 0 42.24 0 64 0 C64 5.28 64 10.56 64 16 C42.88 16 21.76 16 0 16 C0 10.72 0 5.44 0 0 Z " fill="#999999" transform="translate(128,144)"/>
<path d="M0 0 C5.28 0 10.56 0 16 0 C16 5.28 16 10.56 16 16 C10.72 16 5.44 16 0 16 C0 10.72 0 5.44 0 0 Z " fill="#333333" transform="translate(336,304)"/>
<path d="M0 0 C5.28 0 10.56 0 16 0 C16 5.28 16 10.56 16 16 C10.72 16 5.44 16 0 16 C0 10.72 0 5.44 0 0 Z " fill="#333333" transform="translate(336,272)"/>
<path d="M0 0 C5.28 0 10.56 0 16 0 C16 5.28 16 10.56 16 16 C10.72 16 5.44 16 0 16 C0 10.72 0 5.44 0 0 Z " fill="#333333" transform="translate(336,240)"/>
<path d="M0 0 C5.28 0 10.56 0 16 0 C16 5.28 16 10.56 16 16 C10.72 16 5.44 16 0 16 C0 10.72 0 5.44 0 0 Z " fill="#CCCCCC" transform="translate(464,224)"/>
<path d="M0 0 C5.28 0 10.56 0 16 0 C16 5.28 16 10.56 16 16 C10.72 16 5.44 16 0 16 C0 10.72 0 5.44 0 0 Z " fill="#CCCCCC" transform="translate(32,224)"/>
<path d="M0 0 C5.28 0 10.56 0 16 0 C16 5.28 16 10.56 16 16 C10.72 16 5.44 16 0 16 C0 10.72 0 5.44 0 0 Z " fill="#FF7175" transform="translate(368,144)"/>
</svg>
