<?xml version="1.0" encoding="UTF-8"?>
<svg version="1.1" xmlns="http://www.w3.org/2000/svg" width="512" height="512">
<path d="M0 0 C1.08507631 -0.00935994 1.08507631 -0.00935994 2.19207335 -0.01890898 C4.61670212 -0.03486756 7.04032954 -0.0222243 9.46496582 -0.00964355 C11.20289192 -0.01506343 12.94081342 -0.02218533 14.6787262 -0.03088379 C19.39979607 -0.04913617 24.12051672 -0.04204174 28.84159279 -0.02936745 C33.77917049 -0.01924969 38.71671802 -0.02862972 43.65429688 -0.03491211 C51.9465472 -0.04219208 60.23865508 -0.03259162 68.53088379 -0.0135498 C78.1217444 0.0082196 87.71226491 0.00116848 97.30311728 -0.02085543 C105.53337058 -0.03899945 113.76352141 -0.04157264 121.99378824 -0.03110075 C126.91123436 -0.02486033 131.82852054 -0.02404526 136.74595642 -0.0372467 C141.36879355 -0.04879007 145.99119162 -0.04080729 150.61398125 -0.01766968 C152.31193245 -0.01237447 154.00992053 -0.01391023 155.70785713 -0.02272034 C158.02326847 -0.03362792 160.33726696 -0.01997212 162.65258789 0 C164.59715252 0.00226215 164.59715252 0.00226215 166.58100128 0.00457001 C169.82629395 0.50793457 169.82629395 0.50793457 172.24340057 2.32093048 C174.5568167 5.51726109 174.37552353 7.6633275 173.82629395 11.50793457 C172.01379395 13.94543457 172.01379395 13.94543457 169.82629395 15.50793457 C168.83629395 15.50793457 167.84629395 15.50793457 166.82629395 15.50793457 C166.82629395 22.76793457 166.82629395 30.02793457 166.82629395 37.50793457 C176.72629395 37.50793457 186.62629395 37.50793457 196.82629395 37.50793457 C196.82629395 30.24793457 196.82629395 22.98793457 196.82629395 15.50793457 C195.17629395 15.17793457 193.52629395 14.84793457 191.82629395 14.50793457 C189.34590488 10.78735097 189.36292191 8.90996886 189.82629395 4.50793457 C191.40137482 2.31702423 191.40137482 2.31702423 193.82629395 0.50793457 C197.07158661 0.00457001 197.07158661 0.00457001 201 0 C201.7233842 -0.00623996 202.44676841 -0.01247993 203.19207335 -0.01890898 C205.61670212 -0.03486756 208.04032954 -0.0222243 210.46496582 -0.00964355 C212.20289192 -0.01506343 213.94081342 -0.02218533 215.6787262 -0.03088379 C220.39979607 -0.04913617 225.12051672 -0.04204174 229.84159279 -0.02936745 C234.77917049 -0.01924969 239.71671802 -0.02862972 244.65429688 -0.03491211 C252.9465472 -0.04219208 261.23865508 -0.03259162 269.53088379 -0.0135498 C279.1217444 0.0082196 288.71226491 0.00116848 298.30311728 -0.02085543 C306.53337058 -0.03899945 314.76352141 -0.04157264 322.99378824 -0.03110075 C327.91123436 -0.02486033 332.82852054 -0.02404526 337.74595642 -0.0372467 C342.36879355 -0.04879007 346.99119162 -0.04080729 351.61398125 -0.01766968 C353.31193245 -0.01237447 355.00992053 -0.01391023 356.70785713 -0.02272034 C359.02326847 -0.03362792 361.33726696 -0.01997212 363.65258789 0 C365.59715252 0.00226215 365.59715252 0.00226215 367.58100128 0.00457001 C370.82629395 0.50793457 370.82629395 0.50793457 373.24340057 2.32093048 C375.5568167 5.51726109 375.37552353 7.6633275 374.82629395 11.50793457 C373.01379395 13.94543457 373.01379395 13.94543457 370.82629395 15.50793457 C369.83629395 15.50793457 368.84629395 15.50793457 367.82629395 15.50793457 C367.82629395 22.76793457 367.82629395 30.02793457 367.82629395 37.50793457 C370.07828613 37.47312988 372.33027832 37.4383252 374.6505127 37.40246582 C376.84149916 37.37904216 379.03247146 37.36084168 381.22351074 37.34313965 C382.74147833 37.32809104 384.25940271 37.30764719 385.77722168 37.28161621 C387.96426072 37.24505804 390.15072291 37.22816934 392.3380127 37.21496582 C393.65245361 37.19925537 394.96689453 37.18354492 396.32116699 37.1673584 C400.07751898 37.53234489 401.90173633 38.16001299 404.82629395 40.50793457 C407.27468232 44.12665305 407.07795203 47.4980892 407.08076954 51.77971554 C407.08397602 52.51727549 407.08718249 53.25483543 407.09048614 54.01474568 C407.09882372 56.49977169 407.09284879 58.98455904 407.08699036 61.46958923 C407.09000933 63.26376777 407.09389752 65.05794502 407.09858292 66.85211998 C407.10890444 71.79313617 407.10667057 76.73408013 407.10240233 81.67510235 C407.09994263 86.99965718 407.10893982 92.32419427 407.11643982 97.64874268 C407.12920979 108.08406574 407.13097766 118.5193631 407.12863956 128.95469265 C407.12685886 137.43377266 407.1286007 145.91284484 407.132864 154.3919239 C407.13345919 155.59722047 407.13405438 156.80251703 407.1346676 158.04433774 C407.13587931 160.49263795 407.13709344 162.94093816 407.13830998 165.38923836 C407.1491943 188.36564019 407.14701876 211.34202736 407.14092513 234.31843001 C407.13575477 255.35366019 407.147013 276.38884408 407.16602335 297.42406511 C407.18537906 319.00632711 407.19366177 340.58856719 407.1899001 362.17083794 C407.18798466 374.29434708 407.19050894 386.41781681 407.20461464 398.54131889 C407.21650053 408.86168009 407.21796477 419.18197762 407.20582447 429.50233965 C407.19991621 434.77074651 407.19888991 440.03903675 407.21082687 445.30743599 C407.22161965 450.12673114 407.21866163 454.94581138 407.20456519 459.7650962 C407.20189995 461.51202565 407.20434157 463.25897159 407.21230105 465.00588494 C407.22234639 467.37428972 407.21403778 469.74193861 407.20102406 472.11031246 C407.20107907 473.42767232 407.20113409 474.74503218 407.20119077 476.10231203 C406.69185144 480.72923173 405.07012747 483.26410104 401.82629395 486.50793457 C398.70129395 486.63293457 398.70129395 486.63293457 395.82629395 486.50793457 C395.83676758 487.09284668 395.84724121 487.67775879 395.85803223 488.28039551 C395.89969659 490.93953121 395.92565296 493.5985981 395.95129395 496.25793457 C395.96805176 497.1783252 395.98480957 498.09871582 396.0020752 499.04699707 C396.00852051 499.9364502 396.01496582 500.82590332 396.02160645 501.74230957 C396.03208008 502.55925293 396.04255371 503.37619629 396.05334473 504.21789551 C395.7977459 506.79587076 395.22467399 508.33396776 393.82629395 510.50793457 C390.1391881 512.96600514 388.3415048 512.76030746 383.94026279 512.76520348 C383.23225945 512.76870955 382.5242561 512.77221563 381.79479811 512.77582794 C379.4043053 512.78518816 377.01405366 512.78020684 374.62355042 512.77536011 C372.89964344 512.77909404 371.17573815 512.78369452 369.45183557 512.78909075 C364.70045894 512.80136784 359.94915246 512.80105477 355.19776356 512.798702 C350.07907143 512.79829502 344.96040215 512.80932151 339.84172058 512.81881714 C329.80832503 512.83545349 319.77495298 512.84092786 309.74154479 512.84204189 C301.58947226 512.84299105 293.43740752 512.84709467 285.28533745 512.85344315 C262.19223373 512.87106211 239.09914863 512.8802809 216.00603814 512.8787822 C214.76022109 512.87870229 213.51440404 512.87862237 212.23083496 512.87854004 C210.98350373 512.87845828 209.7361725 512.87837652 208.45104336 512.87829228 C188.22660961 512.87747901 168.00225028 512.89662526 147.77783806 512.92481677 C127.03069077 512.95350967 106.28357982 512.96735908 85.53641218 512.96562922 C73.88071422 512.96496411 62.22509428 512.97050921 50.56941414 512.99198532 C40.64717047 513.01014981 30.72504019 513.01458349 20.80278713 513.00096647 C15.73699978 512.99441305 10.67143025 512.99440481 5.6056633 513.01167297 C0.9725974 513.02730424 -3.66007615 513.02464281 -8.2931319 513.00710471 C-9.97345391 513.00401274 -11.65380449 513.00774898 -13.33409285 513.01882486 C-15.61048828 513.03284191 -17.88548751 513.02244386 -20.16183376 513.00571251 C-21.42847345 513.00614725 -22.69511313 513.00658198 -24.00013584 513.00702989 C-27.74428199 512.41820226 -28.88369875 511.46006464 -31.17370605 508.50793457 C-32.37400514 506.1073364 -32.28830348 504.61432808 -32.2713623 501.93762207 C-32.26813965 501.04172363 -32.26491699 500.1458252 -32.26159668 499.22277832 C-32.25321777 498.28562988 -32.24483887 497.34848145 -32.23620605 496.38293457 C-32.23169434 495.43805176 -32.22718262 494.49316895 -32.22253418 493.51965332 C-32.21072962 491.1823507 -32.19426364 488.84517396 -32.17370605 486.50793457 C-33.11601074 486.54531738 -34.05831543 486.5827002 -35.0291748 486.62121582 C-38.17370605 486.50793457 -38.17370605 486.50793457 -40.48620605 484.69543457 C-43.24718573 481.11638684 -43.29935367 478.20264672 -43.30234051 473.82444096 C-43.30556495 472.63309671 -43.3087894 471.44175247 -43.31211156 470.21430689 C-43.31056295 468.89896053 -43.30901435 467.58361416 -43.30741882 466.22840881 C-43.3092861 464.82211287 -43.31158647 463.41581745 -43.31428415 462.00952286 C-43.32041875 458.13608078 -43.32026661 454.26266023 -43.31908977 450.3892144 C-43.31888618 446.21532409 -43.32440047 442.04144078 -43.32914734 437.86755371 C-43.33746336 429.6870477 -43.3402026 421.5065489 -43.34075972 413.32603902 C-43.34123439 406.6790225 -43.34328671 400.03200837 -43.34646034 393.3849926 C-43.35526923 374.5528813 -43.35987931 355.72077572 -43.35912987 336.88866235 C-43.35906993 335.36493476 -43.35906993 335.36493476 -43.35900879 333.8104248 C-43.35894747 332.28484397 -43.35894747 332.28484397 -43.35888491 330.72844332 C-43.35847829 314.23845077 -43.36805119 297.74848104 -43.38214716 281.2584951 C-43.39649584 264.33983352 -43.40341818 247.42118308 -43.40255338 230.50251526 C-43.4022209 220.99865661 -43.40499007 211.49482188 -43.41573143 201.9909687 C-43.42481659 193.90046907 -43.42702806 185.8100042 -43.42022201 177.71950168 C-43.41694683 173.5894425 -43.41693591 169.45945011 -43.42557526 165.3293972 C-43.43339727 161.55131974 -43.43205322 157.7733625 -43.42329112 153.99528813 C-43.42101284 151.97529043 -43.42861836 149.95528914 -43.43653077 147.93530566 C-43.43193197 146.74135367 -43.42733318 145.54740168 -43.42259502 144.31726933 C-43.42281239 143.28453736 -43.42302976 142.2518054 -43.42325372 141.18777853 C-43.15653985 138.32359004 -42.93308044 136.78818289 -41.17370605 134.50793457 C-38.20370605 133.51793457 -38.20370605 133.51793457 -35.17370605 132.50793457 C-35.17370605 126.23793457 -35.17370605 119.96793457 -35.17370605 113.50793457 C-36.82370605 113.17793457 -38.47370605 112.84793457 -40.17370605 112.50793457 C-43.17385529 108.86272084 -43.55479346 105.88530103 -43.57775879 101.25231934 C-43.59044296 100.01075577 -43.60312714 98.7691922 -43.61619568 97.49000549 C-43.61414401 96.14311557 -43.6111558 94.79622679 -43.6072998 93.44934082 C-43.61186463 92.05838263 -43.6171711 90.66742669 -43.6231842 89.276474 C-43.63210382 86.36549704 -43.62970573 83.45479458 -43.61975098 80.54382324 C-43.60826501 76.82359134 -43.62847142 73.10430918 -43.65766811 69.384202 C-43.67606408 66.51273129 -43.67573097 63.64148674 -43.67003059 60.76997185 C-43.66987778 59.3989116 -43.67588927 58.02783563 -43.68832207 56.65683174 C-43.78204335 44.62760147 -43.78204335 44.62760147 -41.3302002 40.68347168 C-38.52116558 37.84963182 -36.85451247 37.53151206 -32.89562988 37.39440918 C-31.55732191 37.39456702 -30.21900724 37.40018712 -28.8807373 37.41027832 C-27.82169441 37.41240074 -27.82169441 37.41240074 -26.74125671 37.41456604 C-24.4895298 37.42015693 -22.23790285 37.43270769 -19.98620605 37.44543457 C-18.4582127 37.45045075 -16.93021779 37.45501345 -15.40222168 37.45910645 C-11.65931377 37.46927187 -7.91662163 37.48884888 -4.17370605 37.50793457 C-4.17370605 30.24793457 -4.17370605 22.98793457 -4.17370605 15.50793457 C-6.64870605 15.01293457 -6.64870605 15.01293457 -9.17370605 14.50793457 C-11.65409512 10.78735097 -11.63707809 8.90996886 -11.17370605 4.50793457 C-7.9960576 0.08788035 -5.26055899 0.00611972 0 0 Z " fill="#C5C0C7" transform="translate(74.1737060546875,-0.5079345703125)"/>
<path d="M0 0 C1.08507631 -0.00935994 1.08507631 -0.00935994 2.19207335 -0.01890898 C4.61670212 -0.03486756 7.04032954 -0.0222243 9.46496582 -0.00964355 C11.20289192 -0.01506343 12.94081342 -0.02218533 14.6787262 -0.03088379 C19.39979607 -0.04913617 24.12051672 -0.04204174 28.84159279 -0.02936745 C33.77917049 -0.01924969 38.71671802 -0.02862972 43.65429688 -0.03491211 C51.9465472 -0.04219208 60.23865508 -0.03259162 68.53088379 -0.0135498 C78.1217444 0.0082196 87.71226491 0.00116848 97.30311728 -0.02085543 C105.53337058 -0.03899945 113.76352141 -0.04157264 121.99378824 -0.03110075 C126.91123436 -0.02486033 131.82852054 -0.02404526 136.74595642 -0.0372467 C141.36879355 -0.04879007 145.99119162 -0.04080729 150.61398125 -0.01766968 C152.31193245 -0.01237447 154.00992053 -0.01391023 155.70785713 -0.02272034 C158.02326847 -0.03362792 160.33726696 -0.01997212 162.65258789 0 C164.59715252 0.00226215 164.59715252 0.00226215 166.58100128 0.00457001 C169.82629395 0.50793457 169.82629395 0.50793457 172.24340057 2.32093048 C174.5568167 5.51726109 174.37552353 7.6633275 173.82629395 11.50793457 C172.01379395 13.94543457 172.01379395 13.94543457 169.82629395 15.50793457 C168.83629395 15.50793457 167.84629395 15.50793457 166.82629395 15.50793457 C166.82629395 22.76793457 166.82629395 30.02793457 166.82629395 37.50793457 C176.72629395 37.50793457 186.62629395 37.50793457 196.82629395 37.50793457 C196.82629395 30.24793457 196.82629395 22.98793457 196.82629395 15.50793457 C195.17629395 15.17793457 193.52629395 14.84793457 191.82629395 14.50793457 C189.34590488 10.78735097 189.36292191 8.90996886 189.82629395 4.50793457 C191.40137482 2.31702423 191.40137482 2.31702423 193.82629395 0.50793457 C197.07158661 0.00457001 197.07158661 0.00457001 201 0 C201.7233842 -0.00623996 202.44676841 -0.01247993 203.19207335 -0.01890898 C205.61670212 -0.03486756 208.04032954 -0.0222243 210.46496582 -0.00964355 C212.20289192 -0.01506343 213.94081342 -0.02218533 215.6787262 -0.03088379 C220.39979607 -0.04913617 225.12051672 -0.04204174 229.84159279 -0.02936745 C234.77917049 -0.01924969 239.71671802 -0.02862972 244.65429688 -0.03491211 C252.9465472 -0.04219208 261.23865508 -0.03259162 269.53088379 -0.0135498 C279.1217444 0.0082196 288.71226491 0.00116848 298.30311728 -0.02085543 C306.53337058 -0.03899945 314.76352141 -0.04157264 322.99378824 -0.03110075 C327.91123436 -0.02486033 332.82852054 -0.02404526 337.74595642 -0.0372467 C342.36879355 -0.04879007 346.99119162 -0.04080729 351.61398125 -0.01766968 C353.31193245 -0.01237447 355.00992053 -0.01391023 356.70785713 -0.02272034 C359.02326847 -0.03362792 361.33726696 -0.01997212 363.65258789 0 C365.59715252 0.00226215 365.59715252 0.00226215 367.58100128 0.00457001 C370.82629395 0.50793457 370.82629395 0.50793457 373.24340057 2.32093048 C375.5568167 5.51726109 375.37552353 7.6633275 374.82629395 11.50793457 C373.01379395 13.94543457 373.01379395 13.94543457 370.82629395 15.50793457 C369.83629395 15.50793457 368.84629395 15.50793457 367.82629395 15.50793457 C367.82629395 22.76793457 367.82629395 30.02793457 367.82629395 37.50793457 C370.07828613 37.47312988 372.33027832 37.4383252 374.6505127 37.40246582 C376.84149916 37.37904216 379.03247146 37.36084168 381.22351074 37.34313965 C382.74147833 37.32809104 384.25940271 37.30764719 385.77722168 37.28161621 C387.96426072 37.24505804 390.15072291 37.22816934 392.3380127 37.21496582 C393.65245361 37.19925537 394.96689453 37.18354492 396.32116699 37.1673584 C400.07751898 37.53234489 401.90173633 38.16001299 404.82629395 40.50793457 C407.27468232 44.12665305 407.07795203 47.4980892 407.08076954 51.77971554 C407.08397602 52.51727549 407.08718249 53.25483543 407.09048614 54.01474568 C407.09882372 56.49977169 407.09284879 58.98455904 407.08699036 61.46958923 C407.09000933 63.26376777 407.09389752 65.05794502 407.09858292 66.85211998 C407.10890444 71.79313617 407.10667057 76.73408013 407.10240233 81.67510235 C407.09994263 86.99965718 407.10893982 92.32419427 407.11643982 97.64874268 C407.12920979 108.08406574 407.13097766 118.5193631 407.12863956 128.95469265 C407.12685886 137.43377266 407.1286007 145.91284484 407.132864 154.3919239 C407.13345919 155.59722047 407.13405438 156.80251703 407.1346676 158.04433774 C407.13587931 160.49263795 407.13709344 162.94093816 407.13830998 165.38923836 C407.1491943 188.36564019 407.14701876 211.34202736 407.14092513 234.31843001 C407.13575477 255.35366019 407.147013 276.38884408 407.16602335 297.42406511 C407.18537906 319.00632711 407.19366177 340.58856719 407.1899001 362.17083794 C407.18798466 374.29434708 407.19050894 386.41781681 407.20461464 398.54131889 C407.21650053 408.86168009 407.21796477 419.18197762 407.20582447 429.50233965 C407.19991621 434.77074651 407.19888991 440.03903675 407.21082687 445.30743599 C407.22161965 450.12673114 407.21866163 454.94581138 407.20456519 459.7650962 C407.20189995 461.51202565 407.20434157 463.25897159 407.21230105 465.00588494 C407.22234639 467.37428972 407.21403778 469.74193861 407.20102406 472.11031246 C407.20107907 473.42767232 407.20113409 474.74503218 407.20119077 476.10231203 C406.69185144 480.72923173 405.07012747 483.26410104 401.82629395 486.50793457 C398.70129395 486.63293457 398.70129395 486.63293457 395.82629395 486.50793457 C395.83676758 487.09284668 395.84724121 487.67775879 395.85803223 488.28039551 C395.89969659 490.93953121 395.92565296 493.5985981 395.95129395 496.25793457 C395.96805176 497.1783252 395.98480957 498.09871582 396.0020752 499.04699707 C396.00852051 499.9364502 396.01496582 500.82590332 396.02160645 501.74230957 C396.03208008 502.55925293 396.04255371 503.37619629 396.05334473 504.21789551 C395.7977459 506.79587076 395.22467399 508.33396776 393.82629395 510.50793457 C390.1391881 512.96600514 388.3415048 512.76030746 383.94026279 512.76520348 C383.23225945 512.76870955 382.5242561 512.77221563 381.79479811 512.77582794 C379.4043053 512.78518816 377.01405366 512.78020684 374.62355042 512.77536011 C372.89964344 512.77909404 371.17573815 512.78369452 369.45183557 512.78909075 C364.70045894 512.80136784 359.94915246 512.80105477 355.19776356 512.798702 C350.07907143 512.79829502 344.96040215 512.80932151 339.84172058 512.81881714 C329.80832503 512.83545349 319.77495298 512.84092786 309.74154479 512.84204189 C301.58947226 512.84299105 293.43740752 512.84709467 285.28533745 512.85344315 C262.19223373 512.87106211 239.09914863 512.8802809 216.00603814 512.8787822 C214.76022109 512.87870229 213.51440404 512.87862237 212.23083496 512.87854004 C210.98350373 512.87845828 209.7361725 512.87837652 208.45104336 512.87829228 C188.22660961 512.87747901 168.00225028 512.89662526 147.77783806 512.92481677 C127.03069077 512.95350967 106.28357982 512.96735908 85.53641218 512.96562922 C73.88071422 512.96496411 62.22509428 512.97050921 50.56941414 512.99198532 C40.64717047 513.01014981 30.72504019 513.01458349 20.80278713 513.00096647 C15.73699978 512.99441305 10.67143025 512.99440481 5.6056633 513.01167297 C0.9725974 513.02730424 -3.66007615 513.02464281 -8.2931319 513.00710471 C-9.97345391 513.00401274 -11.65380449 513.00774898 -13.33409285 513.01882486 C-15.61048828 513.03284191 -17.88548751 513.02244386 -20.16183376 513.00571251 C-21.42847345 513.00614725 -22.69511313 513.00658198 -24.00013584 513.00702989 C-27.74428199 512.41820226 -28.88369875 511.46006464 -31.17370605 508.50793457 C-32.37400514 506.1073364 -32.28830348 504.61432808 -32.2713623 501.93762207 C-32.26813965 501.04172363 -32.26491699 500.1458252 -32.26159668 499.22277832 C-32.25321777 498.28562988 -32.24483887 497.34848145 -32.23620605 496.38293457 C-32.23169434 495.43805176 -32.22718262 494.49316895 -32.22253418 493.51965332 C-32.21072962 491.1823507 -32.19426364 488.84517396 -32.17370605 486.50793457 C-33.11601074 486.54531738 -34.05831543 486.5827002 -35.0291748 486.62121582 C-38.17370605 486.50793457 -38.17370605 486.50793457 -40.48620605 484.69543457 C-43.24718573 481.11638684 -43.29935367 478.20264672 -43.30234051 473.82444096 C-43.30556495 472.63309671 -43.3087894 471.44175247 -43.31211156 470.21430689 C-43.31056295 468.89896053 -43.30901435 467.58361416 -43.30741882 466.22840881 C-43.3092861 464.82211287 -43.31158647 463.41581745 -43.31428415 462.00952286 C-43.32041875 458.13608078 -43.32026661 454.26266023 -43.31908977 450.3892144 C-43.31888618 446.21532409 -43.32440047 442.04144078 -43.32914734 437.86755371 C-43.33746336 429.6870477 -43.3402026 421.5065489 -43.34075972 413.32603902 C-43.34123439 406.6790225 -43.34328671 400.03200837 -43.34646034 393.3849926 C-43.35526923 374.5528813 -43.35987931 355.72077572 -43.35912987 336.88866235 C-43.35906993 335.36493476 -43.35906993 335.36493476 -43.35900879 333.8104248 C-43.35894747 332.28484397 -43.35894747 332.28484397 -43.35888491 330.72844332 C-43.35847829 314.23845077 -43.36805119 297.74848104 -43.38214716 281.2584951 C-43.39649584 264.33983352 -43.40341818 247.42118308 -43.40255338 230.50251526 C-43.4022209 220.99865661 -43.40499007 211.49482188 -43.41573143 201.9909687 C-43.42481659 193.90046907 -43.42702806 185.8100042 -43.42022201 177.71950168 C-43.41694683 173.5894425 -43.41693591 169.45945011 -43.42557526 165.3293972 C-43.43339727 161.55131974 -43.43205322 157.7733625 -43.42329112 153.99528813 C-43.42101284 151.97529043 -43.42861836 149.95528914 -43.43653077 147.93530566 C-43.43193197 146.74135367 -43.42733318 145.54740168 -43.42259502 144.31726933 C-43.42281239 143.28453736 -43.42302976 142.2518054 -43.42325372 141.18777853 C-43.16551086 138.41992795 -42.71396268 136.80803777 -41.17370605 134.50793457 C-38.42370605 133.07043457 -38.42370605 133.07043457 -35.17370605 132.50793457 C-31.16431004 133.97290619 -29.5576807 134.9319726 -27.17370605 138.50793457 C-26.92530906 141.01573581 -26.92530906 141.01573581 -26.9276104 144.07766247 C-26.9236283 145.24360634 -26.9196462 146.40955021 -26.91554344 147.61082572 C-26.92428196 149.5412466 -26.92428196 149.5412466 -26.93319702 151.51066589 C-26.93232532 152.88681439 -26.93057498 154.26296256 -26.92801869 155.63910896 C-26.92353424 159.42909724 -26.93156384 163.21897307 -26.94157481 167.00894701 C-26.95019126 171.09277705 -26.94729043 175.17660045 -26.94577026 179.26043701 C-26.94472027 186.33876238 -26.95100884 193.41705094 -26.96224594 200.49536705 C-26.97848245 210.7294881 -26.98370705 220.96359131 -26.98622192 231.19772384 C-26.99060194 247.80089337 -27.00391933 264.40404328 -27.02282715 281.00720215 C-27.04117803 297.13806052 -27.05533841 313.26891357 -27.06384277 329.39978027 C-27.06436822 330.39366163 -27.06489367 331.38754299 -27.06543504 332.41154196 C-27.06804506 337.39742575 -27.07057249 342.38330958 -27.07305884 347.36919343 C-27.09380087 388.74878747 -27.12903472 430.1283599 -27.17370605 471.50793457 C-25.95787842 471.4869873 -24.74205078 471.46604004 -23.48937988 471.44445801 C-18.97013162 471.37195141 -14.45093459 471.32609601 -9.93127441 471.28820801 C-7.97675932 471.26811683 -6.02230416 471.24083868 -4.06799316 471.20617676 C-1.25542397 471.15754856 1.55634921 471.13494097 4.3692627 471.11730957 C5.24028122 471.09666443 6.11129974 471.07601929 7.00871277 471.05474854 C11.09396461 471.05324422 13.29266671 471.19222326 16.8782959 473.31359863 C18.82629395 475.50793457 18.82629395 475.50793457 19.45129395 479.00793457 C18.82629395 482.50793457 18.82629395 482.50793457 16.74157715 484.70227051 C13.08119692 486.96943173 10.84071234 486.96907726 6.5567627 486.89855957 C5.87576004 486.89289978 5.19475739 486.88723999 4.49311829 486.88140869 C2.3326075 486.85913938 0.17379748 486.80896775 -1.98620605 486.75793457 C-3.45688511 486.73785704 -4.92759034 486.71960846 -6.39831543 486.70324707 C-9.99065856 486.65930783 -13.58201612 486.59034913 -17.17370605 486.50793457 C-17.17370605 490.13793457 -17.17370605 493.76793457 -17.17370605 497.50793457 C114.16629395 497.50793457 245.50629395 497.50793457 380.82629395 497.50793457 C380.82629395 493.87793457 380.82629395 490.24793457 380.82629395 486.50793457 C379.09409513 486.51254354 377.36189631 486.5171525 375.57720661 486.52190113 C334.48023524 486.63013484 293.38328001 486.71260928 252.28619551 486.76326122 C247.23046961 486.76951493 242.17474401 486.77598652 237.11901855 486.78259277 C236.11249293 486.78390433 235.1059673 486.78521588 234.0689409 486.78656717 C217.76045904 486.80833781 201.45206509 486.84776846 185.14363543 486.89369855 C168.41604321 486.94041707 151.6884971 486.96822021 134.96084231 486.97837704 C124.6346908 486.98524577 114.30878776 487.00695825 103.98271271 487.0475169 C96.90664112 487.07389844 89.83069842 487.081946 82.75458119 487.07544146 C78.6688286 487.07223138 74.58351089 487.07723355 70.49783516 487.10396194 C66.75887068 487.1282441 63.02063463 487.12955574 59.28163704 487.11242905 C57.28506061 487.10930672 55.28849311 487.13091721 53.29204017 487.15334111 C43.63288337 487.0721159 43.63288337 487.0721159 40.49300671 484.19691753 C38.82629395 481.50793457 38.82629395 481.50793457 38.76379395 477.88293457 C39.94930765 474.11718515 40.49000426 473.40873781 43.82629395 471.50793457 C46.54806209 471.13533908 46.54806209 471.13533908 49.73771286 471.13879108 C51.56333881 471.12983216 51.56333881 471.12983216 53.4258461 471.12069225 C54.77749045 471.12924842 56.12913304 471.13808458 57.48077393 471.14717102 C58.91206535 471.14585885 60.34335607 471.14322829 61.77464294 471.13938904 C65.72040526 471.132647 69.66592425 471.144718 73.61165565 471.15971638 C77.92716473 471.17279166 82.24266212 471.16843418 86.55818558 471.16626263 C94.94007028 471.16466586 103.32185877 471.17853517 111.70371874 471.19776661 C121.39644218 471.21934128 131.08910759 471.22174946 140.78186035 471.22412109 C166.38002016 471.23988106 191.97815849 471.28176428 217.57629395 471.32043457 C303.33504395 471.41324707 303.33504395 471.41324707 390.82629395 471.50793457 C390.82629395 333.23793457 390.82629395 194.96793457 390.82629395 52.50793457 C252.88629395 52.50793457 114.94629395 52.50793457 -27.17370605 52.50793457 C-27.17370605 70.65793457 -27.17370605 88.80793457 -27.17370605 107.50793457 C-29.17370605 111.50793457 -29.17370605 111.50793457 -30.86120605 112.82043457 C-34.31943847 113.84855772 -36.71659842 113.45078211 -40.17370605 112.50793457 C-43.08033412 108.77894881 -43.55466004 105.91221721 -43.57775879 101.25231934 C-43.59044296 100.01075577 -43.60312714 98.7691922 -43.61619568 97.49000549 C-43.61414401 96.14311557 -43.6111558 94.79622679 -43.6072998 93.44934082 C-43.61186463 92.05838263 -43.6171711 90.66742669 -43.6231842 89.276474 C-43.63210382 86.36549704 -43.62970573 83.45479458 -43.61975098 80.54382324 C-43.60826501 76.82359134 -43.62847142 73.10430918 -43.65766811 69.384202 C-43.67606408 66.51273129 -43.67573097 63.64148674 -43.67003059 60.76997185 C-43.66987778 59.3989116 -43.67588927 58.02783563 -43.68832207 56.65683174 C-43.78204335 44.62760147 -43.78204335 44.62760147 -41.3302002 40.68347168 C-38.52116558 37.84963182 -36.85451247 37.53151206 -32.89562988 37.39440918 C-31.55732191 37.39456702 -30.21900724 37.40018712 -28.8807373 37.41027832 C-27.82169441 37.41240074 -27.82169441 37.41240074 -26.74125671 37.41456604 C-24.4895298 37.42015693 -22.23790285 37.43270769 -19.98620605 37.44543457 C-18.4582127 37.45045075 -16.93021779 37.45501345 -15.40222168 37.45910645 C-11.65931377 37.46927187 -7.91662163 37.48884888 -4.17370605 37.50793457 C-4.17370605 30.24793457 -4.17370605 22.98793457 -4.17370605 15.50793457 C-6.64870605 15.01293457 -6.64870605 15.01293457 -9.17370605 14.50793457 C-11.65409512 10.78735097 -11.63707809 8.90996886 -11.17370605 4.50793457 C-7.9960576 0.08788035 -5.26055899 0.00611972 0 0 Z " fill="#000000" transform="translate(74.1737060546875,-0.5079345703125)"/>
<path d="M0 0 C1.05082804 -0.00445668 1.05082804 -0.00445668 2.12288493 -0.0090034 C4.4819749 -0.01770934 6.84101424 -0.01920024 9.20011902 -0.02069092 C10.88686227 -0.02531777 12.57360448 -0.03034225 14.26034546 -0.03573608 C18.85132502 -0.04887532 23.44228995 -0.05530806 28.03328538 -0.05974674 C30.90009843 -0.06267515 33.76690746 -0.06677953 36.63371849 -0.07125092 C45.59904074 -0.08493016 54.56435383 -0.0945946 63.5296858 -0.09845281 C73.88665608 -0.10293407 84.24349443 -0.12048336 94.60042459 -0.1494534 C102.60047961 -0.17105574 110.60049747 -0.18115632 118.60058135 -0.18249393 C123.38115008 -0.18354304 128.16159486 -0.18947335 132.94213295 -0.20731354 C137.43927185 -0.2237691 141.93619328 -0.225962 146.43335152 -0.21717453 C148.08413016 -0.21640279 149.73492038 -0.22076488 151.38566971 -0.23063278 C153.63929051 -0.24331457 155.89213675 -0.23749658 158.14575195 -0.22705078 C159.4069325 -0.22851734 160.66811304 -0.2299839 161.96751118 -0.2314949 C165.56181844 0.17412401 167.40682636 0.95950182 170.26335144 3.14044189 C172.7178612 6.82220653 172.51469042 8.61075539 172.51731873 13.0040741 C172.5219987 14.05724212 172.5219987 14.05724212 172.52677321 15.13168627 C172.534766 17.49007697 172.52842465 19.84821128 172.5221405 22.206604 C172.52484982 23.89511771 172.52841042 25.58363023 172.53276062 27.2721405 C172.5418946 31.86302347 172.53833603 36.45381676 172.53200245 41.04470134 C172.52694685 45.84481092 172.53163275 50.64491271 172.53477478 55.44502258 C172.53841606 63.50781638 172.53361145 71.57057357 172.52409363 79.63336182 C172.51321246 88.95884192 172.51673155 98.28423456 172.52774644 107.60971254 C172.5368191 115.61062619 172.53810458 123.6115135 172.5328691 131.61243063 C172.52974881 136.39347458 172.5293416 141.17447741 172.53594208 145.95551872 C172.54171447 150.45100185 172.53772058 154.94637211 172.52615356 159.44184303 C172.52350625 161.09303474 172.52427329 162.74423593 172.52867889 164.39542389 C172.53413309 166.64702004 172.52730188 168.89825311 172.51731873 171.14982605 C172.51618765 173.04103133 172.51618765 173.04103133 172.51503372 174.97044277 C172.26943439 178.06382567 172.09348685 179.66956149 170.26335144 182.14044189 C166.30315741 185.27081013 163.17088496 185.51689807 158.2039032 185.52139282 C157.50487145 185.52607279 156.8058397 185.53075277 156.08562517 185.53557456 C153.74949046 185.54751531 151.41394336 185.53807129 149.07780457 185.52862549 C147.40046853 185.53269161 145.72313517 185.53803372 144.04580688 185.54455566 C139.49419269 185.55823026 134.94278253 185.55293003 130.39116478 185.54341841 C125.62756679 185.53582257 120.86398625 185.54286721 116.10038757 185.5475769 C108.10080326 185.55303467 100.10130204 185.54584228 92.10173035 185.53155518 C82.85344359 185.51522862 73.60535525 185.52051712 64.35707331 185.53703439 C56.41639079 185.55064864 48.47576799 185.55256922 40.53507757 185.54471838 C35.79257804 185.54004154 31.05017176 185.53941735 26.30767822 185.54932785 C21.8490476 185.55799434 17.39067277 185.55198144 12.93206978 185.53464508 C11.29581184 185.53067854 9.65953237 185.53181716 8.023283 185.53843307 C5.78949802 185.54663225 3.55653247 185.53634752 1.32279968 185.52139282 C0.07288994 185.52026175 -1.17701981 185.51913067 -2.4648056 185.51796532 C-6.06255518 185.10283698 -7.90782694 184.37650742 -10.73664856 182.14044189 C-13.25774474 178.73284382 -12.99306282 175.29685818 -13.0040741 171.1632843 C-13.00860521 170.46102343 -13.01313632 169.75876255 -13.01780474 169.03522104 C-13.03046412 166.6822883 -13.02882741 164.32958656 -13.0271759 161.97662354 C-13.03316014 160.28958335 -13.03996544 158.60254591 -13.04753113 156.91551208 C-13.0652075 152.33290012 -13.06988715 147.75036284 -13.0711627 143.16772008 C-13.07306142 139.34306245 -13.08041851 135.51842223 -13.08750689 131.6937713 C-13.10379412 122.67150995 -13.10867548 113.64928852 -13.10725403 104.62701416 C-13.106052 95.31680322 -13.12716534 86.00682387 -13.15874135 76.69667155 C-13.18488062 68.70506036 -13.19562234 60.71352493 -13.19434321 52.72187132 C-13.19383295 47.94800803 -13.19955156 43.1743506 -13.22069931 38.40052986 C-13.24004257 33.91150859 -13.24023313 29.42289042 -13.22566605 24.93385506 C-13.22357208 23.28629977 -13.22831379 21.63871951 -13.24038696 19.99120712 C-13.25580307 17.74185686 -13.24655719 15.49390289 -13.23112488 13.24458313 C-13.23221441 11.98600022 -13.23330395 10.72741732 -13.2344265 9.43069553 C-12.64715485 5.54889898 -11.46913484 3.9047613 -8.73664856 1.14044189 C-5.81920679 -0.31827899 -3.25959796 0.0076951 0 0 Z " fill="#5FA7B4" transform="translate(75.73664855957031,269.85955810546875)"/>
<path d="M0 0 C1.05082804 -0.00445668 1.05082804 -0.00445668 2.12288493 -0.0090034 C4.4819749 -0.01770934 6.84101424 -0.01920024 9.20011902 -0.02069092 C10.88686227 -0.02531777 12.57360448 -0.03034225 14.26034546 -0.03573608 C18.85132502 -0.04887532 23.44228995 -0.05530806 28.03328538 -0.05974674 C30.90009843 -0.06267515 33.76690746 -0.06677953 36.63371849 -0.07125092 C45.59904074 -0.08493016 54.56435383 -0.0945946 63.5296858 -0.09845281 C73.88665608 -0.10293407 84.24349443 -0.12048336 94.60042459 -0.1494534 C102.60047961 -0.17105574 110.60049747 -0.18115632 118.60058135 -0.18249393 C123.38115008 -0.18354304 128.16159486 -0.18947335 132.94213295 -0.20731354 C137.43927185 -0.2237691 141.93619328 -0.225962 146.43335152 -0.21717453 C148.08413016 -0.21640279 149.73492038 -0.22076488 151.38566971 -0.23063278 C153.63929051 -0.24331457 155.89213675 -0.23749658 158.14575195 -0.22705078 C159.4069325 -0.22851734 160.66811304 -0.2299839 161.96751118 -0.2314949 C165.56181844 0.17412401 167.40682636 0.95950182 170.26335144 3.14044189 C172.7178612 6.82220653 172.51469042 8.61075539 172.51731873 13.0040741 C172.5219987 14.05724212 172.5219987 14.05724212 172.52677321 15.13168627 C172.534766 17.49007697 172.52842465 19.84821128 172.5221405 22.206604 C172.52484982 23.89511771 172.52841042 25.58363023 172.53276062 27.2721405 C172.5418946 31.86302347 172.53833603 36.45381676 172.53200245 41.04470134 C172.52694685 45.84481092 172.53163275 50.64491271 172.53477478 55.44502258 C172.53841606 63.50781638 172.53361145 71.57057357 172.52409363 79.63336182 C172.51321246 88.95884192 172.51673155 98.28423456 172.52774644 107.60971254 C172.5368191 115.61062619 172.53810458 123.6115135 172.5328691 131.61243063 C172.52974881 136.39347458 172.5293416 141.17447741 172.53594208 145.95551872 C172.54171447 150.45100185 172.53772058 154.94637211 172.52615356 159.44184303 C172.52350625 161.09303474 172.52427329 162.74423593 172.52867889 164.39542389 C172.53413309 166.64702004 172.52730188 168.89825311 172.51731873 171.14982605 C172.51618765 173.04103133 172.51618765 173.04103133 172.51503372 174.97044277 C172.26943439 178.06382567 172.09348685 179.66956149 170.26335144 182.14044189 C166.30315741 185.27081013 163.17088496 185.51689807 158.2039032 185.52139282 C157.50487145 185.52607279 156.8058397 185.53075277 156.08562517 185.53557456 C153.74949046 185.54751531 151.41394336 185.53807129 149.07780457 185.52862549 C147.40046853 185.53269161 145.72313517 185.53803372 144.04580688 185.54455566 C139.49419269 185.55823026 134.94278253 185.55293003 130.39116478 185.54341841 C125.62756679 185.53582257 120.86398625 185.54286721 116.10038757 185.5475769 C108.10080326 185.55303467 100.10130204 185.54584228 92.10173035 185.53155518 C82.85344359 185.51522862 73.60535525 185.52051712 64.35707331 185.53703439 C56.41639079 185.55064864 48.47576799 185.55256922 40.53507757 185.54471838 C35.79257804 185.54004154 31.05017176 185.53941735 26.30767822 185.54932785 C21.8490476 185.55799434 17.39067277 185.55198144 12.93206978 185.53464508 C11.29581184 185.53067854 9.65953237 185.53181716 8.023283 185.53843307 C5.78949802 185.54663225 3.55653247 185.53634752 1.32279968 185.52139282 C0.07288994 185.52026175 -1.17701981 185.51913067 -2.4648056 185.51796532 C-6.06255518 185.10283698 -7.90782694 184.37650742 -10.73664856 182.14044189 C-13.25774474 178.73284382 -12.99306282 175.29685818 -13.0040741 171.1632843 C-13.00860521 170.46102343 -13.01313632 169.75876255 -13.01780474 169.03522104 C-13.03046412 166.6822883 -13.02882741 164.32958656 -13.0271759 161.97662354 C-13.03316014 160.28958335 -13.03996544 158.60254591 -13.04753113 156.91551208 C-13.0652075 152.33290012 -13.06988715 147.75036284 -13.0711627 143.16772008 C-13.07306142 139.34306245 -13.08041851 135.51842223 -13.08750689 131.6937713 C-13.10379412 122.67150995 -13.10867548 113.64928852 -13.10725403 104.62701416 C-13.106052 95.31680322 -13.12716534 86.00682387 -13.15874135 76.69667155 C-13.18488062 68.70506036 -13.19562234 60.71352493 -13.19434321 52.72187132 C-13.19383295 47.94800803 -13.19955156 43.1743506 -13.22069931 38.40052986 C-13.24004257 33.91150859 -13.24023313 29.42289042 -13.22566605 24.93385506 C-13.22357208 23.28629977 -13.22831379 21.63871951 -13.24038696 19.99120712 C-13.25580307 17.74185686 -13.24655719 15.49390289 -13.23112488 13.24458313 C-13.23221441 11.98600022 -13.23330395 10.72741732 -13.2344265 9.43069553 C-12.64715485 5.54889898 -11.46913484 3.9047613 -8.73664856 1.14044189 C-5.81920679 -0.31827899 -3.25959796 0.0076951 0 0 Z " fill="#010101" transform="translate(75.73664855957031,68.85955810546875)"/>
<path d="M0 0 C1.05082804 -0.00445668 1.05082804 -0.00445668 2.12288493 -0.0090034 C4.4819749 -0.01770934 6.84101424 -0.01920024 9.20011902 -0.02069092 C10.88686227 -0.02531777 12.57360448 -0.03034225 14.26034546 -0.03573608 C18.85132502 -0.04887532 23.44228995 -0.05530806 28.03328538 -0.05974674 C30.90009843 -0.06267515 33.76690746 -0.06677953 36.63371849 -0.07125092 C45.59904074 -0.08493016 54.56435383 -0.0945946 63.5296858 -0.09845281 C73.88665608 -0.10293407 84.24349443 -0.12048336 94.60042459 -0.1494534 C102.60047961 -0.17105574 110.60049747 -0.18115632 118.60058135 -0.18249393 C123.38115008 -0.18354304 128.16159486 -0.18947335 132.94213295 -0.20731354 C137.43927185 -0.2237691 141.93619328 -0.225962 146.43335152 -0.21717453 C148.08413016 -0.21640279 149.73492038 -0.22076488 151.38566971 -0.23063278 C153.63929051 -0.24331457 155.89213675 -0.23749658 158.14575195 -0.22705078 C159.4069325 -0.22851734 160.66811304 -0.2299839 161.96751118 -0.2314949 C165.56181844 0.17412401 167.40682636 0.95950182 170.26335144 3.14044189 C172.7178612 6.82220653 172.51469042 8.61075539 172.51731873 13.0040741 C172.5219987 14.05724212 172.5219987 14.05724212 172.52677321 15.13168627 C172.534766 17.49007697 172.52842465 19.84821128 172.5221405 22.206604 C172.52484982 23.89511771 172.52841042 25.58363023 172.53276062 27.2721405 C172.5418946 31.86302347 172.53833603 36.45381676 172.53200245 41.04470134 C172.52694685 45.84481092 172.53163275 50.64491271 172.53477478 55.44502258 C172.53841606 63.50781638 172.53361145 71.57057357 172.52409363 79.63336182 C172.51321246 88.95884192 172.51673155 98.28423456 172.52774644 107.60971254 C172.5368191 115.61062619 172.53810458 123.6115135 172.5328691 131.61243063 C172.52974881 136.39347458 172.5293416 141.17447741 172.53594208 145.95551872 C172.54171447 150.45100185 172.53772058 154.94637211 172.52615356 159.44184303 C172.52350625 161.09303474 172.52427329 162.74423593 172.52867889 164.39542389 C172.53413309 166.64702004 172.52730188 168.89825311 172.51731873 171.14982605 C172.51618765 173.04103133 172.51618765 173.04103133 172.51503372 174.97044277 C172.27376826 178.0092395 171.98397722 179.66135508 170.26335144 182.14044189 C166.56016607 184.60923214 164.7088828 184.39630866 160.28582764 184.40786743 C159.21428363 184.4146641 159.21428363 184.4146641 158.12109226 184.42159808 C155.72126246 184.43428428 153.32165838 184.43261902 150.92179871 184.43096924 C149.20372728 184.43695182 147.48565856 184.44375673 145.76759338 184.45132446 C141.09614951 184.46901811 136.42477886 184.47368122 131.75330472 184.47495604 C127.85652862 184.47685322 123.95976966 184.48420858 120.06300014 184.49130023 C110.8715557 184.50759417 101.68015046 184.51246822 92.48869324 184.51104736 C82.99955336 184.50984529 73.5106407 184.53095781 64.02155834 184.56253469 C55.88051517 184.58866271 47.73954637 184.59941614 39.59846157 184.59813654 C34.73351398 184.59762593 29.8687683 184.60336369 25.00386238 184.62449265 C20.42949913 184.64381691 15.85553161 184.64403956 11.28115463 184.62945938 C9.60092912 184.62736301 7.92067922 184.63212126 6.24049568 184.6441803 C3.94914765 184.65956255 1.65917617 184.65037293 -0.63214111 184.63491821 C-2.55653094 184.63655252 -2.55653094 184.63655252 -4.51979733 184.63821983 C-8.29551563 184.05396239 -9.43393594 183.11986359 -11.73664856 180.14044189 C-13.1950129 177.22371321 -12.87276708 174.6626582 -12.88381958 171.40379333 C-12.88749627 170.70324131 -12.89117296 170.00268928 -12.89496106 169.28090841 C-12.90601776 166.92182306 -12.90984508 164.56278172 -12.91365051 162.20367432 C-12.91991363 160.51693074 -12.9265603 158.83018855 -12.93356323 157.14344788 C-12.95098625 152.55247272 -12.96152839 147.96150799 -12.96976876 143.37050796 C-12.97491583 140.50369507 -12.98099168 137.63688544 -12.98727989 134.77007484 C-13.00633503 125.80475511 -13.02056585 116.83944364 -13.02889186 107.87410754 C-13.0386685 97.51709837 -13.06499778 87.16030267 -13.10539275 76.80336875 C-13.13552705 68.80331462 -13.15035815 60.80332178 -13.15367287 52.80321199 C-13.15602631 48.02259854 -13.16502477 43.24221307 -13.19013405 38.46166039 C-13.21337307 33.96447608 -13.21766491 29.46767054 -13.20737267 24.97044182 C-13.20687619 23.31965629 -13.21322961 21.66885239 -13.22692871 20.01812363 C-13.2445865 17.76430686 -13.2375731 15.51185844 -13.22439575 13.25804138 C-13.22678411 11.99686084 -13.22917246 10.73568029 -13.23163319 9.43628216 C-12.64784142 5.54912222 -11.47318741 3.90720622 -8.73664856 1.14044189 C-5.81920679 -0.31827899 -3.25959796 0.0076951 0 0 Z " fill="#010101" transform="translate(276.7366485595703,68.85955810546875)"/>
<path d="M0 0 C1.05082804 -0.00445668 1.05082804 -0.00445668 2.12288493 -0.0090034 C4.4819749 -0.01770934 6.84101424 -0.01920024 9.20011902 -0.02069092 C10.88686227 -0.02531777 12.57360448 -0.03034225 14.26034546 -0.03573608 C18.85132502 -0.04887532 23.44228995 -0.05530806 28.03328538 -0.05974674 C30.90009843 -0.06267515 33.76690746 -0.06677953 36.63371849 -0.07125092 C45.59904074 -0.08493016 54.56435383 -0.0945946 63.5296858 -0.09845281 C73.88665608 -0.10293407 84.24349443 -0.12048336 94.60042459 -0.1494534 C102.60047961 -0.17105574 110.60049747 -0.18115632 118.60058135 -0.18249393 C123.38115008 -0.18354304 128.16159486 -0.18947335 132.94213295 -0.20731354 C137.43927185 -0.2237691 141.93619328 -0.225962 146.43335152 -0.21717453 C148.08413016 -0.21640279 149.73492038 -0.22076488 151.38566971 -0.23063278 C153.63929051 -0.24331457 155.89213675 -0.23749658 158.14575195 -0.22705078 C159.4069325 -0.22851734 160.66811304 -0.2299839 161.96751118 -0.2314949 C165.56181844 0.17412401 167.40682636 0.95950182 170.26335144 3.14044189 C172.74424157 6.86177709 172.51668182 8.76491148 172.5221405 13.21051025 C172.52739746 14.28417595 172.52739746 14.28417595 172.53276062 15.37953186 C172.54156571 17.74654835 172.53573258 20.11326609 172.52897644 22.48028564 C172.53032359 24.1255143 172.53226455 25.77074256 172.53477478 27.41596985 C172.53772451 30.86509997 172.53343384 34.31412654 172.52409363 37.76324463 C172.5127081 42.18296284 172.51925375 46.60243792 172.53123856 51.02214718 C172.5384689 54.42021005 172.53616367 57.81821537 172.53098297 61.21627998 C172.52964926 62.84576 172.53128445 64.47524525 172.53594208 66.10471916 C172.54102562 68.38361296 172.53327119 70.6621144 172.5221405 72.940979 C172.52054932 74.23764999 172.51895813 75.53432098 172.51731873 76.87028503 C172.27738922 79.9596873 172.01903815 81.62975318 170.26335144 84.14044189 C167.26335144 86.14044189 167.26335144 86.14044189 164.26335144 86.14044189 C164.25707709 89.22562814 164.31672801 92.30615808 164.38835144 95.39044189 C164.38577332 96.26313721 164.38319519 97.13583252 164.38053894 98.03497314 C164.45702435 100.53987041 164.59140248 102.72411791 165.26335144 105.14044189 C168.10857362 107.69172556 168.10857362 107.69172556 171.26335144 109.14044189 C172.66419832 111.94213566 172.42170496 114.28851565 172.45622253 117.42266846 C172.46848877 118.38888374 172.46848877 118.38888374 172.48100281 119.37461853 C172.50584921 121.51009188 172.52237266 123.64549869 172.53678894 125.78106689 C172.54211262 126.51092552 172.54743629 127.24078415 172.5529213 127.9927597 C172.57965244 131.85756887 172.59902546 135.72234576 172.6134491 139.58721924 C172.62677868 142.78249808 172.65461152 145.9771368 172.69548035 149.17218018 C172.7448586 153.03249963 172.76957654 156.89223925 172.77667618 160.75286102 C172.78337996 162.22166012 172.79857961 163.69044673 172.82256699 165.15906525 C173.0217823 178.09644794 173.0217823 178.09644794 169.8556366 182.02618408 C165.82935213 185.31000622 163.73377401 185.26860898 158.56466675 185.28088379 C157.51996404 185.28534047 157.51996404 185.28534047 156.45415622 185.28988719 C154.10888572 185.29859292 151.76366614 185.30008401 149.41838074 185.30157471 C147.74148957 185.30620158 146.06459945 185.31122606 144.38771057 185.31661987 C139.82358966 185.32975897 135.25948347 185.33619183 130.69534659 185.34063053 C127.8452845 185.34355897 124.99522646 185.34766335 122.1451664 185.3521347 C113.23216987 185.36581393 104.31918257 185.37547837 95.40617627 185.3793366 C85.10976619 185.38381784 74.81348883 185.40136701 64.51711911 185.43033719 C56.56377282 185.45193979 48.6104639 185.46204012 40.65708858 185.46337771 C35.90446522 185.46442681 31.15196654 185.47035674 26.39937401 185.48819733 C21.92849955 185.50465335 17.45784383 185.50684557 12.98694992 185.49805832 C11.34584658 185.4972866 9.70473161 185.50164836 8.06365776 185.51151657 C5.82317265 185.52419914 3.58346655 185.51837996 1.34298706 185.50793457 C0.08918086 185.50940113 -1.16462534 185.51086769 -2.45642567 185.51237869 C-6.06227211 185.1035202 -7.90348281 184.38232782 -10.73664856 182.14044189 C-13.25774474 178.73284382 -12.99306282 175.29685818 -13.0040741 171.1632843 C-13.00860521 170.46102343 -13.01313632 169.75876255 -13.01780474 169.03522104 C-13.03046412 166.6822883 -13.02882741 164.32958656 -13.0271759 161.97662354 C-13.03316014 160.28958335 -13.03996544 158.60254591 -13.04753113 156.91551208 C-13.0652075 152.33290012 -13.06988715 147.75036284 -13.0711627 143.16772008 C-13.07306142 139.34306245 -13.08041851 135.51842223 -13.08750689 131.6937713 C-13.10379412 122.67150995 -13.10867548 113.64928852 -13.10725403 104.62701416 C-13.106052 95.31680322 -13.12716534 86.00682387 -13.15874135 76.69667155 C-13.18488062 68.70506036 -13.19562234 60.71352493 -13.19434321 52.72187132 C-13.19383295 47.94800803 -13.19955156 43.1743506 -13.22069931 38.40052986 C-13.24004257 33.91150859 -13.24023313 29.42289042 -13.22566605 24.93385506 C-13.22357208 23.28629977 -13.22831379 21.63871951 -13.24038696 19.99120712 C-13.25580307 17.74185686 -13.24655719 15.49390289 -13.23112488 13.24458313 C-13.23221441 11.98600022 -13.23330395 10.72741732 -13.2344265 9.43069553 C-12.64715485 5.54889898 -11.46913484 3.9047613 -8.73664856 1.14044189 C-5.81920679 -0.31827899 -3.25959796 0.0076951 0 0 Z " fill="#60A8B5" transform="translate(276.7366485595703,269.85955810546875)"/>
<path d="M0 0 C137.94 0 275.88 0 418 0 C418 138.27 418 276.54 418 419 C244.75 419.25 244.75 419.25 189.96386719 419.29785156 C173.81484372 419.3310547 173.81484372 419.3310547 157.66583252 419.36956787 C150.4501507 419.38663333 143.23455963 419.39275678 136.01885986 419.39154053 C127.70406888 419.39017636 119.38943522 419.40251458 111.07469435 419.43203889 C106.81814817 419.44671616 102.56184738 419.45506844 98.30528021 419.44582415 C94.46011154 419.4375907 90.61544694 419.44754821 86.77035332 419.47234154 C85.37663254 419.47805675 83.98286452 419.47695097 82.58915758 419.4685111 C80.69659055 419.45803748 78.80393121 419.4743902 76.91141891 419.49219131 C75.33254178 419.49446964 75.33254178 419.49446964 73.72176814 419.49679399 C70.28010141 420.13309631 69.06619844 421.21206256 67 424 C66.91083846 427.62649951 66.91083846 427.62649951 68 431 C71.4153761 433.2769174 72.62015159 433.2527742 76.63219738 433.26171303 C77.81207483 433.26917852 78.99195229 433.27664401 80.20758361 433.28433573 C81.51009466 433.282401 82.81260571 433.28046626 84.15458679 433.2784729 C85.54723699 433.28347321 86.93988429 433.28934822 88.33252746 433.29602563 C92.16809456 433.31187178 96.00358852 433.31525884 99.8391844 433.31667423 C103.97211597 433.32036026 108.10500702 433.3355117 112.23791504 433.34928894 C119.40134446 433.37159075 126.56475952 433.38658644 133.72821617 433.39665604 C144.08543789 433.41122558 154.44260961 433.43675751 164.79980204 433.46498732 C181.60260546 433.51048673 198.40541606 433.5470885 215.20825195 433.578125 C231.53313459 433.60829766 247.85799963 433.64264201 264.18286133 433.68261719 C265.18869067 433.68507874 266.19452001 433.68754028 267.23082902 433.69007643 C272.2766493 433.70245078 277.32246938 433.71490736 282.36828935 433.72740483 C324.2455019 433.83101976 366.12273605 433.9200597 408 434 C408 437.63 408 441.26 408 445 C276.66 445 145.32 445 10 445 C10 441.37 10 437.74 10 434 C11.37720215 433.97812622 11.37720215 433.97812622 12.78222656 433.95581055 C16.19687909 433.89466485 19.61073672 433.82049783 23.02490234 433.73754883 C24.50103138 433.70434645 25.97728594 433.67629983 27.45361328 433.65356445 C29.57899332 433.61993049 31.70322804 433.56761481 33.828125 433.51171875 C35.1059082 433.48553467 36.38369141 433.45935059 37.70019531 433.43237305 C41.15472893 432.97972589 42.63204276 432.52316727 45 430 C45.66666667 426.5 45.66666667 426.5 45 423 C43.22726752 420.93251035 41.75015778 420.11299866 39.05285645 419.70669556 C36.57850107 419.55514944 34.11955941 419.50635996 31.640625 419.48828125 C30.73624695 419.47033005 29.8318689 419.45237885 28.90008545 419.43388367 C26.0167708 419.37978143 23.13362168 419.34588526 20.25 419.3125 C18.29294572 419.27932685 16.33591328 419.24483719 14.37890625 419.20898438 C9.58605693 419.12405496 4.79325671 419.0572433 0 419 C0 415.04 0 411.08 0 407 C2.1915935 406.99503478 2.1915935 406.99503478 4.42746162 406.98996925 C39.14807872 406.91086846 73.86865616 406.82161716 108.58921469 406.71994839 C112.86725619 406.70743025 117.14529794 406.69499736 121.42333984 406.68261719 C122.70080506 406.6789182 122.70080506 406.6789182 124.00407766 406.67514448 C137.77477702 406.63547352 151.54548453 406.60270118 165.31620754 406.57250018 C179.45727472 406.54133259 193.59830747 406.50270068 207.73933589 406.45720994 C216.45771002 406.42939666 225.17605911 406.40733277 233.89446555 406.39273749 C239.88151916 406.38215569 245.86852413 406.36429168 251.85554101 406.34083296 C255.30429279 406.32753078 258.75297672 406.31731284 262.20175552 406.31578636 C282.31498897 406.59661936 282.31498897 406.59661936 302.10048199 403.44304562 C305.5764686 402.63230277 309.17481902 402.85588711 312.72827148 402.8581543 C313.60839905 402.85467987 314.48852661 402.85120544 315.39532471 402.84762573 C317.3045177 402.8402804 319.21371916 402.83492851 321.1229229 402.83133507 C324.14493089 402.82416217 327.16677722 402.80849041 330.18873596 402.78999329 C338.78018006 402.73755471 347.37153396 402.68952652 355.96313477 402.67407227 C361.21988189 402.66399683 366.47621975 402.63468692 371.73280525 402.59275246 C373.73543263 402.58043498 375.73811777 402.57532256 377.74078178 402.57755089 C380.54174461 402.57990115 383.34153017 402.55775971 386.14233398 402.5300293 C386.96899063 402.53663071 387.79564728 402.54323212 388.64735413 402.55003357 C392.62551534 402.48534972 394.55306907 402.28511241 397.99110413 400.09187317 C401.32244244 396.62293418 401.13735532 394.4131709 401.17700195 389.68603516 C401.18357315 389.03867905 401.19014435 388.39132294 401.19691467 387.72434998 C401.2166467 385.579253 401.22830929 383.434226 401.23828125 381.2890625 C401.24235678 380.55670757 401.2464323 379.82435265 401.25063133 379.06980515 C401.27149063 375.19432609 401.28579351 371.31888243 401.29516602 367.44335938 C401.30623667 363.43933818 401.34064373 359.4358718 401.38033772 355.43204689 C401.40647298 352.35396282 401.414855 349.27601165 401.41844749 346.19782639 C401.4233207 344.72181827 401.4349557 343.24581638 401.45348549 341.76991653 C401.4778157 339.70374714 401.4769245 337.63902247 401.4699707 335.57275391 C401.47583694 334.39742096 401.48170319 333.22208801 401.48774719 332.01113892 C400.89471913 328.35004172 399.86362125 327.274578 397 325 C396.01 324.34 395.02 323.68 394 323 C393.65942383 321.02880859 393.65942383 321.02880859 393.70703125 318.6484375 C393.71669922 317.79765625 393.72636719 316.946875 393.73632812 316.0703125 C393.76146484 315.18085938 393.78660156 314.29140625 393.8125 313.375 C393.83280273 312.02921875 393.83280273 312.02921875 393.85351562 310.65625 C393.88893075 308.43690211 393.93831539 306.21874812 394 304 C395.4540625 303.62875 395.4540625 303.62875 396.9375 303.25 C397.948125 302.8375 398.95875 302.425 400 302 C401.47367069 298.47628611 401.14128921 294.57603787 401.16113281 290.81640625 C401.16609772 290.10048309 401.17106262 289.38455994 401.17617798 288.64694214 C401.19074942 286.28545157 401.19759177 283.92402808 401.203125 281.5625 C401.20887882 279.91870116 401.21463652 278.27490233 401.22039795 276.63110352 C401.23089241 273.18798511 401.23674583 269.74488996 401.24023438 266.30175781 C401.24572813 261.88986481 401.26978129 257.47827902 401.29820633 253.06648254 C401.31682405 249.67272031 401.32203775 246.27903238 401.32357025 242.88522339 C401.32659724 241.25851759 401.33462737 239.63181311 401.34775543 238.00515747 C401.36480477 235.73106381 401.36293927 233.45772533 401.35644531 231.18359375 C401.36009094 229.88993896 401.36373657 228.59628418 401.36749268 227.26342773 C400.97739916 223.79929886 400.48490084 222.39911379 398 220 C395.05484348 219.08656104 395.05484348 219.08656104 391.8125 218.75 C389.894375 218.5025 387.97625 218.255 386 218 C386 212.72 386 207.44 386 202 C332.54 202 279.08 202 224 202 C224 201.67 224 201.34 224 201 C225.33324546 200.99365209 225.33324546 200.99365209 226.69342518 200.98717594 C248.30023392 200.88396317 269.90700952 200.77533956 291.51376057 200.66066074 C301.9625314 200.60533451 312.41130565 200.55185348 322.86010742 200.50268555 C331.96510398 200.45983639 341.07007546 200.41355652 350.17503327 200.36312145 C354.99798589 200.33652644 359.82093356 200.31167347 364.64391518 200.29092598 C369.18038263 200.27135688 373.71680238 200.24721223 378.25322723 200.21950912 C379.92095512 200.21014015 381.58869348 200.20246431 383.2564373 200.19658089 C385.52817322 200.18831712 387.79979343 200.17403967 390.07148743 200.15821838 C391.34448354 200.15176583 392.61747965 200.14531328 393.9290514 200.1386652 C397.04045545 200.13824416 397.04045545 200.13824416 400 199 C401.44958386 195.52724931 401.13169066 191.72148097 401.14044189 188.01611328 C401.14341302 187.31314684 401.14638414 186.6101804 401.1494453 185.88591194 C401.15811613 183.53070005 401.15963915 181.17553908 401.16113281 178.8203125 C401.16576198 177.13165173 401.17078678 175.44299201 401.17617798 173.7543335 C401.18929097 169.1676716 401.19574432 164.58102433 401.20018864 159.99434662 C401.20312001 157.12987572 401.20722486 154.26540882 401.21169281 151.40093994 C401.22536235 142.4414999 401.23503272 133.482069 401.2388947 124.52261925 C401.24337987 114.17414912 401.26095131 103.82581079 401.2898953 93.47738075 C401.31148706 85.48069804 401.32159757 77.48405249 401.32293582 69.48734093 C401.32398528 64.70962838 401.32992342 59.93203982 401.34775543 55.15435791 C401.36419373 50.66294094 401.36641237 46.17174175 401.35761642 41.68030548 C401.35684387 40.03071765 401.36121735 38.38111831 401.37107468 36.73155975 C401.38373044 34.48207377 401.37795291 32.23336666 401.36749268 29.98388672 C401.36969252 28.09462967 401.36969252 28.09462967 401.3719368 26.16720581 C400.97222383 22.76347368 400.43515146 21.37037688 398 19 C395.05484348 18.08656104 395.05484348 18.08656104 391.8125 17.75 C389.894375 17.5025 387.97625 17.255 386 17 C386 11.72 386 6.44 386 1 C258.62 1 131.24 1 0 1 C0 0.67 0 0.34 0 0 Z " fill="#ABA6B0" transform="translate(47,52)"/>
<path d="M0 0 C1.05082804 -0.00445668 1.05082804 -0.00445668 2.12288493 -0.0090034 C4.4819749 -0.01770934 6.84101424 -0.01920024 9.20011902 -0.02069092 C10.88686227 -0.02531777 12.57360448 -0.03034225 14.26034546 -0.03573608 C18.85132502 -0.04887532 23.44228995 -0.05530806 28.03328538 -0.05974674 C30.90009843 -0.06267515 33.76690746 -0.06677953 36.63371849 -0.07125092 C45.59904074 -0.08493016 54.56435383 -0.0945946 63.5296858 -0.09845281 C73.88665608 -0.10293407 84.24349443 -0.12048336 94.60042459 -0.1494534 C102.60047961 -0.17105574 110.60049747 -0.18115632 118.60058135 -0.18249393 C123.38115008 -0.18354304 128.16159486 -0.18947335 132.94213295 -0.20731354 C137.43927185 -0.2237691 141.93619328 -0.225962 146.43335152 -0.21717453 C148.08413016 -0.21640279 149.73492038 -0.22076488 151.38566971 -0.23063278 C153.63929051 -0.24331457 155.89213675 -0.23749658 158.14575195 -0.22705078 C159.4069325 -0.22851734 160.66811304 -0.2299839 161.96751118 -0.2314949 C165.56181844 0.17412401 167.40682636 0.95950182 170.26335144 3.14044189 C172.7178612 6.82220653 172.51469042 8.61075539 172.51731873 13.0040741 C172.5219987 14.05724212 172.5219987 14.05724212 172.52677321 15.13168627 C172.534766 17.49007697 172.52842465 19.84821128 172.5221405 22.206604 C172.52484982 23.89511771 172.52841042 25.58363023 172.53276062 27.2721405 C172.5418946 31.86302347 172.53833603 36.45381676 172.53200245 41.04470134 C172.52694685 45.84481092 172.53163275 50.64491271 172.53477478 55.44502258 C172.53841606 63.50781638 172.53361145 71.57057357 172.52409363 79.63336182 C172.51321246 88.95884192 172.51673155 98.28423456 172.52774644 107.60971254 C172.5368191 115.61062619 172.53810458 123.6115135 172.5328691 131.61243063 C172.52974881 136.39347458 172.5293416 141.17447741 172.53594208 145.95551872 C172.54171447 150.45100185 172.53772058 154.94637211 172.52615356 159.44184303 C172.52350625 161.09303474 172.52427329 162.74423593 172.52867889 164.39542389 C172.53413309 166.64702004 172.52730188 168.89825311 172.51731873 171.14982605 C172.51618765 173.04103133 172.51618765 173.04103133 172.51503372 174.97044277 C172.26943439 178.06382567 172.09348685 179.66956149 170.26335144 182.14044189 C166.30315741 185.27081013 163.17088496 185.51689807 158.2039032 185.52139282 C157.50487145 185.52607279 156.8058397 185.53075277 156.08562517 185.53557456 C153.74949046 185.54751531 151.41394336 185.53807129 149.07780457 185.52862549 C147.40046853 185.53269161 145.72313517 185.53803372 144.04580688 185.54455566 C139.49419269 185.55823026 134.94278253 185.55293003 130.39116478 185.54341841 C125.62756679 185.53582257 120.86398625 185.54286721 116.10038757 185.5475769 C108.10080326 185.55303467 100.10130204 185.54584228 92.10173035 185.53155518 C82.85344359 185.51522862 73.60535525 185.52051712 64.35707331 185.53703439 C56.41639079 185.55064864 48.47576799 185.55256922 40.53507757 185.54471838 C35.79257804 185.54004154 31.05017176 185.53941735 26.30767822 185.54932785 C21.8490476 185.55799434 17.39067277 185.55198144 12.93206978 185.53464508 C11.29581184 185.53067854 9.65953237 185.53181716 8.023283 185.53843307 C5.78949802 185.54663225 3.55653247 185.53634752 1.32279968 185.52139282 C0.07288994 185.52026175 -1.17701981 185.51913067 -2.4648056 185.51796532 C-6.06255518 185.10283698 -7.90782694 184.37650742 -10.73664856 182.14044189 C-13.25774474 178.73284382 -12.99306282 175.29685818 -13.0040741 171.1632843 C-13.00860521 170.46102343 -13.01313632 169.75876255 -13.01780474 169.03522104 C-13.03046412 166.6822883 -13.02882741 164.32958656 -13.0271759 161.97662354 C-13.03316014 160.28958335 -13.03996544 158.60254591 -13.04753113 156.91551208 C-13.0652075 152.33290012 -13.06988715 147.75036284 -13.0711627 143.16772008 C-13.07306142 139.34306245 -13.08041851 135.51842223 -13.08750689 131.6937713 C-13.10379412 122.67150995 -13.10867548 113.64928852 -13.10725403 104.62701416 C-13.106052 95.31680322 -13.12716534 86.00682387 -13.15874135 76.69667155 C-13.18488062 68.70506036 -13.19562234 60.71352493 -13.19434321 52.72187132 C-13.19383295 47.94800803 -13.19955156 43.1743506 -13.22069931 38.40052986 C-13.24004257 33.91150859 -13.24023313 29.42289042 -13.22566605 24.93385506 C-13.22357208 23.28629977 -13.22831379 21.63871951 -13.24038696 19.99120712 C-13.25580307 17.74185686 -13.24655719 15.49390289 -13.23112488 13.24458313 C-13.23221441 11.98600022 -13.23330395 10.72741732 -13.2344265 9.43069553 C-12.64715485 5.54889898 -11.46913484 3.9047613 -8.73664856 1.14044189 C-5.81920679 -0.31827899 -3.25959796 0.0076951 0 0 Z M2.26335144 15.14044189 C2.26335144 66.29044189 2.26335144 117.44044189 2.26335144 170.14044189 C53.41335144 170.14044189 104.56335144 170.14044189 157.26335144 170.14044189 C157.26335144 118.99044189 157.26335144 67.84044189 157.26335144 15.14044189 C106.11335144 15.14044189 54.96335144 15.14044189 2.26335144 15.14044189 Z " fill="#030303" transform="translate(75.73664855957031,269.85955810546875)"/>
<path d="M0 0 C1.05082804 -0.00445668 1.05082804 -0.00445668 2.12288493 -0.0090034 C4.4819749 -0.01770934 6.84101424 -0.01920024 9.20011902 -0.02069092 C10.88686227 -0.02531777 12.57360448 -0.03034225 14.26034546 -0.03573608 C18.85132502 -0.04887532 23.44228995 -0.05530806 28.03328538 -0.05974674 C30.90009843 -0.06267515 33.76690746 -0.06677953 36.63371849 -0.07125092 C45.59904074 -0.08493016 54.56435383 -0.0945946 63.5296858 -0.09845281 C73.88665608 -0.10293407 84.24349443 -0.12048336 94.60042459 -0.1494534 C102.60047961 -0.17105574 110.60049747 -0.18115632 118.60058135 -0.18249393 C123.38115008 -0.18354304 128.16159486 -0.18947335 132.94213295 -0.20731354 C137.43927185 -0.2237691 141.93619328 -0.225962 146.43335152 -0.21717453 C148.08413016 -0.21640279 149.73492038 -0.22076488 151.38566971 -0.23063278 C153.63929051 -0.24331457 155.89213675 -0.23749658 158.14575195 -0.22705078 C159.4069325 -0.22851734 160.66811304 -0.2299839 161.96751118 -0.2314949 C165.56181844 0.17412401 167.40682636 0.95950182 170.26335144 3.14044189 C172.74424157 6.86177709 172.51668182 8.76491148 172.5221405 13.21051025 C172.52739746 14.28417595 172.52739746 14.28417595 172.53276062 15.37953186 C172.54156571 17.74654835 172.53573258 20.11326609 172.52897644 22.48028564 C172.53032359 24.1255143 172.53226455 25.77074256 172.53477478 27.41596985 C172.53772451 30.86509997 172.53343384 34.31412654 172.52409363 37.76324463 C172.5127081 42.18296284 172.51925375 46.60243792 172.53123856 51.02214718 C172.5384689 54.42021005 172.53616367 57.81821537 172.53098297 61.21627998 C172.52964926 62.84576 172.53128445 64.47524525 172.53594208 66.10471916 C172.54102562 68.38361296 172.53327119 70.6621144 172.5221405 72.940979 C172.52054932 74.23764999 172.51895813 75.53432098 172.51731873 76.87028503 C172.27738922 79.9596873 172.01903815 81.62975318 170.26335144 84.14044189 C167.26335144 86.14044189 167.26335144 86.14044189 163.76335144 86.01544189 C160.26335144 85.14044189 160.26335144 85.14044189 157.26335144 81.14044189 C157.26335144 59.36044189 157.26335144 37.58044189 157.26335144 15.14044189 C106.11335144 15.14044189 54.96335144 15.14044189 2.26335144 15.14044189 C2.26335144 66.29044189 2.26335144 117.44044189 2.26335144 170.14044189 C53.41335144 170.14044189 104.56335144 170.14044189 157.26335144 170.14044189 C157.26335144 150.34044189 157.26335144 130.54044189 157.26335144 110.14044189 C161.26335144 106.14044189 161.26335144 106.14044189 164.20085144 105.57794189 C168.3343831 106.337162 169.62988589 107.91309262 172.26335144 111.14044189 C172.89826965 114.24491882 172.89826965 114.24491882 172.9103241 117.76324463 C172.91908569 118.40782623 172.92784729 119.05240784 172.93687439 119.71652222 C172.95878866 121.83638876 172.94434622 123.95414983 172.92741394 126.07403564 C172.93078488 127.55467629 172.93563982 129.03531423 172.94190979 130.51594543 C172.94927053 133.61541147 172.93860432 136.71415568 172.91520691 139.8135376 C172.8867429 143.7761338 172.90311061 147.73703494 172.93306923 151.69956875 C172.95118614 154.75639994 172.94536402 157.81283304 172.93243027 160.86967659 C172.92910701 162.33004014 172.93314527 163.79044044 172.94482803 165.25076103 C173.02490198 178.07449421 173.02490198 178.07449421 169.84684753 182.01959229 C165.83003119 185.31708648 163.7334754 185.26860969 158.56466675 185.28088379 C157.51996404 185.28534047 157.51996404 185.28534047 156.45415622 185.28988719 C154.10888572 185.29859292 151.76366614 185.30008401 149.41838074 185.30157471 C147.74148957 185.30620158 146.06459945 185.31122606 144.38771057 185.31661987 C139.82358966 185.32975897 135.25948347 185.33619183 130.69534659 185.34063053 C127.8452845 185.34355897 124.99522646 185.34766335 122.1451664 185.3521347 C113.23216987 185.36581393 104.31918257 185.37547837 95.40617627 185.3793366 C85.10976619 185.38381784 74.81348883 185.40136701 64.51711911 185.43033719 C56.56377282 185.45193979 48.6104639 185.46204012 40.65708858 185.46337771 C35.90446522 185.46442681 31.15196654 185.47035674 26.39937401 185.48819733 C21.92849955 185.50465335 17.45784383 185.50684557 12.98694992 185.49805832 C11.34584658 185.4972866 9.70473161 185.50164836 8.06365776 185.51151657 C5.82317265 185.52419914 3.58346655 185.51837996 1.34298706 185.50793457 C0.08918086 185.50940113 -1.16462534 185.51086769 -2.45642567 185.51237869 C-6.06227211 185.1035202 -7.90348281 184.38232782 -10.73664856 182.14044189 C-13.25774474 178.73284382 -12.99306282 175.29685818 -13.0040741 171.1632843 C-13.00860521 170.46102343 -13.01313632 169.75876255 -13.01780474 169.03522104 C-13.03046412 166.6822883 -13.02882741 164.32958656 -13.0271759 161.97662354 C-13.03316014 160.28958335 -13.03996544 158.60254591 -13.04753113 156.91551208 C-13.0652075 152.33290012 -13.06988715 147.75036284 -13.0711627 143.16772008 C-13.07306142 139.34306245 -13.08041851 135.51842223 -13.08750689 131.6937713 C-13.10379412 122.67150995 -13.10867548 113.64928852 -13.10725403 104.62701416 C-13.106052 95.31680322 -13.12716534 86.00682387 -13.15874135 76.69667155 C-13.18488062 68.70506036 -13.19562234 60.71352493 -13.19434321 52.72187132 C-13.19383295 47.94800803 -13.19955156 43.1743506 -13.22069931 38.40052986 C-13.24004257 33.91150859 -13.24023313 29.42289042 -13.22566605 24.93385506 C-13.22357208 23.28629977 -13.22831379 21.63871951 -13.24038696 19.99120712 C-13.25580307 17.74185686 -13.24655719 15.49390289 -13.23112488 13.24458313 C-13.23221441 11.98600022 -13.23330395 10.72741732 -13.2344265 9.43069553 C-12.64715485 5.54889898 -11.46913484 3.9047613 -8.73664856 1.14044189 C-5.81920679 -0.31827899 -3.25959796 0.0076951 0 0 Z " fill="#030303" transform="translate(276.7366485595703,269.85955810546875)"/>
<path d="M0 0 C2.73046875 2.22265625 2.73046875 2.22265625 5.1875 5.0625 C7.54202779 7.88363952 7.54202779 7.88363952 10 10 C12.10995867 10.27564134 12.10995867 10.27564134 14 9 C16.18405585 6.91557291 16.18405585 6.91557291 18.3125 4.4375 C22.5069481 0.10507663 22.5069481 0.10507663 26.8125 -0.8125 C30.50502204 0.12873111 31.9048961 0.81544207 34 4 C34.6875 6.75 34.6875 6.75 34 10 C31.54436336 13.5462282 28.59907192 16.74151755 25.20727539 19.41088867 C22.24030069 21.91903347 20.26944729 23.7423843 19.43774414 27.62426758 C19.31238189 30.59134225 19.38700076 33.4732985 19.5625 36.4375 C19.60987305 37.96407227 19.60987305 37.96407227 19.65820312 39.52148438 C19.74022715 42.01735816 19.85489893 44.5071317 20 47 C31.07814931 42.81610408 31.07814931 42.81610408 39.27880859 34.84033203 C40.7455397 30.98623628 41.4938464 27.13329739 42.1484375 23.07421875 C42.8048702 19.13787061 44.03170002 16.7930498 47 14 C50.89448193 13.37410112 53.0341266 13.46876963 56.5 15.375 C60.03499121 21.56123462 56.58412793 30.45227122 55 37 C55.64066406 37.10957031 56.28132813 37.21914063 56.94140625 37.33203125 C62.34283524 38.32215907 67.0974712 39.49658104 72 42 C73.56430248 45.12860495 73.35627284 47.55602925 73 51 C71.0625 53.5 71.0625 53.5 68 55 C62.02615182 55.37112083 56.20023089 53.31527827 50.578125 51.5234375 C44.43369516 50.27593205 40.20551771 53.42683917 35.1875 56.5625 C34.49462891 56.98724609 33.80175781 57.41199219 33.08789062 57.84960938 C31.38783049 58.89309456 29.69334524 59.94565296 28 61 C30.17919339 62.48244448 32.36625399 63.9491907 34.5703125 65.39453125 C36.0022938 66.34074397 37.42089258 67.30883677 38.8046875 68.32421875 C43.22383083 71.33727102 46.52837253 71.2371569 51.5859375 70.49609375 C54.22252777 69.9888001 54.22252777 69.9888001 57.625 68.9375 C61.78648685 67.78153143 64.68882358 67.57594986 69 68 C71.5 69.5625 71.5 69.5625 73 72 C73.73944377 78.02118501 73.73944377 78.02118501 71.78125 80.61328125 C69.60899436 82.30440132 67.71277861 82.89966059 65.0625 83.625 C64.20785156 83.86476563 63.35320312 84.10453125 62.47265625 84.3515625 C60.31858487 84.91645326 58.1624503 85.46816768 56 86 C56.57022728 90.54136371 56.57022728 90.54136371 57.5625 95 C58.25550634 98.16802899 58.3404282 100.76593209 58 104 C55.9375 107 55.9375 107 53 109 C49.375 109.125 49.375 109.125 46 108 C43.28770155 104.54083676 42.6495811 101.34429089 41.92260742 97.07202148 C40.6656306 90.53733956 39.07826936 86.31800604 33.44921875 82.44140625 C28.79339115 79.63684946 23.96513921 77.20697125 19 75 C17.62606519 89.58850675 17.62606519 89.58850675 23.18359375 102.43359375 C25.63229486 104.88734503 28.25364237 107.01635866 30.97265625 109.16015625 C33.60309697 111.319451 33.93845958 111.65127094 34.5625 115.1875 C33.75961449 119.20192754 32.32594842 120.66475962 29 123 C24.66748175 122.92914106 22.54533393 122.43404129 19.12890625 119.71484375 C18.28199219 118.79832031 17.43507813 117.88179688 16.5625 116.9375 C15.26505859 115.55884766 15.26505859 115.55884766 13.94140625 114.15234375 C13.30074219 113.44207031 12.66007812 112.73179687 12 112 C11.56429687 112.37511719 11.12859375 112.75023437 10.6796875 113.13671875 C9.43478055 114.20647646 8.18442391 115.26991357 6.9296875 116.328125 C5.73464611 117.36350499 4.56618954 118.4316305 3.4453125 119.546875 C0.60887559 122.27598727 -0.69325725 122.99480097 -4.6875 123.0625 C-8 122 -8 122 -9.9375 120.3125 C-11.38442917 117.16330122 -11.53488397 115.45167315 -11 112 C-9.49029032 110.34235181 -7.83091061 109.04839737 -6.07080078 107.66064453 C-0.40230722 103.14983018 3.22922773 99.36795651 4.15234375 91.97265625 C4.49140155 86.30642004 4.39067848 80.66117994 4 75 C-8.56274434 80.22317854 -8.56274434 80.22317854 -16.9375 90 C-17.5891301 92.47151828 -17.5891301 92.47151828 -18 95 C-21.13024314 106.74264183 -21.13024314 106.74264183 -25 109 C-28.44422213 108.93957505 -30.90417507 108.60093625 -33.9375 106.9375 C-36.69007312 101.91810196 -34.90519955 96.19254692 -33.5 91 C-33.00999881 89.33036632 -32.51344221 87.66257477 -32 86 C-32.88042969 85.82984375 -33.76085937 85.6596875 -34.66796875 85.484375 C-36.41013672 85.12085938 -36.41013672 85.12085938 -38.1875 84.75 C-39.33605469 84.51796875 -40.48460937 84.2859375 -41.66796875 84.046875 C-45.27881725 82.91239974 -47.33252209 81.66747791 -50 79 C-50.63210717 75.06688873 -50.60020266 72.97532932 -48.5 69.5625 C-44.96613285 67.35383303 -41.99448425 67.42176351 -38 68 C-35.20259054 68.69439242 -32.45865521 69.47350509 -29.7109375 70.34375 C-23.75131611 71.78642492 -20.27063247 70.99655966 -15.140625 67.8984375 C-14.47546875 67.47820312 -13.8103125 67.05796875 -13.125 66.625 C-12.43664062 66.2125 -11.74828125 65.8 -11.0390625 65.375 C-9.31709261 64.31585185 -7.65241944 63.1646824 -6 62 C-6 61.34 -6 60.68 -6 60 C-16.45561575 52.57023533 -16.45561575 52.57023533 -28.6875 51.3125 C-31.44494316 52.04963827 -33.97417189 52.98928984 -36.609375 54.08203125 C-39.9257418 55.35547275 -42.48091474 55.38390021 -46 55 C-48.4375 53.4375 -48.4375 53.4375 -50 51 C-50.53754934 47.23715463 -50.6278425 45.02737863 -48.625 41.75 C-43.60707378 38.40471585 -37.98911093 37 -32 37 C-32.2165625 36.29875 -32.433125 35.5975 -32.65625 34.875 C-34.35520791 29.08595823 -35.74088018 24.03288148 -35 18 C-33.4375 15.5 -33.4375 15.5 -31 14 C-27.5 13.4375 -27.5 13.4375 -24 14 C-20.27911081 17.5012057 -19.56021191 20.52083126 -18.78393555 25.33447266 C-17.88877996 30.4852246 -17.00004284 35.17502852 -13.01416016 38.81201172 C-8.01792148 42.20995479 -2.5962454 44.75038405 3 47 C4.73494001 34.52990883 4.73494001 34.52990883 1.74023438 22.71435547 C-1.63555511 18.49461861 -5.73868232 15.28228985 -10 12 C-11.42041821 9.15916359 -11.31452272 7.14522722 -11 4 C-8.02338034 -0.52446188 -5.17026957 -0.58853068 0 0 Z " fill="#010202" transform="translate(345,301)"/>
<path d="M0 0 C0.495 0.99 0.495 0.99 1 2 C1.55985596 1.97381592 2.11971191 1.94763184 2.6965332 1.9206543 C5.23490294 1.81667669 7.77282553 1.7516795 10.3125 1.6875 C11.19357422 1.64560547 12.07464844 1.60371094 12.98242188 1.56054688 C15.41801685 1.51424279 17.61106652 1.51690328 20 2 C21.98046875 4.45703125 21.98046875 4.45703125 23 7 C25.62531026 8.31265513 27.56752637 8.13102178 30.50914955 8.1386652 C31.68703596 8.14413964 32.86492236 8.14961409 34.0785023 8.15525442 C35.38392619 8.15623253 36.68935008 8.15721064 38.03433228 8.15821838 C39.42611757 8.16278144 40.81790148 8.16778108 42.20968378 8.17318195 C46.04749245 8.18680171 49.88529223 8.19419248 53.72311878 8.20060861 C57.85673889 8.20859575 61.99034039 8.2222993 66.12394714 8.23532104 C73.29012089 8.25710778 80.4562965 8.27524421 87.62248611 8.29092598 C97.98369007 8.31360463 108.34487345 8.34175021 118.70605998 8.37124526 C135.51496841 8.41894579 152.32388525 8.46220329 169.1328125 8.50268555 C185.46452488 8.54202796 201.79622979 8.58345117 218.12792969 8.62768555 C219.13402175 8.63040982 220.14011381 8.63313409 221.17669351 8.63594092 C226.22378435 8.64962019 231.27087508 8.6633405 236.31796575 8.67708123 C278.21196164 8.79108466 320.10597374 8.89781174 362 9 C362 12.63 362 16.26 362 20 C230.66 20 99.32 20 -36 20 C-36 16.37 -36 12.74 -36 9 C-35.08186523 8.98541748 -34.16373047 8.97083496 -33.21777344 8.95581055 C-29.80312091 8.89466485 -26.38926328 8.82049783 -22.97509766 8.73754883 C-21.49896862 8.70434645 -20.02271406 8.67629983 -18.54638672 8.65356445 C-16.42100668 8.61993049 -14.29677196 8.56761481 -12.171875 8.51171875 C-10.8940918 8.48553467 -9.61630859 8.45935059 -8.29980469 8.43237305 C-4.84885676 7.98019572 -3.40848081 7.46475716 -1 5 C-0.1957792 2.40144267 -0.1957792 2.40144267 0 0 Z " fill="#A197A4" transform="translate(93,477)"/>
<path d="M0 0 C0.33 0 0.66 0 1 0 C1 50.82 1 101.64 1 154 C18.551875 154.061875 36.10375 154.12375 54.1875 154.1875 C59.70750732 154.23543701 65.22751465 154.28337402 70.91479492 154.33276367 C75.90955367 154.32292634 75.90955367 154.32292634 80.9042511 154.29853821 C83.11040348 154.29469996 85.31666227 154.31229346 87.52253723 154.3474884 C103.26426528 154.91401449 103.26426528 154.91401449 116.6965332 147.80981445 C118.52897782 145.93423974 120.29997903 143.99638736 122 142 C123.03222552 140.87137536 124.06891991 139.74682173 125.11003113 138.62638855 C151.28640806 110.1058133 153.60841664 76.19584463 153.73822021 39.32733154 C153.75805889 34.88151576 153.79999459 30.43590785 153.83984375 25.99023438 C153.91435579 17.32687852 153.96511953 8.66360586 154 0 C154.33 0 154.66 0 155 0 C155.00546844 1.22695587 155.00546844 1.22695587 155.01104736 2.47869873 C155.04892092 10.18897929 155.10576561 17.89877631 155.18390274 25.60874557 C155.22340509 29.57251385 155.25557975 33.53605906 155.27099609 37.5 C155.28614497 41.32578819 155.32055775 45.15096326 155.36830902 48.97647858 C155.38314133 50.43564778 155.39104208 51.89490452 155.39188385 53.35414886 C155.39424995 55.39919829 155.42129482 57.4425483 155.45410156 59.48730469 C155.46298401 60.65090515 155.47186646 61.81450562 155.48101807 63.0133667 C156.10651972 66.6129989 157.17468825 67.76305775 160 70 C160.66 70.33 161.32 70.66 162 71 C162.33 77.6 162.66 84.2 163 91 C160.525 91.99 160.525 91.99 158 93 C143.36936244 107.63063756 155.34479955 134.31202706 155 155 C103.85 155 52.7 155 0 155 C0 103.85 0 52.7 0 0 Z " fill="#4E8A97" transform="translate(279,285)"/>
<path d="M0 0 C0.96147949 -0.0038269 1.92295898 -0.00765381 2.91357422 -0.01159668 C4.9443466 -0.01431602 6.97515399 -0.00695329 9.00585938 0.00976562 C12.1140757 0.03117475 15.21998056 0.00996454 18.328125 -0.015625 C20.30208843 -0.01298173 22.27605043 -0.00785676 24.25 0 C25.17925293 -0.00809692 26.10850586 -0.01619385 27.06591797 -0.02453613 C33.47922506 0.06865631 33.47922506 0.06865631 36.70703125 2.38085938 C38.68456924 5.37985293 38.77237436 7.00665628 38.125 10.53125 C36.10387795 13.3150016 34.49573638 15.22744611 31.0385437 15.99368286 C28.46973066 16.17689248 25.94620947 16.19799791 23.37109375 16.16015625 C21.964291 16.16377419 21.964291 16.16377419 20.52906799 16.16746521 C18.55131796 16.16648786 16.57354019 16.15312108 14.59594727 16.12817383 C11.56888011 16.0938224 8.54472618 16.10753099 5.51757812 16.12695312 C3.59373758 16.12005563 1.66990456 16.11038412 -0.25390625 16.09765625 C-1.15814835 16.10261612 -2.06239044 16.10757599 -2.99403381 16.11268616 C-9.21754097 15.99597429 -9.21754097 15.99597429 -12.44506836 13.71459961 C-14.55511635 10.49278653 -14.41237305 8.29286138 -13.875 4.53125 C-10.4521565 -0.75902884 -5.70080963 -0.04967326 0 0 Z " fill="#010303" transform="translate(178.875,408.46875)"/>
<path d="M0 0 C0.96147949 -0.0038269 1.92295898 -0.00765381 2.91357422 -0.01159668 C4.9443466 -0.01431602 6.97515399 -0.00695329 9.00585938 0.00976562 C12.1140757 0.03117475 15.21998056 0.00996454 18.328125 -0.015625 C20.30208843 -0.01298173 22.27605043 -0.00785676 24.25 0 C25.17925293 -0.00809692 26.10850586 -0.01619385 27.06591797 -0.02453613 C33.47922506 0.06865631 33.47922506 0.06865631 36.70703125 2.38085938 C38.68456924 5.37985293 38.77237436 7.00665628 38.125 10.53125 C36.10387795 13.3150016 34.49573638 15.22744611 31.0385437 15.99368286 C28.46973066 16.17689248 25.94620947 16.19799791 23.37109375 16.16015625 C21.964291 16.16377419 21.964291 16.16377419 20.52906799 16.16746521 C18.55131796 16.16648786 16.57354019 16.15312108 14.59594727 16.12817383 C11.56888011 16.0938224 8.54472618 16.10753099 5.51757812 16.12695312 C3.59373758 16.12005563 1.66990456 16.11038412 -0.25390625 16.09765625 C-1.15814835 16.10261612 -2.06239044 16.10757599 -2.99403381 16.11268616 C-9.21754097 15.99597429 -9.21754097 15.99597429 -12.44506836 13.71459961 C-14.55511635 10.49278653 -14.41237305 8.29286138 -13.875 4.53125 C-10.4521565 -0.75902884 -5.70080963 -0.04967326 0 0 Z " fill="#010303" transform="translate(178.875,372.46875)"/>
<path d="M0 0 C0.96147949 -0.0038269 1.92295898 -0.00765381 2.91357422 -0.01159668 C4.9443466 -0.01431602 6.97515399 -0.00695329 9.00585938 0.00976562 C12.1140757 0.03117475 15.21998056 0.00996454 18.328125 -0.015625 C20.30208843 -0.01298173 22.27605043 -0.00785676 24.25 0 C25.17925293 -0.00809692 26.10850586 -0.01619385 27.06591797 -0.02453613 C33.46644854 0.06847065 33.46644854 0.06847065 36.70703125 2.34570312 C38.81851803 5.60018482 38.73348348 7.74513057 38.125 11.53125 C35.27029032 14.74172141 32.95775057 15.78316093 28.78125 16.06469727 C27.06278196 16.09771001 25.34375764 16.10737438 23.625 16.09765625 C22.71169922 16.10385483 21.79839844 16.11005341 20.85742188 16.11643982 C18.9310004 16.1235277 17.00451754 16.12038201 15.078125 16.10766602 C12.1342687 16.09379368 9.19358832 16.12789261 6.25 16.16601562 C4.37499922 16.16696682 2.49999448 16.16510797 0.625 16.16015625 C-0.25220703 16.17341446 -1.12941406 16.18667267 -2.03320312 16.20033264 C-6.45952865 16.13303688 -8.31753864 15.95917991 -11.93359375 13.18334961 C-13.875 10.53125 -13.875 10.53125 -14.4375 7.46875 C-12.89974235 -0.56176219 -6.80151487 -0.05926411 0 0 Z " fill="#010303" transform="translate(107.875,408.46875)"/>
<path d="M0 0 C0.96147949 -0.0038269 1.92295898 -0.00765381 2.91357422 -0.01159668 C4.9443466 -0.01431602 6.97515399 -0.00695329 9.00585938 0.00976562 C12.1140757 0.03117475 15.21998056 0.00996454 18.328125 -0.015625 C20.30208843 -0.01298173 22.27605043 -0.00785676 24.25 0 C25.17925293 -0.00809692 26.10850586 -0.01619385 27.06591797 -0.02453613 C33.46644854 0.06847065 33.46644854 0.06847065 36.70703125 2.34570312 C38.81851803 5.60018482 38.73348348 7.74513057 38.125 11.53125 C35.27029032 14.74172141 32.95775057 15.78316093 28.78125 16.06469727 C27.06278196 16.09771001 25.34375764 16.10737438 23.625 16.09765625 C22.71169922 16.10385483 21.79839844 16.11005341 20.85742188 16.11643982 C18.9310004 16.1235277 17.00451754 16.12038201 15.078125 16.10766602 C12.1342687 16.09379368 9.19358832 16.12789261 6.25 16.16601562 C4.37499922 16.16696682 2.49999448 16.16510797 0.625 16.16015625 C-0.25220703 16.17341446 -1.12941406 16.18667267 -2.03320312 16.20033264 C-6.45952865 16.13303688 -8.31753864 15.95917991 -11.93359375 13.18334961 C-13.875 10.53125 -13.875 10.53125 -14.4375 7.46875 C-12.89974235 -0.56176219 -6.80151487 -0.05926411 0 0 Z " fill="#010303" transform="translate(107.875,372.46875)"/>
<path d="M0 0 C0.96147949 -0.0038269 1.92295898 -0.00765381 2.91357422 -0.01159668 C4.9443466 -0.01431602 6.97515399 -0.00695329 9.00585938 0.00976562 C12.1140757 0.03117475 15.21998056 0.00996454 18.328125 -0.015625 C20.30208843 -0.01298173 22.27605043 -0.00785676 24.25 0 C25.17925293 -0.00809692 26.10850586 -0.01619385 27.06591797 -0.02453613 C33.46644854 0.06847065 33.46644854 0.06847065 36.70703125 2.34570312 C38.81851803 5.60018482 38.73348348 7.74513057 38.125 11.53125 C35.27029032 14.74172141 32.95775057 15.78316093 28.78125 16.06469727 C27.06278196 16.09771001 25.34375764 16.10737438 23.625 16.09765625 C22.71169922 16.10385483 21.79839844 16.11005341 20.85742188 16.11643982 C18.9310004 16.1235277 17.00451754 16.12038201 15.078125 16.10766602 C12.1342687 16.09379368 9.19358832 16.12789261 6.25 16.16601562 C4.37499922 16.16696682 2.49999448 16.16510797 0.625 16.16015625 C-0.25220703 16.17341446 -1.12941406 16.18667267 -2.03320312 16.20033264 C-6.45952865 16.13303688 -8.31753864 15.95917991 -11.93359375 13.18334961 C-13.875 10.53125 -13.875 10.53125 -14.4375 7.46875 C-12.89974235 -0.56176219 -6.80151487 -0.05926411 0 0 Z " fill="#010303" transform="translate(107.875,336.46875)"/>
<path d="M0 0 C0.96147949 -0.0038269 1.92295898 -0.00765381 2.91357422 -0.01159668 C4.9443466 -0.01431602 6.97515399 -0.00695329 9.00585938 0.00976562 C12.1140757 0.03117475 15.21998056 0.00996454 18.328125 -0.015625 C20.30208843 -0.01298173 22.27605043 -0.00785676 24.25 0 C25.17925293 -0.00809692 26.10850586 -0.01619385 27.06591797 -0.02453613 C33.47922506 0.06865631 33.47922506 0.06865631 36.70703125 2.38085938 C38.68456924 5.37985293 38.77237436 7.00665628 38.125 10.53125 C36.11258394 13.28035408 34.50750005 15.21797952 31.08422852 15.99368286 C28.58446101 16.17676638 26.13123102 16.19803572 23.625 16.16015625 C22.25504883 16.16377419 22.25504883 16.16377419 20.85742188 16.16746521 C18.93094531 16.1664879 17.00444027 16.15312193 15.078125 16.12817383 C12.13444326 16.09386008 9.19376411 16.10752153 6.25 16.12695312 C4.37498726 16.12005439 2.49998225 16.11038177 0.625 16.09765625 C-0.25220703 16.10261612 -1.12941406 16.10757599 -2.03320312 16.11268616 C-6.10827699 16.03440169 -8.36390968 15.83481187 -11.93359375 13.71459961 C-13.875 11.53125 -13.875 11.53125 -14.4375 8.03125 C-13.875 4.53125 -13.875 4.53125 -12.45703125 2.34570312 C-8.49423531 -0.43904531 -4.73359134 -0.04124553 0 0 Z " fill="#020304" transform="translate(178.875,300.46875)"/>
<path d="M0 0 C0.96147949 -0.0038269 1.92295898 -0.00765381 2.91357422 -0.01159668 C4.9443466 -0.01431602 6.97515399 -0.00695329 9.00585938 0.00976562 C12.1140757 0.03117475 15.21998056 0.00996454 18.328125 -0.015625 C20.30208843 -0.01298173 22.27605043 -0.00785676 24.25 0 C25.17925293 -0.00809692 26.10850586 -0.01619385 27.06591797 -0.02453613 C33.46644854 0.06847065 33.46644854 0.06847065 36.70703125 2.34570312 C38.81851803 5.60018482 38.73348348 7.74513057 38.125 11.53125 C35.27029032 14.74172141 32.95775057 15.78316093 28.78125 16.06469727 C27.06278196 16.09771001 25.34375764 16.10737438 23.625 16.09765625 C22.71169922 16.10385483 21.79839844 16.11005341 20.85742188 16.11643982 C18.9310004 16.1235277 17.00451754 16.12038201 15.078125 16.10766602 C12.1342687 16.09379368 9.19358832 16.12789261 6.25 16.16601562 C4.37499922 16.16696682 2.49999448 16.16510797 0.625 16.16015625 C-0.25220703 16.17341446 -1.12941406 16.18667267 -2.03320312 16.20033264 C-6.45952865 16.13303688 -8.31753864 15.95917991 -11.93359375 13.18334961 C-13.875 10.53125 -13.875 10.53125 -14.4375 7.46875 C-12.89974235 -0.56176219 -6.80151487 -0.05926411 0 0 Z " fill="#020303" transform="translate(107.875,300.46875)"/>
<path d="M0 0 C0.96147949 -0.0038269 1.92295898 -0.00765381 2.91357422 -0.01159668 C4.9443466 -0.01431602 6.97515399 -0.00695329 9.00585938 0.00976562 C12.1140757 0.03117475 15.21998056 0.00996454 18.328125 -0.015625 C20.30208843 -0.01298173 22.27605043 -0.00785676 24.25 0 C25.17925293 -0.00809692 26.10850586 -0.01619385 27.06591797 -0.02453613 C33.47583107 0.06860699 33.47583107 0.06860699 36.71484375 2.37695312 C38.63724577 5.31380828 38.62756349 7.08510036 38.125 10.53125 C36.34515595 13.6671657 35.60191793 14.37227736 32.125 15.53125 C30.78614948 15.63585617 29.44289817 15.6895448 28.10009766 15.70825195 C26.89336899 15.72750481 26.89336899 15.72750481 25.66226196 15.74714661 C24.36377823 15.75822701 24.36377823 15.75822701 23.0390625 15.76953125 C21.69816055 15.78163887 21.69816055 15.78163887 20.33016968 15.79399109 C18.43888278 15.8078177 16.54757107 15.81854622 14.65625 15.82641602 C11.76774816 15.84364414 8.88038663 15.8875441 5.9921875 15.93164062 C4.15365424 15.94176667 2.31511126 15.95028305 0.4765625 15.95703125 C-0.38504486 15.97453934 -1.24665222 15.99204742 -2.1343689 16.01008606 C-6.19178761 15.99544571 -8.36399364 15.83421254 -11.92431641 13.72338867 C-13.875 11.53125 -13.875 11.53125 -14.4375 8.03125 C-13.875 4.53125 -13.875 4.53125 -12.45703125 2.34570312 C-8.49423531 -0.43904531 -4.73359134 -0.04124553 0 0 Z " fill="#010303" transform="translate(178.875,336.46875)"/>
<path d="M0 0 C7.92 0 15.84 0 24 0 C24 7.59 24 15.18 24 23 C16.08 23 8.16 23 0 23 C0 15.41 0 7.82 0 0 Z " fill="#AAA5AE" transform="translate(377,15)"/>
<path d="M0 0 C7.92 0 15.84 0 24 0 C24 7.59 24 15.18 24 23 C16.08 23 8.16 23 0 23 C0 15.41 0 7.82 0 0 Z " fill="#AAA5AF" transform="translate(312,15)"/>
<path d="M0 0 C7.92 0 15.84 0 24 0 C24 7.59 24 15.18 24 23 C16.08 23 8.16 23 0 23 C0 15.41 0 7.82 0 0 Z " fill="#AAA5AF" transform="translate(176,15)"/>
<path d="M0 0 C7.92 0 15.84 0 24 0 C24 7.59 24 15.18 24 23 C16.08 23 8.16 23 0 23 C0 15.41 0 7.82 0 0 Z " fill="#AAA5AE" transform="translate(111,15)"/>
<path d="M0 0 C6.27 0 12.54 0 19 0 C19 6.27 19 12.54 19 19 C12.73 19 6.46 19 0 19 C0 12.73 0 6.46 0 0 Z " fill="#625A62" transform="translate(381,220)"/>
<path d="M0 0 C6.27 0 12.54 0 19 0 C19 6.27 19 12.54 19 19 C12.73 19 6.46 19 0 19 C0 12.73 0 6.46 0 0 Z " fill="#635B63" transform="translate(347,220)"/>
<path d="M0 0 C6.27 0 12.54 0 19 0 C19 6.27 19 12.54 19 19 C12.73 19 6.46 19 0 19 C0 12.73 0 6.46 0 0 Z " fill="#625B62" transform="translate(313,220)"/>
<path d="M0 0 C6.27 0 12.54 0 19 0 C19 6.27 19 12.54 19 19 C12.73 19 6.46 19 0 19 C0 12.73 0 6.46 0 0 Z " fill="#625A62" transform="translate(279,220)"/>
<path d="M0 0 C6.27 0 12.54 0 19 0 C19 6.27 19 12.54 19 19 C12.73 19 6.46 19 0 19 C0 12.73 0 6.46 0 0 Z " fill="#625A62" transform="translate(214,220)"/>
<path d="M0 0 C6.27 0 12.54 0 19 0 C19 6.27 19 12.54 19 19 C12.73 19 6.46 19 0 19 C0 12.73 0 6.46 0 0 Z " fill="#625B62" transform="translate(180,220)"/>
<path d="M0 0 C6.27 0 12.54 0 19 0 C19 6.27 19 12.54 19 19 C12.73 19 6.46 19 0 19 C0 12.73 0 6.46 0 0 Z " fill="#625B62" transform="translate(146,220)"/>
<path d="M0 0 C6.27 0 12.54 0 19 0 C19 6.27 19 12.54 19 19 C12.73 19 6.46 19 0 19 C0 12.73 0 6.46 0 0 Z " fill="#625A62" transform="translate(112,220)"/>
<path d="M0 0 C6.27 0 12.54 0 19 0 C19 6.27 19 12.54 19 19 C12.73 19 6.46 19 0 19 C0 12.73 0 6.46 0 0 Z " fill="#625A62" transform="translate(78,220)"/>
<path d="M0 0 C6.27 0 12.54 0 19 0 C19 6.27 19 12.54 19 19 C12.73 19 6.46 19 0 19 C0 12.73 0 6.46 0 0 Z " fill="#615A62" transform="translate(415,186)"/>
<path d="M0 0 C6.27 0 12.54 0 19 0 C19 6.27 19 12.54 19 19 C12.73 19 6.46 19 0 19 C0 12.73 0 6.46 0 0 Z " fill="#635B63" transform="translate(381,186)"/>
<path d="M0 0 C6.27 0 12.54 0 19 0 C19 6.27 19 12.54 19 19 C12.73 19 6.46 19 0 19 C0 12.73 0 6.46 0 0 Z " fill="#635B63" transform="translate(347,186)"/>
<path d="M0 0 C6.27 0 12.54 0 19 0 C19 6.27 19 12.54 19 19 C12.73 19 6.46 19 0 19 C0 12.73 0 6.46 0 0 Z " fill="#635B63" transform="translate(313,186)"/>
<path d="M0 0 C6.27 0 12.54 0 19 0 C19 6.27 19 12.54 19 19 C12.73 19 6.46 19 0 19 C0 12.73 0 6.46 0 0 Z " fill="#625B62" transform="translate(279,186)"/>
<path d="M0 0 C6.27 0 12.54 0 19 0 C19 6.27 19 12.54 19 19 C12.73 19 6.46 19 0 19 C0 12.73 0 6.46 0 0 Z " fill="#625B62" transform="translate(214,186)"/>
<path d="M0 0 C6.27 0 12.54 0 19 0 C19 6.27 19 12.54 19 19 C12.73 19 6.46 19 0 19 C0 12.73 0 6.46 0 0 Z " fill="#635B63" transform="translate(180,186)"/>
<path d="M0 0 C6.27 0 12.54 0 19 0 C19 6.27 19 12.54 19 19 C12.73 19 6.46 19 0 19 C0 12.73 0 6.46 0 0 Z " fill="#635B63" transform="translate(146,186)"/>
<path d="M0 0 C6.27 0 12.54 0 19 0 C19 6.27 19 12.54 19 19 C12.73 19 6.46 19 0 19 C0 12.73 0 6.46 0 0 Z " fill="#635B63" transform="translate(112,186)"/>
<path d="M0 0 C6.27 0 12.54 0 19 0 C19 6.27 19 12.54 19 19 C12.73 19 6.46 19 0 19 C0 12.73 0 6.46 0 0 Z " fill="#625B62" transform="translate(78,186)"/>
<path d="M0 0 C6.27 0 12.54 0 19 0 C19 6.27 19 12.54 19 19 C12.73 19 6.46 19 0 19 C0 12.73 0 6.46 0 0 Z " fill="#625A62" transform="translate(415,152)"/>
<path d="M0 0 C6.27 0 12.54 0 19 0 C19 6.27 19 12.54 19 19 C12.73 19 6.46 19 0 19 C0 12.73 0 6.46 0 0 Z " fill="#635B63" transform="translate(381,152)"/>
<path d="M0 0 C6.27 0 12.54 0 19 0 C19 6.27 19 12.54 19 19 C12.73 19 6.46 19 0 19 C0 12.73 0 6.46 0 0 Z " fill="#645C64" transform="translate(347,152)"/>
<path d="M0 0 C6.27 0 12.54 0 19 0 C19 6.27 19 12.54 19 19 C12.73 19 6.46 19 0 19 C0 12.73 0 6.46 0 0 Z " fill="#635C63" transform="translate(313,152)"/>
<path d="M0 0 C6.27 0 12.54 0 19 0 C19 6.27 19 12.54 19 19 C12.73 19 6.46 19 0 19 C0 12.73 0 6.46 0 0 Z " fill="#635B63" transform="translate(279,152)"/>
<path d="M0 0 C6.27 0 12.54 0 19 0 C19 6.27 19 12.54 19 19 C12.73 19 6.46 19 0 19 C0 12.73 0 6.46 0 0 Z " fill="#635B63" transform="translate(214,152)"/>
<path d="M0 0 C6.27 0 12.54 0 19 0 C19 6.27 19 12.54 19 19 C12.73 19 6.46 19 0 19 C0 12.73 0 6.46 0 0 Z " fill="#635C63" transform="translate(180,152)"/>
<path d="M0 0 C6.27 0 12.54 0 19 0 C19 6.27 19 12.54 19 19 C12.73 19 6.46 19 0 19 C0 12.73 0 6.46 0 0 Z " fill="#645C64" transform="translate(146,152)"/>
<path d="M0 0 C6.27 0 12.54 0 19 0 C19 6.27 19 12.54 19 19 C12.73 19 6.46 19 0 19 C0 12.73 0 6.46 0 0 Z " fill="#635B63" transform="translate(112,152)"/>
<path d="M0 0 C6.27 0 12.54 0 19 0 C19 6.27 19 12.54 19 19 C12.73 19 6.46 19 0 19 C0 12.73 0 6.46 0 0 Z " fill="#635B63" transform="translate(78,152)"/>
<path d="M0 0 C6.27 0 12.54 0 19 0 C19 6.27 19 12.54 19 19 C12.73 19 6.46 19 0 19 C0 12.73 0 6.46 0 0 Z " fill="#625B62" transform="translate(415,118)"/>
<path d="M0 0 C6.27 0 12.54 0 19 0 C19 6.27 19 12.54 19 19 C12.73 19 6.46 19 0 19 C0 12.73 0 6.46 0 0 Z " fill="#645C64" transform="translate(381,118)"/>
<path d="M0 0 C6.27 0 12.54 0 19 0 C19 6.27 19 12.54 19 19 C12.73 19 6.46 19 0 19 C0 12.73 0 6.46 0 0 Z " fill="#645C64" transform="translate(347,118)"/>
<path d="M0 0 C6.27 0 12.54 0 19 0 C19 6.27 19 12.54 19 19 C12.73 19 6.46 19 0 19 C0 12.73 0 6.46 0 0 Z " fill="#645C64" transform="translate(313,118)"/>
<path d="M0 0 C6.27 0 12.54 0 19 0 C19 6.27 19 12.54 19 19 C12.73 19 6.46 19 0 19 C0 12.73 0 6.46 0 0 Z " fill="#635B63" transform="translate(279,118)"/>
<path d="M0 0 C6.27 0 12.54 0 19 0 C19 6.27 19 12.54 19 19 C12.73 19 6.46 19 0 19 C0 12.73 0 6.46 0 0 Z " fill="#635B63" transform="translate(214,118)"/>
<path d="M0 0 C6.27 0 12.54 0 19 0 C19 6.27 19 12.54 19 19 C12.73 19 6.46 19 0 19 C0 12.73 0 6.46 0 0 Z " fill="#645C64" transform="translate(180,118)"/>
<path d="M0 0 C6.27 0 12.54 0 19 0 C19 6.27 19 12.54 19 19 C12.73 19 6.46 19 0 19 C0 12.73 0 6.46 0 0 Z " fill="#645C64" transform="translate(146,118)"/>
<path d="M0 0 C6.27 0 12.54 0 19 0 C19 6.27 19 12.54 19 19 C12.73 19 6.46 19 0 19 C0 12.73 0 6.46 0 0 Z " fill="#645C64" transform="translate(112,118)"/>
<path d="M0 0 C6.27 0 12.54 0 19 0 C19 6.27 19 12.54 19 19 C12.73 19 6.46 19 0 19 C0 12.73 0 6.46 0 0 Z " fill="#635B63" transform="translate(78,118)"/>
<path d="M0 0 C6.27 0 12.54 0 19 0 C19 6.27 19 12.54 19 19 C12.73 19 6.46 19 0 19 C0 12.73 0 6.46 0 0 Z " fill="#635B63" transform="translate(415,84)"/>
<path d="M0 0 C6.27 0 12.54 0 19 0 C19 6.27 19 12.54 19 19 C12.73 19 6.46 19 0 19 C0 12.73 0 6.46 0 0 Z " fill="#645C64" transform="translate(381,84)"/>
<path d="M0 0 C6.27 0 12.54 0 19 0 C19 6.27 19 12.54 19 19 C12.73 19 6.46 19 0 19 C0 12.73 0 6.46 0 0 Z " fill="#655D65" transform="translate(347,84)"/>
<path d="M0 0 C6.27 0 12.54 0 19 0 C19 6.27 19 12.54 19 19 C12.73 19 6.46 19 0 19 C0 12.73 0 6.46 0 0 Z " fill="#645D64" transform="translate(313,84)"/>
<path d="M0 0 C6.27 0 12.54 0 19 0 C19 6.27 19 12.54 19 19 C12.73 19 6.46 19 0 19 C0 12.73 0 6.46 0 0 Z " fill="#645C64" transform="translate(279,84)"/>
<path d="M0 0 C6.27 0 12.54 0 19 0 C19 6.27 19 12.54 19 19 C12.73 19 6.46 19 0 19 C0 12.73 0 6.46 0 0 Z " fill="#645C64" transform="translate(214,84)"/>
<path d="M0 0 C6.27 0 12.54 0 19 0 C19 6.27 19 12.54 19 19 C12.73 19 6.46 19 0 19 C0 12.73 0 6.46 0 0 Z " fill="#645D64" transform="translate(180,84)"/>
<path d="M0 0 C6.27 0 12.54 0 19 0 C19 6.27 19 12.54 19 19 C12.73 19 6.46 19 0 19 C0 12.73 0 6.46 0 0 Z " fill="#655D65" transform="translate(146,84)"/>
<path d="M0 0 C6.27 0 12.54 0 19 0 C19 6.27 19 12.54 19 19 C12.73 19 6.46 19 0 19 C0 12.73 0 6.46 0 0 Z " fill="#645C64" transform="translate(112,84)"/>
<path d="M0 0 C6.27 0 12.54 0 19 0 C19 6.27 19 12.54 19 19 C12.73 19 6.46 19 0 19 C0 12.73 0 6.46 0 0 Z " fill="#645C64" transform="translate(78,84)"/>
<path d="M0 0 C5.94 0 11.88 0 18 0 C18 5.94 18 11.88 18 18 C12.06 18 6.12 18 0 18 C0 12.06 0 6.12 0 0 Z " fill="#655D65" transform="translate(415,220)"/>
<path d="M0 0 C3.63 0 7.26 0 11 0 C11 7.59 11 15.18 11 23 C7.37 23 3.74 23 0 23 C0 15.41 0 7.82 0 0 Z " fill="#605860" transform="translate(416,15)"/>
<path d="M0 0 C3.63 0 7.26 0 11 0 C11 7.59 11 15.18 11 23 C7.37 23 3.74 23 0 23 C0 15.41 0 7.82 0 0 Z " fill="#625A62" transform="translate(351,15)"/>
<path d="M0 0 C3.63 0 7.26 0 11 0 C11 7.59 11 15.18 11 23 C7.37 23 3.74 23 0 23 C0 15.41 0 7.82 0 0 Z " fill="#605860" transform="translate(286,15)"/>
<path d="M0 0 C3.63 0 7.26 0 11 0 C11 7.59 11 15.18 11 23 C7.37 23 3.74 23 0 23 C0 15.41 0 7.82 0 0 Z " fill="#605860" transform="translate(215,15)"/>
<path d="M0 0 C3.63 0 7.26 0 11 0 C11 7.59 11 15.18 11 23 C7.37 23 3.74 23 0 23 C0 15.41 0 7.82 0 0 Z " fill="#625A62" transform="translate(150,15)"/>
<path d="M0 0 C3.63 0 7.26 0 11 0 C11 7.59 11 15.18 11 23 C7.37 23 3.74 23 0 23 C0 15.41 0 7.82 0 0 Z " fill="#605860" transform="translate(85,15)"/>
</svg>
