<?xml version="1.0" encoding="UTF-8"?>
<svg version="1.1" xmlns="http://www.w3.org/2000/svg" width="512" height="512">
<path d="M0 0 C1.01825867 -0.01283524 2.03651733 -0.02567047 3.08563232 -0.03889465 C4.18562561 -0.04628159 5.2856189 -0.05366852 6.41894531 -0.0612793 C8.11896698 -0.07338692 8.11896698 -0.07338692 9.85333252 -0.08573914 C12.25409415 -0.09957706 14.65487543 -0.11030052 17.05566406 -0.11816406 C20.71880603 -0.13536532 24.38104284 -0.17925435 28.04394531 -0.22338867 C30.37727201 -0.23351676 32.71060638 -0.2420325 35.04394531 -0.2487793 C36.68178986 -0.27504143 36.68178986 -0.27504143 38.35272217 -0.30183411 C44.81305853 -0.28349988 48.74964458 0.31826302 53.99707031 4.17700195 C57.799587 8.27971733 59.13006208 11.29729414 59.09472656 16.8449707 C59.09150391 17.73764648 59.08828125 18.63032227 59.08496094 19.55004883 C59.07658203 20.47881836 59.06820313 21.40758789 59.05957031 22.36450195 C59.05505859 23.30487305 59.05054688 24.24524414 59.04589844 25.21411133 C59.03411657 27.53513908 59.01766589 29.8560384 58.99707031 32.17700195 C59.6020636 32.16811951 60.20705688 32.15923706 60.8303833 32.15008545 C67.12429359 32.06162602 73.41802744 32.00127354 79.71240234 31.95727539 C82.06175916 31.93715381 84.41106585 31.90985344 86.76025391 31.87524414 C90.13619346 31.82675156 93.51147117 31.80403838 96.88769531 31.78637695 C97.93886536 31.76573181 98.9900354 31.74508667 100.07305908 31.72381592 C107.32907056 31.72158059 107.32907056 31.72158059 110.69140625 34.01391602 C111.99707031 36.17700195 111.99707031 36.17700195 111.99707031 39.17700195 C118.59707031 39.17700195 125.19707031 39.17700195 131.99707031 39.17700195 C132.32707031 37.52700195 132.65707031 35.87700195 132.99707031 34.17700195 C136.46362017 31.86596871 137.8264336 31.91552716 141.91796875 31.88647461 C143.13643494 31.8737149 144.35490112 31.8609552 145.61029053 31.84780884 C146.92902161 31.84558319 148.24775269 31.84335754 149.60644531 31.84106445 C150.97544494 31.83463512 152.34444319 31.82790666 153.71343994 31.82089233 C156.58503399 31.80891507 159.45650773 31.80521174 162.328125 31.80639648 C165.99447071 31.8065992 169.66003713 31.77934948 173.32619858 31.74485207 C176.15565476 31.72252461 178.98492552 31.71856078 181.81446075 31.71961594 C183.81905361 31.71612949 185.82358857 31.69449483 187.82806396 31.67251587 C194.7560213 31.70714375 199.4269438 31.8925166 204.99707031 36.17700195 C210.78780084 42.28074494 211.36019289 47.91879055 211.37207031 55.98950195 C211.3965625 56.85381836 211.42105469 57.71813477 211.44628906 58.60864258 C211.47355146 64.62908975 210.41485972 69.15896281 206.99707031 74.17700195 C204.49707031 76.55200195 204.49707031 76.55200195 201.99707031 78.17700195 C201.37832031 78.58950195 200.75957031 79.00200195 200.12207031 79.42700195 C197.0821788 80.49990484 194.19630744 80.2215389 190.99707031 80.17700195 C191.04155898 85.81517355 191.11173891 91.4522608 191.20458984 97.08984375 C191.23262034 99.00316688 191.25392296 100.91660195 191.26806641 102.83007812 C191.39436805 118.95879789 192.79489632 130.97780496 204.67041016 142.84985352 C206.60989854 144.75337855 208.5533542 146.65279481 210.49707031 148.55200195 C216.33857018 154.27112205 221.19724786 159.86522238 224.99707031 167.17700195 C225.40183594 167.94399414 225.80660156 168.71098633 226.22363281 169.5012207 C230.90555527 179.15137023 231.2870304 188.95525235 231.22412109 199.52124023 C231.22441315 200.81992538 231.2247052 202.11861053 231.2250061 203.45664978 C231.22557554 206.98699347 231.21388825 210.51719883 231.19985819 214.04751062 C231.18728192 217.74837177 231.18617493 221.44923675 231.18380737 225.15011597 C231.17761274 232.14446677 231.16122948 239.1387544 231.14110839 246.1330775 C231.1186863 254.10170994 231.10774015 262.07034553 231.09771752 270.0390017 C231.07686126 286.41837199 231.04172488 302.79767888 230.99707031 319.17700195 C232.26776367 319.15951904 233.53845703 319.14203613 234.84765625 319.12402344 C238.2214675 319.07760465 240.35856483 319.35226412 243.24707031 321.23950195 C243.87097656 321.62235352 244.49488281 322.00520508 245.13769531 322.3996582 C249.64676191 326.70979539 251.23041672 330.71245481 251.49827576 336.83778381 C251.51891902 339.10058334 251.51760129 341.36364944 251.4987793 343.62646484 C251.50688377 345.48622704 251.50688377 345.48622704 251.51515198 347.38356018 C251.52548536 350.76809527 251.51797424 354.15164592 251.50144076 357.53609395 C251.48753923 361.08603215 251.49405601 364.6359422 251.49757385 368.18589783 C251.50027161 374.14501131 251.48683676 380.10392286 251.46362305 386.06298828 C251.43700369 392.94375107 251.43527163 399.82417663 251.44701141 406.70497328 C251.45780487 413.33702965 251.45159065 419.96896453 251.43745613 426.60101128 C251.43171111 429.41787032 251.43176723 432.23464002 251.43652153 435.05150032 C251.44219681 438.98677372 251.42293764 442.92171208 251.40112305 446.85693359 C251.40787552 448.60342194 251.40787552 448.60342194 251.4147644 450.38519287 C251.3535056 457.03480994 250.98196901 461.94110041 246.27832031 467.0402832 C245.69050781 467.51852539 245.10269531 467.99676758 244.49707031 468.48950195 C243.90925781 468.98063477 243.32144531 469.47176758 242.71582031 469.9777832 C239.62762602 472.13250059 236.9510491 472.29227701 233.30957031 472.23950195 C232.50132812 472.23047852 231.69308594 472.22145508 230.86035156 472.2121582 C229.93802734 472.19475586 229.93802734 472.19475586 228.99707031 472.17700195 C228.88878906 473.26883789 228.78050781 474.36067383 228.66894531 475.4855957 C227.9922811 480.85987111 226.64966803 486.01517965 225.24707031 491.23950195 C225.00730469 492.19405273 224.76753906 493.14860352 224.52050781 494.13208008 C222.67992356 501.00580837 220.70891315 506.96940054 214.3661499 510.74172974 C210.49486493 512.39094805 207.72498814 512.56361731 203.52636719 512.58105469 C202.44223289 512.59134956 202.44223289 512.59134956 201.3361969 512.60185242 C198.96253454 512.62005697 196.58953705 512.61629273 194.21582031 512.6105957 C192.55724881 512.61516012 190.89867919 512.62046647 189.2401123 512.6264801 C185.77018532 512.63539837 182.30048867 512.63300227 178.83056641 512.62304688 C174.39185879 512.61155053 169.95394595 512.63178488 165.51534271 512.66096401 C162.09229515 512.67933968 158.66943767 512.67903101 155.24635315 512.67332649 C153.61014185 512.67317349 151.97391749 512.67920058 150.3377533 512.69161797 C148.04725728 512.70655523 145.75822475 512.69583327 143.46777344 512.67871094 C141.51635437 512.67846169 141.51635437 512.67846169 139.5255127 512.6782074 C134.29953421 511.93587166 130.48892389 509.24389866 127.18457031 505.17700195 C123.95297321 500.74509735 123.87284989 497.51796855 123.89941406 492.09887695 C123.90191162 491.053125 123.90440918 490.00737305 123.90698242 488.92993164 C123.91608643 487.60896484 123.92519043 486.28799805 123.93457031 484.92700195 C123.95519531 480.71950195 123.97582031 476.51200195 123.99707031 472.17700195 C112.11707031 472.17700195 100.23707031 472.17700195 87.99707031 472.17700195 C87.13082031 476.22981445 87.13082031 476.22981445 86.24707031 480.36450195 C80.87636326 504.58757643 80.87636326 504.58757643 73.99707031 510.17700195 C71.15962881 511.81782464 69.10500338 512.42902155 65.83596802 512.44442749 C65.01455322 512.45295746 64.19313843 512.46148743 63.34683228 512.47027588 C62.45426727 512.46936951 61.56170227 512.46846313 60.64208984 512.4675293 C59.69529358 512.47424652 58.74849731 512.48096375 57.77301025 512.48788452 C54.64191444 512.50688831 51.51103271 512.51078992 48.37988281 512.51293945 C46.20278841 512.51936566 44.02569487 512.52609388 41.84860229 512.53311157 C37.28397621 512.54509025 32.71942585 512.54879178 28.15478516 512.54760742 C22.30813975 512.54740419 16.46198017 512.5747087 10.61544991 512.60915184 C6.11841607 512.63139825 1.62149958 512.63544565 -2.87558365 512.63438797 C-5.03094279 512.63674724 -7.186305 512.64558903 -9.34160995 512.6610527 C-12.35780532 512.68066675 -15.37294754 512.67489233 -18.38916016 512.6628418 C-19.2776767 512.67408081 -20.16619324 512.68531982 -21.08163452 512.69689941 C-26.55408562 512.64139126 -29.65333562 511.80649812 -34.00292969 508.17700195 C-42.32477738 499.32059113 -43.55090976 483.64895234 -46.00292969 472.17700195 C-57.88292969 472.17700195 -69.76292969 472.17700195 -82.00292969 472.17700195 C-81.88478792 480.4186411 -81.88478792 480.4186411 -81.73266602 488.65966797 C-81.68029477 495.91674572 -81.72366921 501.51065728 -86.75683594 507.13793945 C-87.35367188 507.60458008 -87.95050781 508.0712207 -88.56542969 508.55200195 C-89.46455078 509.27516602 -89.46455078 509.27516602 -90.38183594 510.01293945 C-93.93334076 512.56317665 -96.66005652 512.32128356 -101.00366211 512.35400391 C-102.0845108 512.3638607 -102.0845108 512.3638607 -103.18719482 512.37391663 C-105.57759706 512.39366428 -107.96793634 512.40531744 -110.35839844 512.4152832 C-111.17526941 512.41935873 -111.99214039 512.42343426 -112.83376503 512.42763329 C-117.16008884 512.44850355 -121.48638086 512.46279925 -125.81274414 512.47216797 C-130.27381452 512.48321474 -134.73438365 512.51759148 -139.19527721 512.55733967 C-142.63119916 512.58353829 -146.06700249 512.59186283 -149.50301552 512.59544945 C-151.14679652 512.60030962 -152.79057242 512.61190742 -154.4342556 512.63048744 C-156.74164342 512.65494168 -159.04774579 512.65390274 -161.35522461 512.64697266 C-162.66601486 512.6528389 -163.97680511 512.65870514 -165.32731628 512.66474915 C-170.76335856 511.94339625 -174.4734128 509.86380958 -178.20605469 505.74731445 C-180.89492345 500.40464913 -182.2721478 494.8289579 -183.75292969 489.05200195 C-184.06875 487.87250977 -184.38457031 486.69301758 -184.70996094 485.4777832 C-187.00292969 476.75259043 -187.00292969 476.75259043 -187.00292969 472.17700195 C-187.58300781 472.21180664 -188.16308594 472.24661133 -188.76074219 472.2824707 C-193.9868864 472.46357471 -197.56092527 472.23704944 -202.00292969 469.17700195 C-206.81252944 464.40127262 -209.11539933 460.93097349 -209.15682983 454.01069641 C-209.1654303 452.94112198 -209.17403076 451.87154755 -209.18289185 450.76956177 C-209.18715179 449.59602142 -209.19141174 448.42248108 -209.19580078 447.21337891 C-209.20397827 445.97733414 -209.21215576 444.74128937 -209.22058105 443.4677887 C-209.24544478 439.36695682 -209.26210775 435.26616183 -209.27636719 431.1652832 C-209.28172842 429.75171592 -209.28710594 428.33814869 -209.29249954 426.92458153 C-209.31412582 421.04230413 -209.33286053 415.16002944 -209.34412193 409.27772236 C-209.36034835 400.85831028 -209.39349651 392.43936061 -209.45052278 384.02012283 C-209.48928335 378.09472096 -209.50876193 372.16944244 -209.5140425 366.24391717 C-209.51768823 362.70780929 -209.52962482 359.17219492 -209.56214523 355.63622475 C-209.59794977 351.68654609 -209.5938394 347.73744281 -209.58642578 343.78759766 C-209.60283112 342.62417847 -209.61923645 341.46075928 -209.63613892 340.26208496 C-209.58314489 333.35839347 -208.72316216 328.41793708 -204.00292969 323.17700195 C-200.57371749 320.23425076 -197.28831618 318.97094053 -192.77246094 319.08325195 C-191.52851563 319.11418945 -190.28457031 319.14512695 -189.00292969 319.17700195 C-189.00569507 318.50353887 -189.00846045 317.83007578 -189.01130962 317.13620472 C-189.07775104 300.69996334 -189.1272982 284.26376487 -189.1583662 267.82742023 C-189.1737923 259.87871266 -189.1947997 251.93009509 -189.22924805 243.98144531 C-189.25928153 237.04814136 -189.27853558 230.11490263 -189.28519517 223.18153542 C-189.28908398 219.51512487 -189.29813274 215.84890082 -189.32011986 212.18255043 C-189.34454653 208.07555726 -189.34489081 203.96888211 -189.34350586 199.86181641 C-189.35429169 198.66490677 -189.36507751 197.46799713 -189.37619019 196.2348175 C-189.30701816 177.16462149 -182.65272919 162.92357339 -169.42138672 149.58374023 C-167.17024869 147.35120025 -164.89666358 145.14163787 -162.62792969 142.92700195 C-153.43726119 133.79459443 -149.58825407 124.243883 -149.49121094 111.3293457 C-149.47325974 110.43204239 -149.45530853 109.53473907 -149.43681335 108.61024475 C-149.38315638 105.77837659 -149.34895935 102.94667253 -149.31542969 100.11450195 C-149.28221712 98.18023453 -149.24772389 96.24598866 -149.21191406 94.31176758 C-149.12745622 89.60029838 -149.06043416 84.88887406 -149.00292969 80.17700195 C-150.11514893 80.19142334 -151.22736816 80.20584473 -152.37329102 80.22070312 C-157.01086379 80.16486634 -159.39652484 78.9401181 -163.00292969 76.17700195 C-168.79366021 70.07325897 -169.36605226 64.43521335 -169.37792969 56.36450195 C-169.40242188 55.50018555 -169.42691406 54.63586914 -169.45214844 53.74536133 C-169.48222176 47.10416948 -168.20500266 41.54827088 -163.51977539 36.61547852 C-159.18621292 32.83994009 -155.96456188 32.05169841 -150.3651886 32.05674744 C-149.19149719 32.05537277 -148.01780579 32.05399811 -146.80854797 32.05258179 C-145.51958115 32.05617706 -144.23061432 32.05977234 -142.90258789 32.06347656 C-141.53270469 32.06375861 -140.16282134 32.06360036 -138.79293823 32.06303406 C-135.07214696 32.06274677 -131.35138782 32.06863247 -127.63060403 32.07560802 C-123.74284798 32.08185292 -119.85509122 32.08244625 -115.96733093 32.08363342 C-108.60444412 32.08674338 -101.24157213 32.09495226 -93.87869185 32.10498291 C-85.49667981 32.11615445 -77.11466707 32.12165713 -68.73264945 32.12667835 C-51.48940095 32.13713514 -34.24616688 32.1547281 -17.00292969 32.17700195 C-17.02387695 31.60780029 -17.04482422 31.03859863 -17.06640625 30.45214844 C-17.15023962 27.83978379 -17.20179787 25.22770311 -17.25292969 22.61450195 C-17.28644531 21.71924805 -17.31996094 20.82399414 -17.35449219 19.90161133 C-17.44487471 13.73300432 -16.61121356 10.21808342 -13.00292969 5.17700195 C-8.78275681 1.26562221 -5.68397694 0.062449 0 0 Z " fill="#020202" transform="translate(235.0029296875,-0.177001953125)"/>
<path d="M0 0 C28.38 0 56.76 0 86 0 C86 50.17988861 86 50.17988861 72.72265625 63.52734375 C71.1758996 65.00436889 69.62234789 66.47430694 68.0625 67.9375 C56.16000559 79.50602323 46.71784981 92.5059419 45.8613348 109.79977989 C45.85488225 110.76766253 45.8484297 111.73554516 45.84178162 112.73275757 C45.8319928 113.85167389 45.82220398 114.97059021 45.81211853 116.12341309 C45.80636307 117.33613892 45.8006076 118.54886475 45.79467773 119.79833984 C45.78477814 121.08668732 45.77487854 122.37503479 45.76467896 123.7024231 C45.73773784 127.22259712 45.71667015 130.7427844 45.69667697 134.26300383 C45.67475051 137.94656993 45.64739452 141.63009567 45.62062073 145.31362915 C45.57078363 152.28326957 45.52581163 159.2529325 45.48259836 166.22261679 C45.43314903 174.15975368 45.37825953 182.09685005 45.32291877 190.03394771 C45.2092367 206.35592775 45.10236788 222.67794499 45 239 C44.01604248 239.01458252 43.03208496 239.02916504 42.01831055 239.04418945 C38.36706226 239.10216998 34.71643089 239.17940185 31.06567383 239.26245117 C29.48569757 239.29570188 27.90560248 239.32373346 26.32543945 239.34643555 C24.05368421 239.37998016 21.78301797 239.43229227 19.51171875 239.48828125 C18.45219246 239.49786613 18.45219246 239.49786613 17.3712616 239.50764465 C14.50421748 239.59357095 12.46692026 239.6849123 10.05395508 241.31323242 C8.25758437 244.18817457 8.64886031 246.7226962 9 250 C10.08717041 251.80915536 10.08717041 251.80915536 12 253 C14.73912766 253.45296139 14.73912766 253.45296139 17.90772343 253.37917423 C19.1490686 253.38739738 20.39041378 253.39562052 21.66937548 253.40409285 C23.05441087 253.39808068 24.43944509 253.39179628 25.82447815 253.38526917 C27.28995013 253.38927371 28.755419 253.39459857 30.22088188 253.40113491 C34.25786468 253.41533421 38.29464706 253.41083941 42.33164012 253.40342176 C46.68138023 253.39869572 51.03107329 253.41123255 55.38079834 253.42178345 C62.92074895 253.43778237 70.46064579 253.44303211 78.00061226 253.44125557 C88.90439049 253.43887606 99.80808251 253.4548373 110.71183824 253.47570812 C128.40415866 253.50925835 146.09647139 253.53090479 163.78881836 253.54370117 C164.84826548 253.54447066 165.9077126 253.54524015 166.99926417 253.54603296 C171.29237352 253.54913545 175.58548288 253.55221827 179.87859226 253.555273 C191.69958097 253.56380479 203.52056703 253.57470471 215.34155273 253.58666992 C216.92924941 253.58827195 216.92924941 253.58827195 218.54902077 253.58990634 C236.17507093 253.60797644 253.8011027 253.63395568 271.42713493 253.66480106 C282.30846801 253.68339162 293.18975985 253.69427306 304.07110905 253.69532298 C311.52135703 253.69642352 318.9715767 253.70434297 326.42181272 253.71770663 C330.72579151 253.72515137 335.0297084 253.72919788 339.33369255 253.72458839 C343.26833985 253.72041461 347.20286548 253.72526779 351.13749503 253.73749625 C352.56609654 253.74027968 353.99470942 253.73962582 355.42330713 253.73531515 C357.35490692 253.72995435 359.28653033 253.73791071 361.21811771 253.74666691 C362.29413779 253.74731901 363.37015787 253.74797112 364.47878462 253.74864298 C367 254 367 254 369 256 C369.14507695 258.74485593 369.18652423 261.38480543 369.125 264.125 C369.11597656 264.87910156 369.10695313 265.63320313 369.09765625 266.41015625 C369.0740687 268.27357254 369.03819719 270.13682593 369 272 C367.55753151 272.00213753 367.55753151 272.00213753 366.08592224 272.00431824 C357.00801153 272.02101273 347.93054768 272.06386099 338.8528738 272.13209057 C334.18627476 272.16633118 329.52000208 272.19146598 324.85327148 272.19555664 C320.34663818 272.1998459 315.8407407 272.22836025 311.33433723 272.27343178 C309.61806594 272.2863868 307.90170649 272.29072153 306.18539238 272.28615379 C303.77440549 272.28123327 301.36555735 272.30740042 298.95483398 272.34057617 C298.25064331 272.33195053 297.54645264 272.32332489 296.82092285 272.31443787 C291.31063694 272.44093582 287.83041508 274.20292884 284 278 C281.2631585 282.17260173 280.62056983 285.40982606 280.59594727 290.35327148 C280.58326309 291.59153183 280.57057892 292.82979218 280.55751038 294.10557556 C280.55956211 295.44408334 280.56255038 296.78258996 280.56640625 298.12109375 C280.5618395 299.50822708 280.55653246 300.89535814 280.55052185 302.28248596 C280.54161032 305.18329079 280.54399111 308.08382002 280.55395508 310.98461914 C280.56544083 314.68791035 280.5452308 318.39024742 280.51603794 322.09341335 C280.49762345 324.95634425 280.49797874 327.8190487 280.50367546 330.682024 C280.50382805 332.04667563 280.49783587 333.41134321 280.48538399 334.77593803 C280.26040763 345.17273671 280.26040763 345.17273671 285 354 C290.01783128 357.40653412 293.7602837 358.59007995 299.86303711 358.54589844 C300.61508423 358.55623611 301.36713135 358.56657379 302.14196777 358.57722473 C304.60398238 358.60649646 307.06516933 358.60814851 309.52734375 358.609375 C311.24371392 358.62436729 312.96006971 358.64109664 314.67640686 358.65948486 C319.17592048 358.7030531 323.67523952 358.723134 328.17492676 358.73822021 C332.77363541 358.7578294 337.37213509 358.79979507 341.97070312 358.83984375 C350.98040412 358.91503169 359.99005809 358.96539216 369 359 C369.05382106 361.62527189 369.09358313 364.24944713 369.125 366.875 C369.14175781 367.62136719 369.15851563 368.36773437 369.17578125 369.13671875 C369.1933959 371.09194461 369.10320189 373.04742021 369 375 C366.12564158 377.87435842 364.1352813 377.25066996 360.10649109 377.25168228 C359.3855354 377.25458916 358.66457972 377.25749604 357.92177689 377.26049101 C355.48121577 377.26784921 353.04090151 377.26082083 350.6003418 377.25396729 C348.8428748 377.25626942 347.08540876 377.25944428 345.32794476 377.26342177 C340.47922831 377.27181237 335.63059005 377.26762526 330.78187323 377.26144934 C325.56027526 377.25694319 320.33869119 377.26389943 315.11709595 377.26940918 C304.88035768 377.27832456 294.64364866 377.27637165 284.40690923 377.2705839 C276.09079958 377.26607582 267.77469816 377.26545079 259.45858765 377.26763153 C257.68640445 377.26809123 257.68640445 377.26809123 255.87841958 377.26856022 C253.4786721 377.26919964 251.07892463 377.26984806 248.67917717 377.2705054 C226.1516297 377.27621497 203.62409848 377.26964097 181.09655368 377.25890467 C161.74697817 377.24996859 142.39742664 377.25152045 123.04785156 377.26074219 C100.60352209 377.27143375 78.15920688 377.27566559 55.71487522 377.26951766 C53.32372093 377.26888053 50.93256664 377.26825179 48.54141235 377.26763153 C47.36477278 377.26732298 46.18813321 377.26701443 44.97583789 377.26669653 C36.6651527 377.26496624 28.35447652 377.26789186 20.04379272 377.27259064 C9.92239871 377.27818712 -0.19896426 377.27670909 -10.3203547 377.26602915 C-15.48911387 377.26075577 -20.6578212 377.25874388 -25.82658005 377.26532745 C-30.55138783 377.27125475 -35.27609536 377.26806552 -40.00089395 377.25737235 C-41.71687354 377.25512456 -43.43286148 377.25630515 -45.14883578 377.26112393 C-47.46817736 377.26714114 -49.78716833 377.26103375 -52.10649109 377.25168228 C-53.39873439 377.25135758 -54.69097769 377.25103287 -56.02237988 377.25069833 C-59 377 -59 377 -61 375 C-61.14507695 372.25514407 -61.18652423 369.61519457 -61.125 366.875 C-61.11597656 366.12089844 -61.10695312 365.36679687 -61.09765625 364.58984375 C-61.0740687 362.72642746 -61.03819719 360.86317407 -61 359 C-60.0656311 358.99635437 -59.13126221 358.99270874 -58.1685791 358.98895264 C-49.34117882 358.95192994 -40.51412503 358.89407815 -31.68698883 358.81609726 C-27.1493846 358.77667333 -22.61197294 358.74446003 -18.07421875 358.72900391 C-13.69084064 358.71380366 -9.30799216 358.67929888 -4.92485046 358.63169098 C-3.25685747 358.61691178 -1.58878884 358.60896098 0.07926941 358.60811615 C12.23517628 358.89336332 12.23517628 358.89336332 23 354 C28.34854362 347.78572876 27.5960817 340.69510225 27.56640625 332.81640625 C27.57164979 331.43309615 27.57792893 330.04978963 27.58518982 328.66648865 C27.59556249 325.77577824 27.59107891 322.88556104 27.57641602 319.99487305 C27.55923752 316.30830596 27.58272532 312.62329897 27.61790562 308.93690586 C27.63997107 306.08247239 27.6384163 303.22840697 27.6301403 300.37391472 C27.62893237 298.35995787 27.64877526 296.34602341 27.66908264 294.33216858 C27.6038594 287.88895638 27.30373573 282.96523584 23.65757751 277.53965759 C19.07710188 273.2850366 14.27453729 272.55524922 8.25048828 272.56762695 C7.49858719 272.5574353 6.7466861 272.54724365 5.97200012 272.53674316 C3.50469403 272.50672413 1.03777687 272.49736448 -1.4296875 272.48828125 C-3.14748412 272.47142629 -4.86526847 272.45327495 -6.58303833 272.43388367 C-11.09074061 272.38646611 -15.59839312 272.35660354 -20.10626221 272.33044434 C-24.71156643 272.30059712 -29.31669932 272.2540811 -33.921875 272.20898438 C-42.94782689 272.12304513 -51.97381413 272.05565821 -61 272 C-61.05382106 269.37472811 -61.09358313 266.75055287 -61.125 264.125 C-61.14175781 263.37863281 -61.15851562 262.63226563 -61.17578125 261.86328125 C-61.1933959 259.90805539 -61.10320189 257.95257979 -61 256 C-58.63458583 253.63458583 -58.17360121 253.74748199 -54.96508789 253.72875977 C-53.71853172 253.71347984 -53.71853172 253.71347984 -52.4467926 253.69789124 C-51.54782761 253.69575119 -50.64886261 253.69361115 -49.72265625 253.69140625 C-47.82877293 253.66624905 -45.93489279 253.64085098 -44.04101562 253.61523438 C-41.04761558 253.58645878 -38.05427085 253.56244846 -35.06079102 253.54370117 C-32.17695423 253.52209317 -29.29376898 253.48265891 -26.41015625 253.44140625 C-25.51321548 253.44129044 -24.61627472 253.44117462 -23.69215393 253.4410553 C-22.44086952 253.42104713 -22.44086952 253.42104713 -21.16430664 253.40063477 C-20.4308754 253.39556412 -19.69744415 253.39049347 -18.94178772 253.38526917 C-16.41497388 252.88392525 -15.53131444 252.04692218 -14 250 C-13.41666667 246.5 -13.41666667 246.5 -14 243 C-16.96753296 240.03547062 -19.31017633 239.6024951 -23.421875 239.48828125 C-24.44667969 239.45283203 -25.47148438 239.41738281 -26.52734375 239.38085938 C-28.12255859 239.34702148 -28.12255859 239.34702148 -29.75 239.3125 C-30.82894531 239.27833984 -31.90789062 239.24417969 -33.01953125 239.20898438 C-35.67958377 239.12659337 -38.33931035 239.05741355 -41 239 C-41.09371848 222.14428018 -41.16411328 205.28864245 -41.20724869 188.43272114 C-41.22781552 180.60504219 -41.25582259 172.77752576 -41.30175781 164.94995117 C-41.34180682 158.12212211 -41.36747547 151.29441083 -41.37635398 144.46646756 C-41.38153843 140.85588211 -41.39359844 137.24563343 -41.42292023 133.63515663 C-41.45549839 129.59036369 -41.45594795 125.54614466 -41.45410156 121.5012207 C-41.46848267 120.32301254 -41.48286377 119.14480438 -41.49768066 117.93089294 C-41.41376843 100.83723337 -34.77403346 89.65203989 -23.01660156 77.97192383 C-21.62587476 76.61021014 -20.2246815 75.25907482 -18.81152344 73.9206543 C2.04903146 53.87472691 -0.69411948 28.4588987 0 0 Z " fill="#8ED6F6" transform="translate(102,80)"/>
<path d="M0 0 C34.98 0 69.96 0 106 0 C106.33 13.53 106.66 27.06 107 41 C113.1809225 59.54276749 118.2970073 67.48887684 131.26586914 80.15307617 C136.12118863 84.95217195 140.34295541 89.62110268 143 96 C143.36933387 96.86372679 143.36933387 96.86372679 143.74612904 97.74490261 C146.37833605 104.60425179 146.40483348 111.04227279 146.34057617 118.32250977 C146.33965547 119.66525464 146.34006053 121.00800097 146.34167194 122.3507452 C146.34234474 125.92223685 146.32505267 129.49342235 146.30384064 133.06484222 C146.28666036 136.42534002 146.28594612 139.78582586 146.28381348 143.1463623 C146.26811847 152.95178153 146.22623467 162.75714472 146.1875 172.5625 C146.125625 194.486875 146.06375 216.41125 146 239 C84.62 239 23.24 239 -40 239 C-40.0825 216.745625 -40.165 194.49125 -40.25 171.5625 C-40.28641602 164.54427979 -40.32283203 157.52605957 -40.36035156 150.29516602 C-40.37841797 141.70300293 -40.37841797 141.70300293 -40.3817749 137.67637634 C-40.38549078 134.87330881 -40.40043708 132.0705465 -40.42230225 129.26756287 C-40.4498806 125.68433002 -40.45793883 122.10153656 -40.4522891 118.51820743 C-40.45402312 116.59319047 -40.47540404 114.66822131 -40.497715 112.74333286 C-40.46350203 105.57581972 -39.57229423 100.24983231 -36 94 C-35.53658203 93.15888672 -35.07316406 92.31777344 -34.59570312 91.45117188 C-30.26079577 84.91338441 -24.9495607 79.76768579 -19.27734375 74.39453125 C1.82558456 53.97112478 -0.71544305 29.33316506 0 0 Z " fill="#D2EEFC" transform="translate(203,80)"/>
<path d="M0 0 C28.38 0 56.76 0 86 0 C86 50.17988861 86 50.17988861 72.72265625 63.52734375 C71.1758996 65.00436889 69.62234789 66.47430694 68.0625 67.9375 C56.16000559 79.50602323 46.71784981 92.5059419 45.8613348 109.79977989 C45.85488225 110.76766253 45.8484297 111.73554516 45.84178162 112.73275757 C45.8319928 113.85167389 45.82220398 114.97059021 45.81211853 116.12341309 C45.80636307 117.33613892 45.8006076 118.54886475 45.79467773 119.79833984 C45.78477814 121.08668732 45.77487854 122.37503479 45.76467896 123.7024231 C45.73773784 127.22259712 45.71667015 130.7427844 45.69667697 134.26300383 C45.67475051 137.94656993 45.64739452 141.63009567 45.62062073 145.31362915 C45.57078363 152.28326957 45.52581163 159.2529325 45.48259836 166.22261679 C45.43314903 174.15975368 45.37825953 182.09685005 45.32291877 190.03394771 C45.2092367 206.35592775 45.10236788 222.67794499 45 239 C44.0212793 239.00410889 43.04255859 239.00821777 42.03417969 239.01245117 C38.39578912 239.03425708 34.75847783 239.08855952 31.12060547 239.15258789 C29.54746867 239.17575561 27.97417704 239.19016079 26.40087891 239.19555664 C24.13606428 239.20485626 21.87368033 239.24585978 19.609375 239.29296875 C18.55759064 239.28706978 18.55759064 239.28706978 17.48455811 239.28105164 C13.73354674 239.39262555 12.27931903 239.71997448 9.58691406 242.41918945 C8.03061238 244.86582839 8.03061238 244.86582839 7 247 C3.91738544 247.1746397 0.83604167 247.28094067 -2.25 247.375 C-3.12269531 247.42527344 -3.99539062 247.47554687 -4.89453125 247.52734375 C-7.39706999 247.5846538 -9.5603436 247.56970621 -12 247 C-14.484375 244.0390625 -14.484375 244.0390625 -16 241 C-18.51677113 239.74161443 -20.41293288 239.79181027 -23.2265625 239.68359375 C-24.2578125 239.64169922 -25.2890625 239.59980469 -26.3515625 239.55664062 C-27.43179688 239.51732422 -28.51203125 239.47800781 -29.625 239.4375 C-31.25695312 239.37272461 -31.25695312 239.37272461 -32.921875 239.30664062 C-35.6144517 239.2003547 -38.30712253 239.09831943 -41 239 C-41.09371848 222.14428018 -41.16411328 205.28864245 -41.20724869 188.43272114 C-41.22781552 180.60504219 -41.25582259 172.77752576 -41.30175781 164.94995117 C-41.34180682 158.12212211 -41.36747547 151.29441083 -41.37635398 144.46646756 C-41.38153843 140.85588211 -41.39359844 137.24563343 -41.42292023 133.63515663 C-41.45549839 129.59036369 -41.45594795 125.54614466 -41.45410156 121.5012207 C-41.46848267 120.32301254 -41.48286377 119.14480438 -41.49768066 117.93089294 C-41.41376843 100.83723337 -34.77403346 89.65203989 -23.01660156 77.97192383 C-21.62587476 76.61021014 -20.2246815 75.25907482 -18.81152344 73.9206543 C2.04903146 53.87472691 -0.69411948 28.4588987 0 0 Z " fill="#E4F5FC" transform="translate(102,80)"/>
<path d="M0 0 C28.38 0 56.76 0 86 0 C86.495 20.295 86.495 20.295 87 41 C93.17253291 59.51759874 98.26669696 67.43649763 111.19555664 80.0871582 C121.16327139 89.95612451 126.96349787 100.0074389 127.36076355 114.29606628 C127.36934842 116.62209472 127.36173975 118.94822192 127.34057617 121.27416992 C127.34123329 123.19315598 127.34123329 123.19315598 127.34190369 125.15090942 C127.34275659 128.62341795 127.32524681 132.09560901 127.30418181 135.56804442 C127.28529591 139.21016648 127.28365527 142.85229759 127.28010559 146.49446106 C127.27081983 153.37548657 127.24625362 160.25636733 127.21605712 167.1373294 C127.17609914 176.44680789 127.16003017 185.75632658 127.14255047 195.06586933 C127.11442953 209.71068776 127.05463722 224.35520087 127 239 C98.62 239 70.24 239 41 239 C40.96261719 229.61046875 40.92523438 220.2209375 40.88671875 210.546875 C40.85643029 204.58592294 40.82539711 198.62499004 40.79101562 192.6640625 C40.73662402 183.20997895 40.68520708 173.75594854 40.65356445 164.30175781 C40.63050049 157.41489174 40.59700974 150.52816634 40.55129844 143.64141202 C40.5274787 139.99912805 40.50867664 136.35698242 40.50238609 132.7146225 C40.49514593 128.63604616 40.46461431 124.55794763 40.43237305 120.47949219 C40.43380814 119.28833801 40.43524323 118.09718384 40.4367218 116.86993408 C40.21700905 97.1180228 32.74846168 82.55960919 19 69 C18.1028125 68.13632813 17.205625 67.27265625 16.28125 66.3828125 C7.35650866 57.75377042 3.61816719 51.06055729 0 39 C0 26.13 0 13.26 0 0 Z " fill="#B1E3F9" transform="translate(324,80)"/>
<path d="M0 0 C0.78560106 -0.00297112 1.57120212 -0.00594224 2.38060927 -0.0090034 C5.0275742 -0.01771317 7.67449402 -0.01920057 10.32147217 -0.02069092 C12.21348671 -0.02531753 14.10550031 -0.03034197 15.99751282 -0.03573608 C21.14845906 -0.04887832 26.29939227 -0.05530874 31.45035267 -0.05974674 C34.66693358 -0.06267488 37.88351091 -0.06677922 41.10009003 -0.07125092 C51.15944918 -0.08493143 61.21880015 -0.09459504 71.27816796 -0.09845281 C82.89840337 -0.10293331 94.51852112 -0.12047858 106.13872075 -0.1494534 C115.1145792 -0.17105911 124.09040453 -0.18115652 133.06628871 -0.18249393 C138.42983056 -0.18354287 143.79326191 -0.18946946 149.15677643 -0.20731354 C154.20301028 -0.2237747 159.24905033 -0.2259592 164.29530144 -0.21717453 C166.14722906 -0.21640307 167.99916702 -0.22076114 169.8510685 -0.23063278 C172.38019176 -0.24332331 174.90862573 -0.23749137 177.43774414 -0.22705078 C178.16985587 -0.23510719 178.90196761 -0.24316359 179.65626454 -0.25146413 C184.33362385 -0.20633573 187.50163363 0.6760383 191.47283936 3.14044189 C196.49867034 8.39471974 198.7076161 12.63422828 198.7633667 19.88946533 C198.7761264 21.02124207 198.78888611 22.1530188 198.80203247 23.3190918 C198.80425812 24.53373108 198.80648376 25.74837036 198.80877686 26.99981689 C198.81876205 28.8882431 198.81876205 28.8882431 198.82894897 30.81481934 C198.83906953 33.47786606 198.84463219 36.14050449 198.84344482 38.80352783 C198.84324217 42.19387856 198.87049606 45.58338597 198.90498924 48.97353745 C198.93276116 52.2322644 198.93141181 55.49098782 198.93377686 58.74981689 C198.94814789 59.95635925 198.96251892 61.16290161 198.97732544 62.40600586 C198.93310653 70.62985388 198.04294245 77.5703388 192.03533936 83.57794189 C185.33605314 87.66287251 179.25770317 87.54498255 171.55291748 87.565979 C169.47816025 87.57791129 167.40634806 87.62717243 165.33221436 87.67755127 C164.01737061 87.68464111 162.70252686 87.69173096 161.34783936 87.69903564 C159.54959717 87.71921753 159.54959717 87.71921753 157.71502686 87.73980713 C153.56676134 86.97294027 152.06998679 85.38963259 149.47283936 82.14044189 C149.47283936 81.48044189 149.47283936 80.82044189 149.47283936 80.14044189 C143.20283936 80.14044189 136.93283936 80.14044189 130.47283936 80.14044189 C129.81283936 81.79044189 129.15283936 83.44044189 128.47283936 85.14044189 C125.13510352 87.36559912 124.07891736 87.39276272 120.18591309 87.40113831 C118.54152 87.41176552 118.54152 87.41176552 116.86390686 87.42260742 C115.66074326 87.42013 114.45757965 87.41765259 113.21795654 87.4151001 C111.31758888 87.42276649 111.31758888 87.42276649 109.37882996 87.43058777 C105.90134651 87.44399214 102.42397165 87.44455456 98.9464674 87.44202447 C96.04161906 87.44095511 93.13679272 87.44583754 90.23194909 87.45062989 C83.37521742 87.46173136 76.51854052 87.46215977 69.6618042 87.45611572 C62.59598792 87.45008286 55.53037112 87.46236786 48.46458888 87.48368579 C42.39396801 87.50132564 36.32341048 87.50729916 30.25276494 87.50404805 C26.62909479 87.50223786 23.00556674 87.50484424 19.38191986 87.51876259 C15.33624936 87.53371942 11.29098183 87.52435002 7.24530029 87.51275635 C6.05023361 87.52040009 4.85516693 87.52804382 3.62388611 87.53591919 C-4.20499539 87.48633709 -9.58845438 87.07914816 -15.33966064 81.32794189 C-18.68243526 76.45704174 -19.7726578 72.12683373 -19.81768799 66.26202393 C-19.83044769 65.12709503 -19.8432074 63.99216614 -19.85635376 62.82284546 C-19.85857941 61.61023041 -19.86080505 60.39761536 -19.86309814 59.14825439 C-19.86975494 57.88834686 -19.87641174 56.62843933 -19.88327026 55.33035278 C-19.89338148 52.66908602 -19.89895477 50.00822804 -19.89776611 47.34698486 C-19.89756305 43.95544493 -19.92486623 40.56474413 -19.95931053 37.17340279 C-19.98704082 33.91505242 -19.98573158 30.65670664 -19.98809814 27.39825439 C-20.00246918 26.18968781 -20.01684021 24.98112122 -20.03164673 23.7359314 C-19.99140768 16.27287157 -19.49584514 10.19097467 -14.00894165 4.59091187 C-9.22380573 0.45741455 -6.10904912 -0.00714323 0 0 Z " fill="#678DD3" transform="translate(166.52716064453125,351.85955810546875)"/>
<path d="M0 0 C0.78560106 -0.00297112 1.57120212 -0.00594224 2.38060927 -0.0090034 C5.0275742 -0.01771317 7.67449402 -0.01920057 10.32147217 -0.02069092 C12.21348671 -0.02531753 14.10550031 -0.03034197 15.99751282 -0.03573608 C21.14845906 -0.04887832 26.29939227 -0.05530874 31.45035267 -0.05974674 C34.66693358 -0.06267488 37.88351091 -0.06677922 41.10009003 -0.07125092 C51.15944918 -0.08493143 61.21880015 -0.09459504 71.27816796 -0.09845281 C82.89840337 -0.10293331 94.51852112 -0.12047858 106.13872075 -0.1494534 C115.1145792 -0.17105911 124.09040453 -0.18115652 133.06628871 -0.18249393 C138.42983056 -0.18354287 143.79326191 -0.18946946 149.15677643 -0.20731354 C154.20301028 -0.2237747 159.24905033 -0.2259592 164.29530144 -0.21717453 C166.14722906 -0.21640307 167.99916702 -0.22076114 169.8510685 -0.23063278 C172.38019176 -0.24332331 174.90862573 -0.23749137 177.43774414 -0.22705078 C178.16985587 -0.23510719 178.90196761 -0.24316359 179.65626454 -0.25146413 C184.33362385 -0.20633573 187.50163363 0.6760383 191.47283936 3.14044189 C196.49867034 8.39471974 198.7076161 12.63422828 198.7633667 19.88946533 C198.7761264 21.02124207 198.78888611 22.1530188 198.80203247 23.3190918 C198.80425812 24.53373108 198.80648376 25.74837036 198.80877686 26.99981689 C198.81876205 28.8882431 198.81876205 28.8882431 198.82894897 30.81481934 C198.83906953 33.47786606 198.84463219 36.14050449 198.84344482 38.80352783 C198.84324217 42.19387856 198.87049606 45.58338597 198.90498924 48.97353745 C198.93276116 52.2322644 198.93141181 55.49098782 198.93377686 58.74981689 C198.94814789 59.95635925 198.96251892 61.16290161 198.97732544 62.40600586 C198.93310653 70.62985388 198.04294245 77.5703388 192.03533936 83.57794189 C185.30814942 87.67988698 179.23204759 87.51287467 171.49798584 87.51104736 C169.41261077 87.51543711 167.32932728 87.55184525 165.24432373 87.58966064 C163.92625732 87.59352783 162.60819092 87.59739502 161.25018311 87.60137939 C160.04611816 87.60959717 158.84205322 87.61781494 157.60150146 87.62628174 C153.86285816 87.04571988 152.69276308 86.15706298 150.47283936 83.14044189 C149.91033936 79.64044189 149.91033936 79.64044189 150.47283936 76.14044189 C155.47283936 72.14044189 155.47283936 72.14044189 182.47283936 71.14044189 C182.47283936 52.99044189 182.47283936 34.84044189 182.47283936 16.14044189 C121.09283936 16.14044189 59.71283936 16.14044189 -3.52716064 16.14044189 C-3.52716064 34.29044189 -3.52716064 52.44044189 -3.52716064 71.14044189 C0.32415527 71.1497876 4.17547119 71.1591333 8.14349365 71.16876221 C20.85615082 71.20250167 33.56863666 71.25783212 46.28116131 71.32434464 C53.99015844 71.36414963 61.69905328 71.39653463 69.40814209 71.41143799 C76.12760481 71.42444702 82.84684258 71.45139226 89.56617862 71.49505496 C93.12388914 71.51768699 96.68132205 71.53335156 100.23911095 71.53232574 C104.21137688 71.53144159 108.18307525 71.56167194 112.1552124 71.59454346 C113.92358963 71.58699791 113.92358963 71.58699791 115.72769165 71.57929993 C123.69546539 71.68157473 123.69546539 71.68157473 127.7033844 74.04736328 C129.62817527 76.3241879 130.13179275 77.25827663 130.03533936 80.20294189 C129.47283936 84.14044189 129.47283936 84.14044189 127.7756319 85.86272621 C124.99237753 87.40702848 123.2400964 87.51762624 120.06565857 87.52139282 C118.96802185 87.52985229 117.87038513 87.53831177 116.73948669 87.54702759 C115.53991837 87.5409549 114.34035004 87.5348822 113.10443115 87.52862549 C111.83737335 87.53388245 110.57031555 87.5391394 109.26486206 87.54455566 C105.79151161 87.55822999 102.31842857 87.5529292 98.84507346 87.54341841 C95.2061617 87.53581742 91.56727266 87.5428691 87.92835999 87.5475769 C81.81431984 87.55303527 75.70038839 87.54584295 69.58636475 87.53155518 C62.52790104 87.51525032 55.46969761 87.52050095 48.41124028 87.53703439 C42.34483581 87.55067317 36.27850946 87.55255661 30.2120946 87.54471838 C26.5918046 87.54005215 22.97163666 87.53938752 19.3513546 87.54932785 C15.31055828 87.55964738 11.27020614 87.54532119 7.22943115 87.52862549 C6.03593552 87.53469818 4.84243988 87.54077087 3.61277771 87.54702759 C-4.20783743 87.48721518 -9.59478768 87.07281486 -15.33966064 81.32794189 C-18.68243526 76.45704174 -19.7726578 72.12683373 -19.81768799 66.26202393 C-19.83044769 65.12709503 -19.8432074 63.99216614 -19.85635376 62.82284546 C-19.85857941 61.61023041 -19.86080505 60.39761536 -19.86309814 59.14825439 C-19.86975494 57.88834686 -19.87641174 56.62843933 -19.88327026 55.33035278 C-19.89338148 52.66908602 -19.89895477 50.00822804 -19.89776611 47.34698486 C-19.89756305 43.95544493 -19.92486623 40.56474413 -19.95931053 37.17340279 C-19.98704082 33.91505242 -19.98573158 30.65670664 -19.98809814 27.39825439 C-20.00246918 26.18968781 -20.01684021 24.98112122 -20.03164673 23.7359314 C-19.99140768 16.27287157 -19.49584514 10.19097467 -14.00894165 4.59091187 C-9.22380573 0.45741455 -6.10904912 -0.00714323 0 0 Z " fill="#030405" transform="translate(166.52716064453125,351.85955810546875)"/>
<path d="M0 0 C6.6 0 13.2 0 20 0 C20.99 1.98 21.98 3.96 23 6 C24.72873474 7.72873474 27.06458569 7.16064469 29.421875 7.18945312 C30.57977539 7.20617065 31.73767578 7.22288818 32.93066406 7.2401123 C34.19104492 7.25368774 35.45142578 7.26726318 36.75 7.28125 C38.71067461 7.3093704 40.67134916 7.33749609 42.63201904 7.36594391 C46.08796038 7.41475068 49.54398025 7.45717087 53 7.5 C57.12016852 7.55105967 61.24029912 7.60318505 65.36035156 7.66296387 C67.92995185 7.6998176 70.49962044 7.73220954 73.06933594 7.7598877 C74.22723633 7.77660522 75.38513672 7.79332275 76.578125 7.81054688 C78.11581543 7.82933899 78.11581543 7.82933899 79.68457031 7.84851074 C82 8 82 8 83 9 C83.09981214 11.6773138 83.13879875 14.32304175 83.125 17 C83.12886719 17.75023438 83.13273437 18.50046875 83.13671875 19.2734375 C83.12661053 24.87338947 83.12661053 24.87338947 82 26 C80.16086722 26.09845096 78.31790122 26.1255564 76.47613525 26.12584114 C74.66619143 26.12975276 74.66619143 26.12975276 72.81968307 26.13374341 C71.46344742 26.13158088 70.10721192 26.12932421 68.75097656 26.12698364 C67.32364487 26.12813449 65.89631347 26.12972177 64.4689827 26.13171089 C60.52822016 26.13590916 56.58748164 26.13381129 52.64671898 26.13072467 C48.40400398 26.1284728 44.16129326 26.13194911 39.9185791 26.13470459 C31.59977053 26.13916358 23.28097095 26.13818525 14.96216202 26.13529195 C8.20446956 26.13303842 1.44677964 26.13272517 -5.31091309 26.13381577 C-6.27076386 26.133969 -7.23061464 26.13412223 -8.2195518 26.13428011 C-10.16914654 26.13459982 -12.11874127 26.13492403 -14.06833601 26.1352527 C-32.37247995 26.13810787 -50.67661889 26.13481989 -68.980762 26.12945233 C-84.70462509 26.12498426 -100.4284808 26.12576018 -116.15234375 26.13037109 C-134.38862352 26.13571621 -152.62489891 26.13783317 -170.86117935 26.13475883 C-172.80381521 26.13444026 -174.74645106 26.13412589 -176.68908691 26.13381577 C-177.64503337 26.13366149 -178.60097982 26.13350721 -179.58589435 26.13334826 C-186.3396126 26.13248292 -193.09332808 26.13394636 -199.8470459 26.13629532 C-208.07162068 26.13909282 -216.29618591 26.13835612 -224.52075958 26.13301457 C-228.72129848 26.13037688 -232.92182143 26.12937363 -237.12236023 26.13266373 C-240.96139458 26.13562531 -244.80039806 26.13403621 -248.63942957 26.12868617 C-250.03442812 26.12756139 -251.42942924 26.1281545 -252.82442617 26.13056196 C-254.70832746 26.13356585 -256.59223597 26.12991259 -258.47613525 26.12584114 C-259.52627934 26.12567879 -260.57642342 26.12551644 -261.65839005 26.12534916 C-264 26 -264 26 -265 25 C-265.09981214 22.3226862 -265.13879875 19.67695825 -265.125 17 C-265.12886719 16.24976562 -265.13273437 15.49953125 -265.13671875 14.7265625 C-265.12661053 9.12661053 -265.12661053 9.12661053 -264 8 C-262.61106858 7.90210929 -261.21719225 7.87337363 -259.82481575 7.87250805 C-258.46608005 7.86799658 -258.46608005 7.86799658 -257.07989514 7.86339396 C-256.07320778 7.86514433 -255.06652043 7.86689471 -254.02932739 7.86869812 C-252.96886605 7.86658241 -251.90840471 7.86446669 -250.81580818 7.86228687 C-247.23282682 7.85625563 -243.64988037 7.85728923 -240.06689453 7.8581543 C-237.51007019 7.8551249 -234.95324638 7.85160406 -232.39642334 7.84762573 C-226.87595648 7.83971998 -221.35549711 7.83456496 -215.83502579 7.83133507 C-207.11361995 7.8258474 -198.39225342 7.80895921 -189.67086792 7.78999329 C-186.68953902 7.78363609 -183.70821002 7.77732773 -180.72688103 7.77101612 C-179.98175364 7.76943236 -179.23662626 7.7678486 -178.46891925 7.76621684 C-169.98107269 7.7482689 -161.49322335 7.73204786 -153.00537109 7.71704102 C-151.84105998 7.71497721 -151.84105998 7.71497721 -150.65322743 7.71287171 C-138.07145912 7.6909365 -125.48970086 7.68018464 -112.9079168 7.67267027 C-100.00195373 7.66460674 -87.09607718 7.64134086 -74.19016349 7.6047166 C-66.22325319 7.58265678 -58.2565206 7.57303751 -50.28958128 7.57921693 C-44.18809429 7.58275885 -38.08684921 7.56557067 -31.98540497 7.54053879 C-29.4775347 7.53359102 -26.96963485 7.53353859 -24.46176529 7.54073906 C-21.04904171 7.54955085 -17.63728452 7.53405769 -14.22463989 7.51225281 C-13.22241398 7.52069534 -12.22018807 7.52913788 -11.18759167 7.53783625 C-10.27655238 7.52700536 -9.36551308 7.51617447 -8.42686653 7.50501537 C-7.63872948 7.50403856 -6.85059242 7.50306176 -6.03857243 7.50205535 C-3.83078869 7.1559423 -3.83078869 7.1559423 -2.28582084 5.15593654 C-0.86233518 2.9442528 -0.86233518 2.9442528 0 0 Z " fill="#8ED6F6" transform="translate(347,39)"/>
<path d="M0 0 C0.68009125 -0.0065712 1.3601825 -0.0131424 2.06088257 -0.01991272 C4.31117877 -0.03961812 6.5614082 -0.05130401 8.81176758 -0.0612793 C9.96763083 -0.06739259 9.96763083 -0.06739259 11.14684486 -0.07362938 C15.22793941 -0.09448147 19.30900045 -0.10878514 23.39013672 -0.11816406 C27.59214219 -0.12920811 31.79361513 -0.16358674 35.99543285 -0.20333576 C39.23752278 -0.22956727 42.47948727 -0.2378618 45.72167397 -0.24144554 C47.26973364 -0.2462971 48.81778826 -0.25787009 50.36574364 -0.27648354 C65.47745931 -0.44685507 65.47745931 -0.44685507 72.26879883 4.17700195 C77.97895387 10.32639969 77.54310202 15.20964047 77.64379883 23.30200195 C77.69987305 24.97649414 77.69987305 24.97649414 77.75708008 26.68481445 C77.83253512 33.79435579 77.35131795 38.9519081 72.26879883 44.17700195 C64.86529268 49.32948524 56.20044434 48.762712 47.57739258 48.70825195 C46.06242118 48.71095218 44.54745148 48.714839 43.03248596 48.71984863 C39.87126011 48.72571704 36.71048903 48.71726643 33.54931641 48.69848633 C29.51550641 48.67567803 25.48276014 48.68884763 21.44898891 48.71277618 C18.32522185 48.72729007 15.20170345 48.72260314 12.07792854 48.71226501 C10.59130792 48.70961413 9.10466404 48.71280925 7.6180706 48.72218323 C-8.67386823 48.80240845 -8.67386823 48.80240845 -15.58642578 42.48022461 C-19.42745107 36.3734592 -19.44731124 30.62636851 -19.29370117 23.55200195 C-19.31013672 21.89297852 -19.31013672 21.89297852 -19.3269043 20.20043945 C-19.27018346 13.90820849 -18.98976608 9.92874625 -14.73120117 5.17700195 C-9.83331141 0.75695509 -6.50416381 0.05203374 0 0 Z " fill="#040405" transform="translate(226.731201171875,215.822998046875)"/>
<path d="M0 0 C1.29461655 0.00222061 2.58923309 0.00444122 3.92308044 0.00672913 C4.99131546 0.00651009 4.99131546 0.00651009 6.08113098 0.00628662 C8.4457143 0.00698581 10.81021979 0.01477846 13.17478943 0.02259827 C14.81003781 0.02446243 16.44528675 0.02588634 18.08053589 0.02688599 C22.39273103 0.03071134 26.7048927 0.04054177 31.01707458 0.05158997 C36.18657998 0.06359825 41.35609654 0.06820624 46.52561188 0.07404327 C54.38655895 0.08375352 62.24743253 0.10290993 70.10838318 0.12025452 C70.10838318 19.26025452 70.10838318 38.40025452 70.10838318 58.12025452 C51.93017948 58.16036333 51.93017948 58.16036333 44.20799255 58.16908264 C38.92958069 58.17507076 33.65118611 58.18217024 28.37278748 58.19569397 C24.11937203 58.20652396 19.86597509 58.21253159 15.61254692 58.21513176 C13.98616685 58.21698581 12.35978784 58.22060604 10.7334156 58.22598457 C8.46328125 58.2331965 6.19322433 58.2342454 3.92308044 58.23377991 C1.98115562 58.23711082 1.98115562 58.23711082 0 58.24050903 C-2.89161682 58.12025452 -2.89161682 58.12025452 -3.89161682 57.12025452 C-3.99049474 55.37642916 -4.01960714 53.62859908 -4.02101135 51.88197327 C-4.02416351 50.76411438 -4.02731567 49.64625549 -4.03056335 48.49452209 C-4.02853912 47.27788879 -4.02651489 46.06125549 -4.02442932 44.80775452 C-4.02538605 43.56856262 -4.02634277 42.32937073 -4.02732849 41.05262756 C-4.02801056 38.42637171 -4.0266522 35.80020818 -4.02198792 33.17396545 C-4.01629063 29.80096738 -4.01956984 26.42804886 -4.02556038 23.05505371 C-4.03003452 19.84761775 -4.02690564 16.64019151 -4.02442932 13.43275452 C-4.02645355 12.21612122 -4.02847778 10.99948792 -4.03056335 9.74598694 C-4.02741119 8.62812805 -4.02425903 7.51026917 -4.02101135 6.35853577 C-4.02021576 5.3689386 -4.01942017 4.37934143 -4.01860046 3.35975647 C-3.8257512 -0.0413611 -3.45986678 0.14388649 0 0 Z " fill="#678DD4" transform="translate(400.89161682128906,365.87974548339844)"/>
<path d="M0 0 C18.1782037 -0.04010881 18.1782037 -0.04010881 25.90039062 -0.04882812 C31.17880248 -0.05481625 36.45719707 -0.06191572 41.7355957 -0.07543945 C45.98901115 -0.08626944 50.24240809 -0.09227707 54.49583626 -0.09487724 C56.12221633 -0.09673129 57.74859534 -0.10035152 59.37496758 -0.10573006 C61.64510193 -0.11294198 63.91515885 -0.11399088 66.18530273 -0.11352539 C68.12722755 -0.11685631 68.12722755 -0.11685631 70.10838318 -0.12025452 C73 0 73 0 74 1 C74.09881593 2.71318946 74.12798969 4.43044803 74.12939453 6.14648438 C74.13254669 7.24432251 74.13569885 8.34216064 74.13894653 9.4732666 C74.13591019 11.26540588 74.13591019 11.26540588 74.1328125 13.09375 C74.13376923 14.31074585 74.13472595 15.5277417 74.13571167 16.78161621 C74.13639372 19.36075899 74.13453772 21.93990347 74.13037109 24.51904297 C74.12502322 28.48278636 74.13031529 32.44641642 74.13671875 36.41015625 C74.13605797 38.90885442 74.13477682 41.40755252 74.1328125 43.90625 C74.13483673 45.10100952 74.13686096 46.29576904 74.13894653 47.5267334 C74.13421829 49.1734906 74.13421829 49.1734906 74.12939453 50.85351562 C74.12859894 51.8253479 74.12780334 52.79718018 74.12698364 53.79846191 C74 56 74 56 73 57 C70.73008113 57.09439978 68.45718033 57.11742226 66.18530273 57.11352539 C65.11706772 57.11374443 65.11706772 57.11374443 64.0272522 57.1139679 C61.66266888 57.1132687 59.29816339 57.10547606 56.93359375 57.09765625 C55.29834537 57.09579209 53.66309643 57.09436818 52.02784729 57.09336853 C47.71565215 57.08954318 43.40349048 57.07971275 39.09130859 57.06866455 C33.9218032 57.05665627 28.75228664 57.05204827 23.5827713 57.04621124 C15.72182423 57.036501 7.86095065 57.01734458 0 57 C0 38.19 0 19.38 0 0 Z " fill="#678DD4" transform="translate(41,367)"/>
<path d="M0 0 C33.66 0 67.32 0 102 0 C96 24 96 24 95 25 C92.2611158 25.09516211 89.54752059 25.12554594 86.80834961 25.11352539 C85.94988937 25.11367142 85.09142914 25.11381744 84.20695496 25.1139679 C81.35539262 25.11326847 78.50389475 25.1054747 75.65234375 25.09765625 C73.68079158 25.09579218 71.70923895 25.09436822 69.73768616 25.09336853 C64.53773733 25.08954251 59.33781625 25.07971152 54.13787842 25.06866455 C48.83606339 25.05845222 43.5342439 25.05387129 38.23242188 25.04882812 C27.82160237 25.03808933 17.41080349 25.02101191 7 25 C4 17 4 17 0 0 Z " fill="#586B75" transform="translate(205,472)"/>
<path d="M0 0 C24.09 0 48.18 0 73 0 C73 7.92 73 15.84 73 24 C72 25 72 25 69.37413025 25.12025452 C68.20386795 25.11803391 67.03360565 25.11581329 65.82788086 25.11352539 C65.18399918 25.11367142 64.54011749 25.11381744 63.87672424 25.1139679 C61.73939697 25.11326885 59.60215587 25.10547691 57.46484375 25.09765625 C55.98653715 25.09579204 54.50822993 25.09436815 53.02992249 25.09336853 C49.13201198 25.08954359 45.23413851 25.07971352 41.33624268 25.06866455 C37.36153667 25.05844992 33.38682471 25.0538708 29.41210938 25.04882812 C21.608056 25.03809122 13.80403318 25.02101509 6 25 C5.35848939 22.92865949 4.71807685 20.85697888 4.078125 18.78515625 C3.72137695 17.63152588 3.36462891 16.47789551 2.99707031 15.28930664 C0 5.40205681 0 5.40205681 0 0 Z " fill="#586B75" transform="translate(64,472)"/>
<path d="M0 0 C24.09 0 48.18 0 73 0 C72.29711215 5.62310277 71.51841709 10.50596747 70.0625 15.875 C69.80823242 16.86886719 69.80823242 16.86886719 69.54882812 17.8828125 C68.24719357 22.75280643 68.24719357 22.75280643 66 25 C63.29856873 25.24723816 63.29856873 25.24723816 59.82202148 25.24291992 C58.52405136 25.24599655 57.22608124 25.24907318 55.88877869 25.25224304 C54.46621525 25.24534581 53.04365356 25.23807888 51.62109375 25.23046875 C50.16903219 25.22927707 48.71696986 25.22882376 47.26490784 25.2290802 C44.2209084 25.22751504 41.17702651 25.21922222 38.13305664 25.20581055 C34.22312224 25.18880552 30.31331693 25.18499661 26.40334988 25.18575573 C23.40516417 25.18548438 20.40700691 25.18000904 17.40883064 25.17275429 C15.96666746 25.16956318 14.52450104 25.16759919 13.08233452 25.16686058 C11.07107261 25.16470256 9.05982263 25.15517349 7.04858398 25.14526367 C5.32888649 25.13954597 5.32888649 25.13954597 3.57444763 25.13371277 C1 25 1 25 0 24 C0 16.08 0 8.16 0 0 Z " fill="#586B75" transform="translate(375,472)"/>
<path d="M0 0 C24.09 0 48.18 0 73 0 C73 19.14 73 38.28 73 58 C64.75 58 56.5 58 48 58 C48 39.19 48 20.38 48 1 C32.16 1 16.32 1 0 1 C0 0.67 0 0.34 0 0 Z " fill="#3F6EC2" transform="translate(398,366)"/>
<path d="M0 0 C21.78 0 43.56 0 66 0 C66 5.94 66 11.88 66 18 C44.22 18 22.44 18 0 18 C0 12.06 0 6.12 0 0 Z " fill="#6388CC" transform="translate(223,231)"/>
<path d="M0 0 C24.42 0 48.84 0 74 0 C74 5.28 74 10.56 74 16 C72 18 72 18 69.02007854 18.24839699 C67.7267511 18.24763755 66.43342365 18.24687811 65.10090446 18.24609566 C64.01857215 18.24955719 64.01857215 18.24955719 62.91437453 18.25308865 C60.47178706 18.25842547 58.02945788 18.24937431 55.58688354 18.24050903 C53.82799185 18.24138035 52.0691004 18.24312996 50.31021035 18.24568737 C45.4576257 18.25017945 40.60512861 18.24213179 35.75255513 18.23213124 C30.52691088 18.22352572 25.3012719 18.22641484 20.07562256 18.22793579 C11.01542864 18.22898648 1.95526344 18.22269067 -7.10492325 18.21146011 C-20.20456519 18.19523299 -33.3041932 18.18999997 -46.4038441 18.18748413 C-67.65514223 18.18310264 -88.90642504 18.16978124 -110.15771484 18.15087891 C-130.80615156 18.13253184 -151.45458412 18.1183696 -172.10302734 18.10986328 C-173.37496201 18.10933783 -174.64689668 18.10881239 -175.95737483 18.10827102 C-182.33804789 18.10566102 -188.71872097 18.10313358 -195.09939408 18.10064721 C-248.06627331 18.07990057 -301.03313591 18.04466272 -354 18 C-354 17.67 -354 17.34 -354 17 C-221.01 17 -88.02 17 49 17 C49 11.72 49 6.44 49 1 C32.83 1 16.66 1 0 1 C0 0.67 0 0.34 0 0 Z " fill="#64A5C3" transform="translate(397,439)"/>
<path d="M0 0 C44.93606485 -0.04573477 89.87212724 -0.08099749 134.80821075 -0.10213066 C140.10814314 -0.1046322 145.40807549 -0.10722083 150.70800781 -0.10986328 C152.2907514 -0.11065021 152.2907514 -0.11065021 153.90546961 -0.11145304 C171.01132133 -0.12016587 188.11715966 -0.13594065 205.22300343 -0.15430559 C222.76306473 -0.17298026 240.303119 -0.18411156 257.84318984 -0.18817699 C268.67442894 -0.19092711 279.50563022 -0.19962648 290.33685769 -0.21583293 C297.75488722 -0.22636981 305.17289707 -0.22960814 312.59093355 -0.22700275 C316.87667122 -0.2257163 321.1623426 -0.22774754 325.44806862 -0.23841095 C329.36617081 -0.24808898 333.28416165 -0.24867071 337.20226879 -0.24179779 C338.62490823 -0.24094739 340.04755441 -0.24353051 341.47018044 -0.24976636 C343.39376177 -0.25771249 345.31738479 -0.25230495 347.24097252 -0.24609566 C348.31254329 -0.2468551 349.38411406 -0.24761454 350.48815668 -0.24839699 C353 0 353 0 355 2 C355 7.28 355 12.56 355 18 C330.25 18 305.5 18 280 18 C280 17.67 280 17.34 280 17 C296.5 17 313 17 330 17 C330 11.72 330 6.44 330 1 C221.1 1 112.2 1 0 1 C0 0.67 0 0.34 0 0 Z " fill="#6FB7D8" transform="translate(116,334)"/>
<path d="M0 0 C7.28421548 -0.02312916 14.5684231 -0.04091801 21.85266781 -0.05181217 C25.23471813 -0.05703975 28.6167434 -0.06413511 31.9987793 -0.07543945 C35.88329777 -0.08834267 39.76780597 -0.09322924 43.65234375 -0.09765625 C44.87211411 -0.10281754 46.09188446 -0.10797882 47.34861755 -0.11329651 C49.03024742 -0.11340981 49.03024742 -0.11340981 50.74584961 -0.11352539 C51.73846298 -0.115746 52.73107635 -0.11796661 53.75376892 -0.12025452 C56 0 56 0 57 1 C57.09981214 3.6773138 57.13879875 6.32304175 57.125 9 C57.12886719 9.75023437 57.13273437 10.50046875 57.13671875 11.2734375 C57.12661053 16.87338947 57.12661053 16.87338947 56 18 C54.15990804 18.09755015 52.31601772 18.12371378 50.47334194 18.12304783 C49.26609602 18.12503888 48.05885011 18.12702993 46.81502098 18.12908131 C45.45809628 18.12622772 44.10117176 18.12328211 42.74424744 18.12025452 C41.31620326 18.12069009 39.88815916 18.12156475 38.46011549 18.12284368 C34.51742019 18.12509132 30.5747518 18.12106371 26.63205993 18.11606562 C22.38732073 18.11176514 18.14258317 18.11320726 13.89784241 18.1139679 C6.5373848 18.11449339 -0.82306398 18.11134397 -8.18351936 18.10573006 C-18.82562897 18.09761845 -29.46773428 18.09500019 -40.10984664 18.09374207 C-57.37409615 18.09155101 -74.63834094 18.08488948 -91.90258789 18.07543945 C-108.67765275 18.06626672 -125.45271634 18.05918521 -142.2277832 18.05493164 C-143.26102095 18.05466892 -144.2942587 18.05440619 -145.35880668 18.05413551 C-150.54202469 18.05283051 -155.72524271 18.0515668 -160.90846074 18.05032361 C-203.93897709 18.03994933 -246.9694883 18.02232956 -290 18 C-290 17.67 -290 17.34 -290 17 C-183.41 17 -76.82 17 33 17 C33 11.72 33 6.44 33 1 C22.11 1 11.22 1 0 1 C0 0.67 0 0.34 0 0 Z " fill="#69AECE" transform="translate(373,47)"/>
<path d="M0 0 C0.87760986 -0.00315216 1.75521973 -0.00630432 2.65942383 -0.009552 C3.61357178 -0.00752777 4.56771973 -0.00550354 5.55078125 -0.00341797 C6.52362061 -0.00437469 7.49645996 -0.00533142 8.4987793 -0.00631714 C10.56005925 -0.00699905 12.62134133 -0.00514399 14.68261719 -0.00097656 C17.84965813 0.00437153 21.01655725 -0.00092119 24.18359375 -0.00732422 C26.1809899 -0.00666344 28.17838596 -0.00538228 30.17578125 -0.00341797 C31.1299292 -0.0054422 32.08407715 -0.00746643 33.06713867 -0.009552 C34.38355347 -0.00482376 34.38355347 -0.00482376 35.7265625 0 C36.50298096 0.00079559 37.27939941 0.00159119 38.0793457 0.00241089 C39.86328125 0.12939453 39.86328125 0.12939453 40.86328125 1.12939453 C40.86328125 6.40939453 40.86328125 11.68939453 40.86328125 17.12939453 C25.68328125 17.12939453 10.50328125 17.12939453 -5.13671875 17.12939453 C-5.13671875 0.00526358 -5.13671875 0.00526358 0 0 Z " fill="#586A74" transform="translate(238.13671875,14.87060546875)"/>
</svg>
